<?xml version="1.0" encoding="UTF-8"?>
<svg id="Calque_2" xmlns="http://www.w3.org/2000/svg" version="1.1" xmlns:xlink="http://www.w3.org/1999/xlink" viewBox="0 0 595.28 366.15">
  <!-- Generator: Adobe Illustrator 29.3.1, SVG Export Plug-In . SVG Version: 2.1.0 Build 151)  -->
  <defs>
    <style>
      .st0 {
        fill: url(#Dégradé_sans_nom_10);
      }
    </style>
    <linearGradient id="Dégradé_sans_nom_10" data-name="Dégradé sans nom 10" x1=".71" y1="183.08" x2="595.5" y2="183.08" gradientUnits="userSpaceOnUse">
      <stop offset="0" stop-color="#bc1742"/>
      <stop offset=".04" stop-color="#b31a47"/>
      <stop offset=".37" stop-color="#792f6b"/>
      <stop offset=".65" stop-color="#4f3e85"/>
      <stop offset=".87" stop-color="#354895"/>
      <stop offset="1" stop-color="#2c4c9b"/>
    </linearGradient>
  </defs>
  <g>
    <path d="M139.19,207.37h-22.39v81.43h21.84c6.75,0,11.48-2.1,14.18-6.29,2.7-4.19,4.05-10.15,4.05-17.86v-38.12c0-6.26-1.48-11.02-4.44-14.27-2.96-3.25-7.37-4.88-13.23-4.88ZM140.48,270.06c0,2.9-1.5,4.35-4.49,4.35h-2.82v-52.79h1.8c2.22,0,3.69.39,4.42,1.18.72.79,1.09,2.54,1.09,5.25v42.01Z"/>
    <polygon points="196.09 223.1 196.09 207.37 163.52 207.37 163.52 288.79 197.16 288.79 197.16 272.93 180.08 272.93 180.08 254.28 195.44 254.28 195.44 238.97 180.08 238.97 180.08 223.1 196.09 223.1"/>
    <polygon points="224.73 288.79 241.11 288.79 241.11 251.88 256.47 251.88 256.47 236.19 241.11 236.19 241.11 223.24 257.3 223.24 257.3 207.37 224.73 207.37 224.73 288.79"/>
    <path d="M279,251.64c2.16,0,3.72.29,4.7.86.97.57,1.46,2.04,1.46,4.42v31.88h16.05v-30.81c0-3.21-.52-5.82-1.55-7.84-1.03-2.02-2.83-3.29-5.39-3.82,3.11-1.02,5.23-2.85,6.36-5.51,1.13-2.65,1.69-6.2,1.69-10.64s-.36-8.6-1.09-12.01c-.73-3.41-2.15-6.06-4.28-7.96s-5.27-2.85-9.44-2.85h-24.98v81.43h16.47v-37.15ZM279.09,222.45h3.79c1.36,0,2.28.49,2.78,1.48.49.99.74,3.07.74,6.25,0,4.9-1.13,7.36-3.38,7.36h-3.93v-15.08Z"/>
    <path d="M322.3,275.66h9.81l1.16,13.14h15.41l-7.73-81.43h-27.62l-7.87,81.43h15.82l1.02-13.14ZM326.56,221.25h.74l3.56,41.41h-7.4l3.1-41.41Z"/>
    <polygon points="377.91 246.37 370.42 207.37 353.67 207.37 353.67 288.79 369.59 288.79 369.59 248.08 377.73 288.79 393.64 288.79 393.64 207.37 377.91 207.37 377.91 246.37"/>
    <path d="M419.83,289.54c6.48,0,11.52-1.61,15.13-4.83,3.61-3.22,5.41-8.41,5.41-15.57v-15.41h-16.38v14.67c0,1.82-.29,3.3-.86,4.44-.57,1.14-1.55,1.71-2.94,1.71-1.23,0-2.18-.46-2.85-1.39-.66-.93-.99-2.51-.99-4.77v-40.76c0-1.82.26-3.28.79-4.37.52-1.09,1.54-1.64,3.05-1.64,1.3,0,2.25.42,2.87,1.27.62.85.93,2.49.93,4.93v12.03h16.19v-14.06c0-4.29-.86-7.84-2.59-10.66-1.73-2.82-4.09-4.94-7.1-6.36-3.01-1.42-6.44-2.13-10.29-2.13-7.06,0-12.16,2.1-15.29,6.29-3.13,4.2-4.7,10.24-4.7,18.14v37.57c0,6.6,1.8,11.74,5.39,15.41,3.59,3.67,8.33,5.51,14.23,5.51Z"/>
    <polygon points="462.35 254.28 477.71 254.28 477.71 238.97 462.35 238.97 462.35 223.1 478.36 223.1 478.36 207.37 445.78 207.37 445.78 288.79 479.42 288.79 479.42 272.93 462.35 272.93 462.35 254.28"/>
    <polygon points="270.91 358.94 280.74 358.94 280.74 336.78 289.96 336.78 289.96 327.37 280.74 327.37 280.74 319.6 290.46 319.6 290.46 310.08 270.91 310.08 270.91 358.94"/>
    <path d="M303.53,321.93v-4.64h-10.1v41.64h10.1v-31.84c0-.37.43-.71,1.28-1.01.85-.31,1.84-.55,2.97-.72,1.13-.18,2.1-.26,2.91-.26v-8.3c-1.85,0-3.39.45-4.61,1.36-1.22.91-2.07,2.17-2.55,3.78Z"/>
    <path d="M325.29,316.85c-3.89,0-6.94.99-9.16,2.98-2.22,1.99-3.33,4.92-3.33,8.79v16.74c0,2.94.38,5.46,1.14,7.55s2.02,3.69,3.78,4.8,4.12,1.67,7.08,1.67c3.15,0,5.63-.53,7.45-1.6,1.82-1.06,3.12-2.65,3.89-4.75.77-2.1,1.15-4.71,1.15-7.81v-2.36h-9.88v4c0,1.44-.13,2.61-.39,3.51-.26.9-.91,1.35-1.94,1.35-.72,0-1.24-.23-1.57-.69-.32-.46-.53-1.05-.62-1.76-.09-.71-.14-1.44-.14-2.18v-8.05h14.43c.07-1.26.11-3.72.11-7.38v-3.03c0-7.85-4-11.77-11.99-11.77ZM327.4,334.09h-4.72v-5.61c0-1.55.22-2.65.65-3.28s1.05-.94,1.85-.94c.74,0,1.3.33,1.67.99s.56,1.73.56,3.23v5.61Z"/>
    <path d="M353.05,316.85c-3.89,0-6.94.99-9.16,2.98-2.22,1.99-3.33,4.92-3.33,8.79v16.74c0,2.94.38,5.46,1.14,7.55s2.02,3.69,3.78,4.8,4.12,1.67,7.08,1.67c3.15,0,5.63-.53,7.45-1.6,1.82-1.06,3.12-2.65,3.89-4.75.77-2.1,1.15-4.71,1.15-7.81v-2.36h-9.88v4c0,1.44-.13,2.61-.39,3.51-.26.9-.91,1.35-1.94,1.35-.72,0-1.24-.23-1.57-.69-.32-.46-.53-1.05-.62-1.76-.09-.71-.14-1.44-.14-2.18v-8.05h14.43c.07-1.26.11-3.72.11-7.38v-3.03c0-7.85-4-11.77-11.99-11.77ZM355.16,334.09h-4.72v-5.61c0-1.55.22-2.65.65-3.28s1.05-.94,1.85-.94c.74,0,1.3.33,1.67.99s.56,1.73.56,3.23v5.61Z"/>
    <path d="M385.78,334.79l-6.16-4.5c-1.18-.85-1.78-2.03-1.78-3.53s.7-2.22,2.11-2.22c.83,0,1.39.39,1.68,1.17.29.78.43,1.58.43,2.42v1.58h10.27v-.78c0-8.05-4.03-12.08-12.1-12.08-2.18,0-4.21.38-6.09,1.14-1.88.76-3.39,1.92-4.52,3.47s-1.71,3.53-1.71,5.91c0,2.57.43,4.58,1.3,6.02.87,1.44,2.14,2.81,3.8,4.11l5.3,4.08c1.09.83,2.02,1.7,2.78,2.6.76.9,1.14,2.25,1.14,4.07,0,2.17-.72,3.25-2.17,3.25-.81,0-1.41-.27-1.78-.8s-.56-1.28-.56-2.22v-4.89h-9.99v3.3c0,8.33,4.11,12.49,12.33,12.49,3.89,0,6.94-1.03,9.17-3.08,2.23-2.05,3.34-5.04,3.34-8.97,0-3.16-.65-5.7-1.96-7.61s-2.92-3.55-4.84-4.94Z"/>
    <polygon points="420.53 317.3 410.24 317.3 405.46 331.65 405.46 310.08 395.64 310.08 395.64 358.94 405.46 358.94 405.46 339.31 411.65 358.94 422.23 358.94 414.29 335.4 420.53 317.3"/>
    <path d="M441.47,318.03c-1.76-.79-3.75-1.18-5.97-1.18-4.24,0-7.33.87-9.29,2.6-1.95,1.73-2.93,4.67-2.93,8.81v.79c0,.23,0,.42.03.57h9.66v-2.5c0-1.81.67-2.72,2-2.72,1.46,0,2.19,1.12,2.19,3.36v4.27l-6.16,2.11c-2.13.72-3.8,1.6-5.01,2.64-1.21,1.04-2.07,2.36-2.57,3.98-.5,1.62-.75,3.7-.75,6.23,0,2.37.22,4.49.67,6.36.44,1.87,1.27,3.34,2.48,4.41,1.21,1.07,2.97,1.61,5.29,1.61,1.42,0,2.69-.46,3.8-1.39s1.91-2.26,2.39-4v4.94h9.88v-31.73c0-2.26-.51-4.15-1.54-5.69-1.03-1.54-2.42-2.7-4.18-3.48ZM437.13,348.42c0,.8-.15,1.54-.44,2.22-.3.68-.85,1.03-1.67,1.03-1.48,0-2.22-1.23-2.22-3.69v-5.36c0-1.63.38-2.86,1.14-3.71.76-.84,1.82-1.54,3.19-2.1v11.6Z"/>
    <path d="M462.4,310.08h-9.66v8.83h-2.8v7.58h2.8v25.95c0,2.35.47,4.09,1.4,5.23.93,1.14,2.74,1.71,5.43,1.71,1.2,0,2.39-.11,3.55-.32,1.17-.21,1.86-.36,2.08-.43v-6.77c-.35.07-.75.11-1.19.11-.63,0-1.05-.14-1.28-.42-.22-.28-.33-.76-.33-1.44v-23.62h2.8v-7.58h-2.8v-8.83Z"/>
    <rect x="468.31" y="306.47" width="9.94" height="8.27"/>
    <rect x="468.31" y="317.3" width="9.94" height="41.64"/>
    <path d="M498.4,316.85c-1.8,0-3.2.56-4.21,1.68-1.01,1.12-1.7,2.48-2.07,4.07v-5.3h-9.94v41.64h9.94v-29.29c0-.78.05-1.56.14-2.35.09-.79.32-1.44.68-1.97.36-.53.92-.79,1.68-.79.81,0,1.39.35,1.72,1.04.33.69.5,1.45.5,2.26v31.09h9.8v-32.12c0-3.09-.65-5.52-1.96-7.3-1.3-1.78-3.4-2.66-6.29-2.66Z"/>
    <path d="M525.16,321.99c-.35-1.57-1.04-2.82-2.07-3.75-1.03-.93-2.46-1.39-4.29-1.39-2.17,0-3.85.48-5.05,1.44-1.2.96-2.04,2.3-2.53,4.01-.48,1.71-.72,3.69-.72,5.93v14.96c0,1.98.28,3.78.83,5.39.56,1.61,1.44,2.89,2.66,3.83,1.22.94,2.82,1.42,4.8,1.42,3.44,0,5.56-1.42,6.36-4.27v4.08c0,1.63-.39,2.95-1.17,3.97-.78,1.02-1.96,1.53-3.55,1.53-2.42,0-4.85-.72-7.27-2.17l-3.36,5.75c1.09.91,2.18,1.61,3.28,2.11,1.09.5,2.33.85,3.71,1.04,1.38.19,3.03.29,4.96.29,4.68,0,8.11-1.01,10.28-3.04,2.17-2.03,3.26-5.4,3.26-10.12v-35.7h-10.13v4.69ZM525.16,342.11c0,2.81-.78,4.22-2.33,4.22-1.02,0-1.65-.45-1.9-1.36s-.37-1.86-.37-2.86v-14.16c0-.93.12-1.74.36-2.46.24-.71.84-1.07,1.8-1.07.76,0,1.36.4,1.79,1.19.43.8.65,1.57.65,2.33v14.16Z"/>
    <path d="M14.14,309.58H.71v48.86h13.1c4.05,0,6.89-1.26,8.51-3.78,1.62-2.52,2.43-6.09,2.43-10.72v-22.87c0-3.76-.89-6.61-2.66-8.56-1.78-1.95-4.42-2.93-7.94-2.93ZM14.92,347.19c0,1.74-.9,2.61-2.69,2.61h-1.69v-31.67h1.08c1.33,0,2.22.24,2.65.71.43.47.65,1.52.65,3.15v25.21Z"/>
    <path d="M40.74,316.35c-3.89,0-6.94.99-9.16,2.98-2.22,1.99-3.33,4.92-3.33,8.79v16.74c0,2.94.38,5.46,1.14,7.55s2.02,3.69,3.78,4.8c1.76,1.11,4.12,1.67,7.08,1.67,3.15,0,5.63-.53,7.45-1.6,1.82-1.06,3.12-2.65,3.89-4.75.77-2.1,1.15-4.71,1.15-7.81v-2.36h-9.88v4c0,1.44-.13,2.61-.39,3.51s-.91,1.35-1.94,1.35c-.72,0-1.24-.23-1.57-.69s-.53-1.05-.62-1.76-.14-1.44-.14-2.18v-8.05h14.43c.07-1.26.11-3.72.11-7.38v-3.03c0-7.85-4-11.77-11.99-11.77ZM42.85,333.59h-4.72v-5.61c0-1.55.22-2.65.65-3.28s1.05-.94,1.85-.94c.74,0,1.3.33,1.67.99.37.66.56,1.73.56,3.23v5.61Z"/>
    <path d="M92.22,317.84c-1.25-.99-3.03-1.49-5.34-1.49-1.91,0-3.37.36-4.4,1.07-1.03.71-1.92,1.75-2.68,3.12-.48-1.26-1.31-2.27-2.48-3.04-1.18-.77-2.6-1.15-4.26-1.15-2.07,0-3.65.45-4.72,1.36s-1.83,2.21-2.28,3.91v-4.83h-9.72v41.64h9.94v-29.4c0-.76.07-1.53.22-2.32.15-.79.43-1.45.83-1.98.41-.54.98-.8,1.72-.8.87,0,1.41.43,1.62,1.3.21.87.32,1.74.32,2.61v30.59h9.91v-29.9c0-.72.07-1.44.22-2.17.15-.72.42-1.33.8-1.82s.94-.74,1.67-.74c1.37,0,2.05,1.34,2.05,4.03v30.59h9.91v-30.42c0-2.29-.25-4.32-.74-6.07-.49-1.75-1.36-3.12-2.61-4.11Z"/>
    <rect x="99.39" y="316.8" width="9.94" height="41.64"/>
    <rect x="99.39" y="305.97" width="9.94" height="8.27"/>
    <rect x="112.94" y="337.87" width="14.32" height="6.44"/>
    <rect x="146.83" y="316.8" width="9.94" height="41.64"/>
    <rect x="146.83" y="305.97" width="9.94" height="8.27"/>
    <path d="M131.87,315.8v2.83h-1.8v7.58h1.8v32.23h9.85v-32.12h1.97v-7.69h-2.17v-.53c0-.65.06-1.18.19-1.6s.48-.62,1.05-.62c.15,0,.45.05.92.14v-6.13c-1.3-.54-3-.8-5.11-.8-4.48,0-6.72,2.24-6.72,6.72Z"/>
    <path d="M176.92,316.35c-1.8,0-3.2.56-4.21,1.68-1.01,1.12-1.7,2.48-2.07,4.07v-5.3h-9.94v41.64h9.94v-29.29c0-.78.05-1.56.14-2.35s.32-1.44.68-1.97c.36-.53.92-.79,1.68-.79.81,0,1.39.35,1.72,1.04s.5,1.45.5,2.26v31.09h9.8v-32.12c0-3.09-.65-5.52-1.96-7.3-1.3-1.78-3.4-2.66-6.29-2.66Z"/>
    <path d="M206.99,317.53c-1.76-.79-3.75-1.18-5.97-1.18-4.24,0-7.33.87-9.29,2.6-1.95,1.73-2.93,4.67-2.93,8.81v.79c0,.23,0,.42.03.57h9.66v-2.5c0-1.81.67-2.72,2-2.72,1.46,0,2.19,1.12,2.19,3.36v4.27l-6.16,2.11c-2.13.72-3.8,1.6-5.01,2.64-1.21,1.04-2.07,2.36-2.57,3.98-.5,1.62-.75,3.7-.75,6.23,0,2.37.22,4.49.67,6.36.44,1.87,1.27,3.34,2.48,4.41,1.21,1.07,2.97,1.61,5.29,1.61,1.42,0,2.69-.46,3.8-1.39,1.11-.93,1.91-2.26,2.39-4v4.94h9.88v-31.73c0-2.26-.51-4.15-1.54-5.69s-2.42-2.7-4.18-3.48ZM202.66,347.92c0,.8-.15,1.54-.44,2.22-.3.68-.85,1.03-1.67,1.03-1.48,0-2.22-1.23-2.22-3.69v-5.36c0-1.63.38-2.86,1.14-3.71.76-.84,1.82-1.54,3.19-2.1v11.6Z"/>
    <rect x="216.53" y="309.58" width="10.1" height="48.86"/>
    <path d="M242.79,316.35c-3.89,0-6.94.99-9.16,2.98-2.22,1.99-3.33,4.92-3.33,8.79v16.74c0,2.94.38,5.46,1.14,7.55.76,2.09,2.02,3.69,3.78,4.8s4.12,1.67,7.08,1.67c3.15,0,5.63-.53,7.45-1.6,1.82-1.06,3.12-2.65,3.89-4.75.77-2.1,1.15-4.71,1.15-7.81v-2.36h-9.88v4c0,1.44-.13,2.61-.39,3.51s-.91,1.35-1.94,1.35c-.72,0-1.24-.23-1.57-.69-.32-.46-.53-1.05-.62-1.76s-.14-1.44-.14-2.18v-8.05h14.43c.07-1.26.11-3.72.11-7.38v-3.03c0-7.85-4-11.77-11.99-11.77ZM244.9,333.59h-4.72v-5.61c0-1.55.22-2.65.65-3.28.43-.63,1.05-.94,1.85-.94.74,0,1.3.33,1.67.99.37.66.56,1.73.56,3.23v5.61Z"/>
    <polygon points="565.98 333.05 561.35 308.98 551.01 308.98 551.01 359.24 560.84 359.24 560.84 334.11 565.86 359.24 575.69 359.24 575.69 308.98 565.98 308.98 565.98 333.05"/>
    <path d="M587.42,308.95c-.53,1.26-1.3,2.33-2.3,3.21-1,.89-2.08,1.58-3.24,2.08-1.16.5-2.25.83-3.26.99v8.02c1.07,0,2.2-.25,3.4-.76,1.2-.5,2.14-1.17,2.83-1.98v38.72h10.65v-50.29h-8.08Z"/>
    <path d="M244.8,65.81c4.23,3.67,6.1-.13,9.29-1.91,3.97-2.21,7.47-1.88,11.88-1.79l3.54.93c-.53.03-1.04.34-1.43.69-25.15,22.89-80.2,58.54-115.28,45.32-8.38-3.16-20.08-15.03-6.47-19.87,7.22-2.57,15.96-.79,22.81,2.17,2.72,1.18,12.28,7.82,13.33,7.93,2.96.3,4.51-2.43,3.05-4.97-.8-1.39-9.43-6.57-11.34-7.52-9.54-4.7-25.5-7.94-34.71-1.16-13.09,9.64-1.1,24.36,10.16,28.93,25.66,10.41,60.97-3.99,83.39-17.09,15.79-9.22,30.42-20.48,43.81-32.86l16.17,5.14c2.54,7.48,9.1,16.73,17.88,16.77,4.36.02,9.62-5.26,3.96-7.24-1.99-.7-3.65-.58-5.73-1.82-1.23-.73-5.21-4.51-5.59-5.72,2.02-.3,9.26-3.6,7.81-6.35-1.25-2.37-8.7.16-11.1-.97-1.42-7.47-2.91-15.04-2.29-22.7,6.43-8.55,22.51-26.75,15.57-37.83-1.36-2.17-2.85-2.55-4.81-3.91h-3.78c-14.54,7.82-14.92,27.5-16.15,42.02l-13.46,14.85c-9.99-2.46-21.54-3.51-30.1,3.36-2.29,1.84-2.94,3.38-.41,5.58ZM302.68,14.46c.42-1.15,2.81-7.64,4.6-6.46,1.07,2.59.17,4.62-.71,7.05l-6.83,12.24c.44-4.19,1.5-8.87,2.94-12.83ZM283.2,58.58c1.37-1.97,4.3-4.39,5.91-6.34l1.65,9.88-8.02-2.36c-.19-.71.19-.78.46-1.18Z"/>
    <path d="M32.56,60.26c1.78-.06,3.42-.23,4.73,1.17,1.9,2.03,6.86,13.89,9.19,13.89h10.15c-4.04-5.63-6.71-12.4-11.8-17.18,6.49-2.69,9.7-9.34,7.17-16.08-3.94-10.46-20.62-7.13-29.35-7.68v40.94h9.91v-15.06ZM32.56,41.43c4.49-.32,10.91,0,10.89,5.88-.01,6.33-5.93,6.78-10.89,6.35v-12.23Z"/>
    <path d="M318.48,60.14c3.58.8,4.67-2.84,5.56-5.55l3.54-.93c-4.8,4.61-9.41,13.27-2.33,18.08,3.34,2.27,7.92,2.14,11.62.82,2.7-.96,4.69-3.27,7.22-3.85,3,9.52,17.02,5.19,22.43,0,2.02,5.09,8.22,5.35,12.91,4.4,2.6-.53,4.45-2.27,6.89-3.01,9.79,7.73,25.62,1.84,23.28-11.86-.54-3.16-4.06-5.7-2.99-8.85,1.32-3.88,7.69,1.32,6.2-5.18-1.77-7.71-10.33-3.04-13.68,1.01-2.74,3.31-5.25,7.74-7.83,11.25-.89-.04-.26-1.35-.89-2.16-1.94-2.52-7.16,1.4-7.85,4.03-.48,1.83.14,3.84-.31,5.33-.62,2.07-5.88,2.59-6.45.46v-1.18s8.89-17.55,8.89-17.55c-.04-2.35-5.91-1.89-7.42-1.28-2.33.94-5.84,9.9-7.76,12.5-2.27,3.08-10.23,10.22-14.22,9.64-3.77-.55-2.39-4.68-1.51-6.96,2.3-5.96,6.46-11.85,9.18-17.67.92-.93,4.56-1.65,5.92-1.66,3.41-.04,5.86,3,8.03-1.84,3.26-7.27-3.47-7.35-8.73-6.12.24-2.42,3.51-4.7,2.76-7.19-.83-2.75-7.21-1.74-8.91.01-1.99,2.04-4.6,10.72-6.4,11.84-1.15.72-5.49,1.18-6.82.77-1.48-.45-2.62-2.83-4.45-.71-1.21,1.41-1.51,3.89-.22,5.37,1.67,1.93,4.99,1.72,7.28,2.16.47.09.99-.28.71.68-.64,2.16-5.13,10.26-6.61,12.23-2.15,2.87-9.65,10.52-13.48,7.81-3.37-2.38,1.78-8.49,3.59-10.61,1.74-2.05,7.1-6.04,7.09-8.48,0-1.04-.75-2.66-1.77-2.97-2.67-.81-9.85,4.36-13.59,4.16.3-8.64-9.89-4.94-9.19,1.59.12,1.12.98,2.14.91,3.32-.13,2.07-5.68,7.03-.59,8.17ZM398.86,55.53c5.83,4.84.25,13.72-6.13,8.71l6.13-8.71Z"/>
    <path d="M421.04,44.24c-2.35,7.26-14.35,21.69-5.9,28.23,5.81,4.49,15.47.27,20.52-3.76,3.64,8.76,17.53,4.27,22.43-1.4,3.03,6.84,8.06,7.3,14.39,4.23.51.5-5.52,10.54-5.63,12.97-.12,2.6,2.24,8.23,5.64,6.56l18.29-38.06c-6.71-9.45-9.65,3.51-13.33,7.7-5.06,5.76-14.35,7.59-9.54-2.92,3.1-6.78,11.79-11.8,19.23-9.57,2.1.63,3.75,3.6,5.92,1.22,2.5-2.74.4-5.74-2.44-7.04-7.62-3.49-17.58-.1-23.56,5.11-6.84,5.96-11.12,18.15-21.87,17.82l-.33-3.23,8.68-16.79c.11-1.95-5.27-1.77-6.67-1.45-3.08.69-6.08,9.02-7.98,11.81-2.33,3.42-10.33,11.24-14.68,10.59-4.71-.7-1.83-6.56-.74-9.02,2.39-5.37,6.05-10.8,8.55-16.18,1.82-.43,3.9-1.11,5.78-1.1,3.85.02,6.5,3.1,8.28-2.99,1.9-6.52-4.53-5.9-8.99-4.97.31-2.82,5.43-7.2.86-8.62-2.31-.72-5.57-.18-7.21,1.6-2.25,2.43-4.33,10.26-5.95,11.48-.8.6-4.75,1.28-5.86,1.22-2.7-.14-4.19-3.42-6.13-.46-3.48,5.31,4.27,7.4,8.23,7.04Z"/>
    <path d="M572.82,58.84c1.31-3,1.23-6.79-3.08-4.95-1.09.46-5.78,5.95-7.34,7.27-4.25,3.62-10.24,7.69-16.15,5.77-1.96-.64-4.27-3.05-3.9-5.28,8.24,4.06,23.31-5.18,18.19-14.61-3.74-6.9-14.93-4.56-19.86.01-3.56,3.3-3.47,6.04-5.67,9.4-1.27,1.93-8.44,8.1-10.58,8.75-1.31.4-4.22.64-4.68-1.06,1.34-6.68,6.65-12.22,8.89-18.73-.04-2.42-6.2-1.89-7.72-1.11-2.1,1.09-5.56,9.1-7.18,11.66-2.44,3.87-7.32,11.54-12.41,10.33-3.01-4.82,13.52-17.85,10.55-24.4-1.49-3.29-6.46-1.39-8.6.3-2.97,2.35-1.45,4.22-2.38,7.09-.88,2.73-4.82,6.41-6.44,9.1-2.59,4.29-5.01,10.91.22,14.29,5.14,3.32,11.67-.74,15.78-3.98,5.36,9.69,18.83,3.21,24.78-2.82,3.02,10.96,14.66,11.25,23.46,6.67,4.58-2.39,12.03-8.97,14.09-13.71ZM545.67,52.01c.83-.96,2.9-2.69,4.1-2.97,1.1-.25,3.21-.37,3.96.56,2.52,4.56-6.7,7.91-9.5,6.18-1.09-.68.88-3.12,1.44-3.77Z"/>
    <path d="M78.4,76.23c11.85,0,21.45-9.57,21.45-21.38s-9.6-21.38-21.45-21.38-21.45,9.57-21.45,21.38,9.6,21.38,21.45,21.38ZM76.35,42.03c18.46-2.62,18.21,28.79-.38,25.55-12.46-2.18-12.29-23.74.38-25.55Z"/>
    <path d="M204.85,60.26c1.78-.06,3.42-.23,4.73,1.17,1.9,2.03,6.86,13.89,9.19,13.89h10.15c-4.04-5.63-6.71-12.4-11.8-17.18,12.83-6.03,9.8-22.16-4.49-23.76-5.51-.62-12.07.46-17.7,0v40.94h9.91v-15.06ZM204.85,41.43c4.49-.32,10.91,0,10.89,5.88-.01,6.33-5.93,6.78-10.89,6.35v-12.23Z"/>
    <polygon points="189.75 67.78 172.76 67.78 172.76 58.37 185.5 58.37 185.5 51.31 172.76 51.31 172.76 41.9 189.75 41.9 189.75 34.37 162.84 34.37 162.84 75.31 189.75 75.31 189.75 67.78"/>
    <polygon points="129.33 67.78 114.22 67.78 114.22 34.37 104.31 34.37 104.31 75.31 129.33 75.31 129.33 67.78"/>
    <polygon points="158.6 67.78 143.49 67.78 143.49 34.37 133.58 34.37 133.58 75.31 158.6 75.31 158.6 67.78"/>
    <path d="M453.43,41.39c7.28.5,11.07-12.44,1.47-10.69-5.13.93-8.24,10.22-1.47,10.69Z"/>
    <path d="M384.52,41.39c7.35.69,11.02-12.65,1.46-10.69-5.1,1.05-7.86,10.09-1.46,10.69Z"/>
    <path d="M85.29,174.24c3.61-3.22,5.41-8.41,5.41-15.57v-15.41h-16.38v14.67c0,1.82-.29,3.3-.86,4.44-.57,1.14-1.55,1.71-2.94,1.71-1.23,0-2.18-.46-2.85-1.39-.66-.93-.99-2.51-.99-4.77v-40.76c0-1.82.26-3.28.79-4.37.52-1.09,1.54-1.64,3.05-1.64,1.3,0,2.25.42,2.87,1.27.62.85.93,2.49.93,4.93v12.03h16.19v-14.06c0-4.29-.86-7.84-2.59-10.66-1.73-2.82-4.09-4.94-7.1-6.36-3.01-1.42-6.44-2.13-10.29-2.13-7.06,0-12.16,2.1-15.29,6.29-3.13,4.2-4.7,10.24-4.7,18.14v37.57c0,6.6,1.8,11.74,5.39,15.41,3.59,3.67,8.33,5.51,14.23,5.51,6.48,0,11.52-1.61,15.13-4.83Z"/>
    <path d="M119.99,178.33h16.19v-70.55c-2.54-3.1-4.41-6.62-4.87-10.34-.02-.17-.02-.36-.04-.54h-11.28v29.1h-7.68v-29.1h-16.19v81.43h16.19v-36.92h7.68v36.92Z"/>
    <path d="M173.31,96.91h-24.27l-.61,6.28c1.76,1.38,3.75,2.56,5.58,3.25,4.72,1.78,10.07,2.68,15.91,2.68,2.57,0,5.2-.22,7.85-.53l-.89-9.42c-.52-.33-1.08-.69-1.72-1.09-.59-.38-1.22-.77-1.84-1.17Z"/>
    <path d="M168.98,178.33h15.41l-5.5-57.95c-3.06.35-6.13.56-9.19.56-1.99,0-3.94-.09-5.84-.26l2.71,31.52h-7.4l2.38-31.82c-4.55-.59-8.84-1.62-12.74-3.2-.55-.22-1.1-.52-1.65-.78l-5.98,61.95h15.82l1.02-13.14h9.81l1.16,13.14Z"/>
    <path d="M189.38,96.91v9.48c8.28-2.16,16.67-5.47,24.81-9.42v-.06h-24.81Z"/>
    <path d="M237.96,119.67v58.66h14.9v-81.43h-13.4c-1.6.99-3.19,2.06-4.8,3-2.26,1.32-4.91,2.8-7.83,4.33l-5.8,42.32-5.11-37.03c-7.96,3.55-17.06,6.9-26.54,9.04v59.77h14.71v-58.66l9.9,58.66h14.62l9.35-58.66Z"/>
    <path d="M276.08,146.09h6.62c4.5,0,7.98-1,10.43-3.01,2.45-2,4.16-4.83,5.11-8.49.96-3.66,1.43-7.95,1.43-12.88s-.57-9.53-1.71-13.23c-1.14-3.7-3.03-6.55-5.67-8.56-2.64-2-6.21-3.01-10.71-3.01h-21.51v81.43h16.01v-32.25ZM276.08,111.76h1.8c2.47,0,4.03.84,4.7,2.52.66,1.68.99,4.06.99,7.15,0,3.3-.34,5.8-1.02,7.49-.68,1.7-2.53,2.54-5.55,2.54h-.93v-19.71Z"/>
    <rect x="304.07" y="96.91" width="15.73" height="81.43"/>
    <path d="M360.63,173.18c3.44-3.93,5.16-9.62,5.16-17.05v-38.68c0-6.97-1.7-12.26-5.11-15.87-3.41-3.61-8.4-5.41-14.97-5.41s-11.56,1.8-14.97,5.41c-3.41,3.61-5.11,8.9-5.11,15.87v38.68c0,7.43,1.72,13.12,5.16,17.05,3.44,3.93,8.41,5.9,14.92,5.9s11.48-1.97,14.92-5.9ZM349.55,156.91c0,4.78-1.23,7.17-3.7,7.17-1.42,0-2.44-.55-3.05-1.64-.62-1.09-.93-2.91-.93-5.44v-39.7c0-4.1,1.36-6.15,4.07-6.15,2.41,0,3.61,2.01,3.61,6.01v39.74Z"/>
    <polygon points="412.33 96.91 396.6 96.91 396.6 135.91 389.11 96.91 372.36 96.91 372.36 178.33 388.28 178.33 388.28 137.62 396.42 178.33 412.33 178.33 412.33 96.91"/>
    <polygon points="459.53 178.33 459.53 96.91 443.8 96.91 443.8 135.91 436.3 96.91 419.55 96.91 419.55 178.33 435.47 178.33 435.47 137.62 443.61 178.33 459.53 178.33"/>
    <path d="M472.39,96.91l-7.86,81.43h15.82l1.02-13.14h9.81l1.16,13.14h15.41l-7.73-81.43h-27.62ZM482.52,152.19l3.1-41.41h.74l3.56,41.41h-7.4Z"/>
    <polygon points="510.05 112.54 519.72 112.54 519.72 178.33 536 178.33 536 112.54 545.67 112.54 545.67 96.91 510.05 96.91 510.05 112.54"/>
  </g>
  <g>
    <path class="st0" d="M139.19,207.37h-22.39v81.43h21.84c6.75,0,11.48-2.1,14.18-6.29,2.7-4.19,4.05-10.15,4.05-17.86v-38.12c0-6.26-1.48-11.02-4.44-14.27-2.96-3.25-7.37-4.88-13.23-4.88ZM140.48,270.06c0,2.9-1.5,4.35-4.49,4.35h-2.82v-52.79h1.8c2.22,0,3.69.39,4.42,1.18.72.79,1.09,2.54,1.09,5.25v42.01Z"/>
    <polygon class="st0" points="196.09 223.1 196.09 207.37 163.52 207.37 163.52 288.79 197.16 288.79 197.16 272.93 180.08 272.93 180.08 254.28 195.44 254.28 195.44 238.97 180.08 238.97 180.08 223.1 196.09 223.1"/>
    <polygon class="st0" points="224.73 288.79 241.11 288.79 241.11 251.88 256.47 251.88 256.47 236.19 241.11 236.19 241.11 223.24 257.3 223.24 257.3 207.37 224.73 207.37 224.73 288.79"/>
    <path class="st0" d="M279,251.64c2.16,0,3.72.29,4.7.86.97.57,1.46,2.04,1.46,4.42v31.88h16.05v-30.81c0-3.21-.52-5.82-1.55-7.84-1.03-2.02-2.83-3.29-5.39-3.82,3.11-1.02,5.23-2.85,6.36-5.51,1.13-2.65,1.69-6.2,1.69-10.64s-.36-8.6-1.09-12.01c-.73-3.41-2.15-6.06-4.28-7.96s-5.27-2.85-9.44-2.85h-24.98v81.43h16.47v-37.15ZM279.09,222.45h3.79c1.36,0,2.28.49,2.78,1.48.49.99.74,3.07.74,6.25,0,4.9-1.13,7.36-3.38,7.36h-3.93v-15.08Z"/>
    <path class="st0" d="M322.3,275.66h9.81l1.16,13.14h15.41l-7.73-81.43h-27.62l-7.87,81.43h15.82l1.02-13.14ZM326.56,221.25h.74l3.56,41.41h-7.4l3.1-41.41Z"/>
    <polygon class="st0" points="377.91 246.37 370.42 207.37 353.67 207.37 353.67 288.79 369.59 288.79 369.59 248.08 377.73 288.79 393.64 288.79 393.64 207.37 377.91 207.37 377.91 246.37"/>
    <path class="st0" d="M419.83,289.54c6.48,0,11.52-1.61,15.13-4.83,3.61-3.22,5.41-8.41,5.41-15.57v-15.41h-16.38v14.67c0,1.82-.29,3.3-.86,4.44-.57,1.14-1.55,1.71-2.94,1.71-1.23,0-2.18-.46-2.85-1.39-.66-.93-.99-2.51-.99-4.77v-40.76c0-1.82.26-3.28.79-4.37.52-1.09,1.54-1.64,3.05-1.64,1.3,0,2.25.42,2.87,1.27.62.85.93,2.49.93,4.93v12.03h16.19v-14.06c0-4.29-.86-7.84-2.59-10.66-1.73-2.82-4.09-4.94-7.1-6.36-3.01-1.42-6.44-2.13-10.29-2.13-7.06,0-12.16,2.1-15.29,6.29-3.13,4.2-4.7,10.24-4.7,18.14v37.57c0,6.6,1.8,11.74,5.39,15.41,3.59,3.67,8.33,5.51,14.23,5.51Z"/>
    <polygon class="st0" points="462.35 254.28 477.71 254.28 477.71 238.97 462.35 238.97 462.35 223.1 478.36 223.1 478.36 207.37 445.78 207.37 445.78 288.79 479.42 288.79 479.42 272.93 462.35 272.93 462.35 254.28"/>
    <polygon class="st0" points="270.91 358.94 280.74 358.94 280.74 336.78 289.96 336.78 289.96 327.37 280.74 327.37 280.74 319.6 290.46 319.6 290.46 310.08 270.91 310.08 270.91 358.94"/>
    <path class="st0" d="M303.53,321.93v-4.64h-10.1v41.64h10.1v-31.84c0-.37.43-.71,1.28-1.01.85-.31,1.84-.55,2.97-.72,1.13-.18,2.1-.26,2.91-.26v-8.3c-1.85,0-3.39.45-4.61,1.36-1.22.91-2.07,2.17-2.55,3.78Z"/>
    <path class="st0" d="M325.29,316.85c-3.89,0-6.94.99-9.16,2.98-2.22,1.99-3.33,4.92-3.33,8.79v16.74c0,2.94.38,5.46,1.14,7.55s2.02,3.69,3.78,4.8,4.12,1.67,7.08,1.67c3.15,0,5.63-.53,7.45-1.6,1.82-1.06,3.12-2.65,3.89-4.75.77-2.1,1.15-4.71,1.15-7.81v-2.36h-9.88v4c0,1.44-.13,2.61-.39,3.51-.26.9-.91,1.35-1.94,1.35-.72,0-1.24-.23-1.57-.69-.32-.46-.53-1.05-.62-1.76-.09-.71-.14-1.44-.14-2.18v-8.05h14.43c.07-1.26.11-3.72.11-7.38v-3.03c0-7.85-4-11.77-11.99-11.77ZM327.4,334.09h-4.72v-5.61c0-1.55.22-2.65.65-3.28s1.05-.94,1.85-.94c.74,0,1.3.33,1.67.99s.56,1.73.56,3.23v5.61Z"/>
    <path class="st0" d="M353.05,316.85c-3.89,0-6.94.99-9.16,2.98-2.22,1.99-3.33,4.92-3.33,8.79v16.74c0,2.94.38,5.46,1.14,7.55s2.02,3.69,3.78,4.8,4.12,1.67,7.08,1.67c3.15,0,5.63-.53,7.45-1.6,1.82-1.06,3.12-2.65,3.89-4.75.77-2.1,1.15-4.71,1.15-7.81v-2.36h-9.88v4c0,1.44-.13,2.61-.39,3.51-.26.9-.91,1.35-1.94,1.35-.72,0-1.24-.23-1.57-.69-.32-.46-.53-1.05-.62-1.76-.09-.71-.14-1.44-.14-2.18v-8.05h14.43c.07-1.26.11-3.72.11-7.38v-3.03c0-7.85-4-11.77-11.99-11.77ZM355.16,334.09h-4.72v-5.61c0-1.55.22-2.65.65-3.28s1.05-.94,1.85-.94c.74,0,1.3.33,1.67.99s.56,1.73.56,3.23v5.61Z"/>
    <path class="st0" d="M385.78,334.79l-6.16-4.5c-1.18-.85-1.78-2.03-1.78-3.53s.7-2.22,2.11-2.22c.83,0,1.39.39,1.68,1.17.29.78.43,1.58.43,2.42v1.58h10.27v-.78c0-8.05-4.03-12.08-12.1-12.08-2.18,0-4.21.38-6.09,1.14-1.88.76-3.39,1.92-4.52,3.47s-1.71,3.53-1.71,5.91c0,2.57.43,4.58,1.3,6.02.87,1.44,2.14,2.81,3.8,4.11l5.3,4.08c1.09.83,2.02,1.7,2.78,2.6.76.9,1.14,2.25,1.14,4.07,0,2.17-.72,3.25-2.17,3.25-.81,0-1.41-.27-1.78-.8s-.56-1.28-.56-2.22v-4.89h-9.99v3.3c0,8.33,4.11,12.49,12.33,12.49,3.89,0,6.94-1.03,9.17-3.08,2.23-2.05,3.34-5.04,3.34-8.97,0-3.16-.65-5.7-1.96-7.61s-2.92-3.55-4.84-4.94Z"/>
    <polygon class="st0" points="420.53 317.3 410.24 317.3 405.46 331.65 405.46 310.08 395.64 310.08 395.64 358.94 405.46 358.94 405.46 339.31 411.65 358.94 422.23 358.94 414.29 335.4 420.53 317.3"/>
    <path class="st0" d="M441.47,318.03c-1.76-.79-3.75-1.18-5.97-1.18-4.24,0-7.33.87-9.29,2.6-1.95,1.73-2.93,4.67-2.93,8.81v.79c0,.23,0,.42.03.57h9.66v-2.5c0-1.81.67-2.72,2-2.72,1.46,0,2.19,1.12,2.19,3.36v4.27l-6.16,2.11c-2.13.72-3.8,1.6-5.01,2.64-1.21,1.04-2.07,2.36-2.57,3.98-.5,1.62-.75,3.7-.75,6.23,0,2.37.22,4.49.67,6.36.44,1.87,1.27,3.34,2.48,4.41,1.21,1.07,2.97,1.61,5.29,1.61,1.42,0,2.69-.46,3.8-1.39s1.91-2.26,2.39-4v4.94h9.88v-31.73c0-2.26-.51-4.15-1.54-5.69-1.03-1.54-2.42-2.7-4.18-3.48ZM437.13,348.42c0,.8-.15,1.54-.44,2.22-.3.68-.85,1.03-1.67,1.03-1.48,0-2.22-1.23-2.22-3.69v-5.36c0-1.63.38-2.86,1.14-3.71.76-.84,1.82-1.54,3.19-2.1v11.6Z"/>
    <path class="st0" d="M462.4,310.08h-9.66v8.83h-2.8v7.58h2.8v25.95c0,2.35.47,4.09,1.4,5.23.93,1.14,2.74,1.71,5.43,1.71,1.2,0,2.39-.11,3.55-.32,1.17-.21,1.86-.36,2.08-.43v-6.77c-.35.07-.75.11-1.19.11-.63,0-1.05-.14-1.28-.42-.22-.28-.33-.76-.33-1.44v-23.62h2.8v-7.58h-2.8v-8.83Z"/>
    <rect class="st0" x="468.31" y="306.47" width="9.94" height="8.27"/>
    <rect class="st0" x="468.31" y="317.3" width="9.94" height="41.64"/>
    <path class="st0" d="M498.4,316.85c-1.8,0-3.2.56-4.21,1.68-1.01,1.12-1.7,2.48-2.07,4.07v-5.3h-9.94v41.64h9.94v-29.29c0-.78.05-1.56.14-2.35.09-.79.32-1.44.68-1.97.36-.53.92-.79,1.68-.79.81,0,1.39.35,1.72,1.04.33.69.5,1.45.5,2.26v31.09h9.8v-32.12c0-3.09-.65-5.52-1.96-7.3-1.3-1.78-3.4-2.66-6.29-2.66Z"/>
    <path class="st0" d="M525.16,321.99c-.35-1.57-1.04-2.82-2.07-3.75-1.03-.93-2.46-1.39-4.29-1.39-2.17,0-3.85.48-5.05,1.44-1.2.96-2.04,2.3-2.53,4.01-.48,1.71-.72,3.69-.72,5.93v14.96c0,1.98.28,3.78.83,5.39.56,1.61,1.44,2.89,2.66,3.83,1.22.94,2.82,1.42,4.8,1.42,3.44,0,5.56-1.42,6.36-4.27v4.08c0,1.63-.39,2.95-1.17,3.97-.78,1.02-1.96,1.53-3.55,1.53-2.42,0-4.85-.72-7.27-2.17l-3.36,5.75c1.09.91,2.18,1.61,3.28,2.11,1.09.5,2.33.85,3.71,1.04,1.38.19,3.03.29,4.96.29,4.68,0,8.11-1.01,10.28-3.04,2.17-2.03,3.26-5.4,3.26-10.12v-35.7h-10.13v4.69ZM525.16,342.11c0,2.81-.78,4.22-2.33,4.22-1.02,0-1.65-.45-1.9-1.36s-.37-1.86-.37-2.86v-14.16c0-.93.12-1.74.36-2.46.24-.71.84-1.07,1.8-1.07.76,0,1.36.4,1.79,1.19.43.8.65,1.57.65,2.33v14.16Z"/>
    <path class="st0" d="M14.14,309.58H.71v48.86h13.1c4.05,0,6.89-1.26,8.51-3.78,1.62-2.52,2.43-6.09,2.43-10.72v-22.87c0-3.76-.89-6.61-2.66-8.56-1.78-1.95-4.42-2.93-7.94-2.93ZM14.92,347.19c0,1.74-.9,2.61-2.69,2.61h-1.69v-31.67h1.08c1.33,0,2.22.24,2.65.71.43.47.65,1.52.65,3.15v25.21Z"/>
    <path class="st0" d="M40.74,316.35c-3.89,0-6.94.99-9.16,2.98-2.22,1.99-3.33,4.92-3.33,8.79v16.74c0,2.94.38,5.46,1.14,7.55s2.02,3.69,3.78,4.8c1.76,1.11,4.12,1.67,7.08,1.67,3.15,0,5.63-.53,7.45-1.6,1.82-1.06,3.12-2.65,3.89-4.75.77-2.1,1.15-4.71,1.15-7.81v-2.36h-9.88v4c0,1.44-.13,2.61-.39,3.51s-.91,1.35-1.94,1.35c-.72,0-1.24-.23-1.57-.69s-.53-1.05-.62-1.76-.14-1.44-.14-2.18v-8.05h14.43c.07-1.26.11-3.72.11-7.38v-3.03c0-7.85-4-11.77-11.99-11.77ZM42.85,333.59h-4.72v-5.61c0-1.55.22-2.65.65-3.28s1.05-.94,1.85-.94c.74,0,1.3.33,1.67.99.37.66.56,1.73.56,3.23v5.61Z"/>
    <path class="st0" d="M92.22,317.84c-1.25-.99-3.03-1.49-5.34-1.49-1.91,0-3.37.36-4.4,1.07-1.03.71-1.92,1.75-2.68,3.12-.48-1.26-1.31-2.27-2.48-3.04-1.18-.77-2.6-1.15-4.26-1.15-2.07,0-3.65.45-4.72,1.36s-1.83,2.21-2.28,3.91v-4.83h-9.72v41.64h9.94v-29.4c0-.76.07-1.53.22-2.32.15-.79.43-1.45.83-1.98.41-.54.98-.8,1.72-.8.87,0,1.41.43,1.62,1.3.21.87.32,1.74.32,2.61v30.59h9.91v-29.9c0-.72.07-1.44.22-2.17.15-.72.42-1.33.8-1.82s.94-.74,1.67-.74c1.37,0,2.05,1.34,2.05,4.03v30.59h9.91v-30.42c0-2.29-.25-4.32-.74-6.07-.49-1.75-1.36-3.12-2.61-4.11Z"/>
    <rect class="st0" x="99.39" y="316.8" width="9.94" height="41.64"/>
    <rect class="st0" x="99.39" y="305.97" width="9.94" height="8.27"/>
    <rect class="st0" x="112.94" y="337.87" width="14.32" height="6.44"/>
    <rect class="st0" x="146.83" y="316.8" width="9.94" height="41.64"/>
    <rect class="st0" x="146.83" y="305.97" width="9.94" height="8.27"/>
    <path class="st0" d="M131.87,315.8v2.83h-1.8v7.58h1.8v32.23h9.85v-32.12h1.97v-7.69h-2.17v-.53c0-.65.06-1.18.19-1.6s.48-.62,1.05-.62c.15,0,.45.05.92.14v-6.13c-1.3-.54-3-.8-5.11-.8-4.48,0-6.72,2.24-6.72,6.72Z"/>
    <path class="st0" d="M176.92,316.35c-1.8,0-3.2.56-4.21,1.68-1.01,1.12-1.7,2.48-2.07,4.07v-5.3h-9.94v41.64h9.94v-29.29c0-.78.05-1.56.14-2.35s.32-1.44.68-1.97c.36-.53.92-.79,1.68-.79.81,0,1.39.35,1.72,1.04s.5,1.45.5,2.26v31.09h9.8v-32.12c0-3.09-.65-5.52-1.96-7.3-1.3-1.78-3.4-2.66-6.29-2.66Z"/>
    <path class="st0" d="M206.99,317.53c-1.76-.79-3.75-1.18-5.97-1.18-4.24,0-7.33.87-9.29,2.6-1.95,1.73-2.93,4.67-2.93,8.81v.79c0,.23,0,.42.03.57h9.66v-2.5c0-1.81.67-2.72,2-2.72,1.46,0,2.19,1.12,2.19,3.36v4.27l-6.16,2.11c-2.13.72-3.8,1.6-5.01,2.64-1.21,1.04-2.07,2.36-2.57,3.98-.5,1.62-.75,3.7-.75,6.23,0,2.37.22,4.49.67,6.36.44,1.87,1.27,3.34,2.48,4.41,1.21,1.07,2.97,1.61,5.29,1.61,1.42,0,2.69-.46,3.8-1.39,1.11-.93,1.91-2.26,2.39-4v4.94h9.88v-31.73c0-2.26-.51-4.15-1.54-5.69s-2.42-2.7-4.18-3.48ZM202.66,347.92c0,.8-.15,1.54-.44,2.22-.3.68-.85,1.03-1.67,1.03-1.48,0-2.22-1.23-2.22-3.69v-5.36c0-1.63.38-2.86,1.14-3.71.76-.84,1.82-1.54,3.19-2.1v11.6Z"/>
    <rect class="st0" x="216.53" y="309.58" width="10.1" height="48.86"/>
    <path class="st0" d="M242.79,316.35c-3.89,0-6.94.99-9.16,2.98-2.22,1.99-3.33,4.92-3.33,8.79v16.74c0,2.94.38,5.46,1.14,7.55.76,2.09,2.02,3.69,3.78,4.8s4.12,1.67,7.08,1.67c3.15,0,5.63-.53,7.45-1.6,1.82-1.06,3.12-2.65,3.89-4.75.77-2.1,1.15-4.71,1.15-7.81v-2.36h-9.88v4c0,1.44-.13,2.61-.39,3.51s-.91,1.35-1.94,1.35c-.72,0-1.24-.23-1.57-.69-.32-.46-.53-1.05-.62-1.76s-.14-1.44-.14-2.18v-8.05h14.43c.07-1.26.11-3.72.11-7.38v-3.03c0-7.85-4-11.77-11.99-11.77ZM244.9,333.59h-4.72v-5.61c0-1.55.22-2.65.65-3.28.43-.63,1.05-.94,1.85-.94.74,0,1.3.33,1.67.99.37.66.56,1.73.56,3.23v5.61Z"/>
    <polygon class="st0" points="565.98 333.05 561.35 308.98 551.01 308.98 551.01 359.24 560.84 359.24 560.84 334.11 565.86 359.24 575.69 359.24 575.69 308.98 565.98 308.98 565.98 333.05"/>
    <path class="st0" d="M587.42,308.95c-.53,1.26-1.3,2.33-2.3,3.21-1,.89-2.08,1.58-3.24,2.08-1.16.5-2.25.83-3.26.99v8.02c1.07,0,2.2-.25,3.4-.76,1.2-.5,2.14-1.17,2.83-1.98v38.72h10.65v-50.29h-8.08Z"/>
    <path class="st0" d="M244.8,65.81c4.23,3.67,6.1-.13,9.29-1.91,3.97-2.21,7.47-1.88,11.88-1.79l3.54.93c-.53.03-1.04.34-1.43.69-25.15,22.89-80.2,58.54-115.28,45.32-8.38-3.16-20.08-15.03-6.47-19.87,7.22-2.57,15.96-.79,22.81,2.17,2.72,1.18,12.28,7.82,13.33,7.93,2.96.3,4.51-2.43,3.05-4.97-.8-1.39-9.43-6.57-11.34-7.52-9.54-4.7-25.5-7.94-34.71-1.16-13.09,9.64-1.1,24.36,10.16,28.93,25.66,10.41,60.97-3.99,83.39-17.09,15.79-9.22,30.42-20.48,43.81-32.86l16.17,5.14c2.54,7.48,9.1,16.73,17.88,16.77,4.36.02,9.62-5.26,3.96-7.24-1.99-.7-3.65-.58-5.73-1.82-1.23-.73-5.21-4.51-5.59-5.72,2.02-.3,9.26-3.6,7.81-6.35-1.25-2.37-8.7.16-11.1-.97-1.42-7.47-2.91-15.04-2.29-22.7,6.43-8.55,22.51-26.75,15.57-37.83-1.36-2.17-2.85-2.55-4.81-3.91h-3.78c-14.54,7.82-14.92,27.5-16.15,42.02l-13.46,14.85c-9.99-2.46-21.54-3.51-30.1,3.36-2.29,1.84-2.94,3.38-.41,5.58ZM302.68,14.46c.42-1.15,2.81-7.64,4.6-6.46,1.07,2.59.17,4.62-.71,7.05l-6.83,12.24c.44-4.19,1.5-8.87,2.94-12.83ZM283.2,58.58c1.37-1.97,4.3-4.39,5.91-6.34l1.65,9.88-8.02-2.36c-.19-.71.19-.78.46-1.18Z"/>
    <path class="st0" d="M32.56,60.26c1.78-.06,3.42-.23,4.73,1.17,1.9,2.03,6.86,13.89,9.19,13.89h10.15c-4.04-5.63-6.71-12.4-11.8-17.18,6.49-2.69,9.7-9.34,7.17-16.08-3.94-10.46-20.62-7.13-29.35-7.68v40.94h9.91v-15.06ZM32.56,41.43c4.49-.32,10.91,0,10.89,5.88-.01,6.33-5.93,6.78-10.89,6.35v-12.23Z"/>
    <path class="st0" d="M318.48,60.14c3.58.8,4.67-2.84,5.56-5.55l3.54-.93c-4.8,4.61-9.41,13.27-2.33,18.08,3.34,2.27,7.92,2.14,11.62.82,2.7-.96,4.69-3.27,7.22-3.85,3,9.52,17.02,5.19,22.43,0,2.02,5.09,8.22,5.35,12.91,4.4,2.6-.53,4.45-2.27,6.89-3.01,9.79,7.73,25.62,1.84,23.28-11.86-.54-3.16-4.06-5.7-2.99-8.85,1.32-3.88,7.69,1.32,6.2-5.18-1.77-7.71-10.33-3.04-13.68,1.01-2.74,3.31-5.25,7.74-7.83,11.25-.89-.04-.26-1.35-.89-2.16-1.94-2.52-7.16,1.4-7.85,4.03-.48,1.83.14,3.84-.31,5.33-.62,2.07-5.88,2.59-6.45.46v-1.18s8.89-17.55,8.89-17.55c-.04-2.35-5.91-1.89-7.42-1.28-2.33.94-5.84,9.9-7.76,12.5-2.27,3.08-10.23,10.22-14.22,9.64-3.77-.55-2.39-4.68-1.51-6.96,2.3-5.96,6.46-11.85,9.18-17.67.92-.93,4.56-1.65,5.92-1.66,3.41-.04,5.86,3,8.03-1.84,3.26-7.27-3.47-7.35-8.73-6.12.24-2.42,3.51-4.7,2.76-7.19-.83-2.75-7.21-1.74-8.91.01-1.99,2.04-4.6,10.72-6.4,11.84-1.15.72-5.49,1.18-6.82.77-1.48-.45-2.62-2.83-4.45-.71-1.21,1.41-1.51,3.89-.22,5.37,1.67,1.93,4.99,1.72,7.28,2.16.47.09.99-.28.71.68-.64,2.16-5.13,10.26-6.61,12.23-2.15,2.87-9.65,10.52-13.48,7.81-3.37-2.38,1.78-8.49,3.59-10.61,1.74-2.05,7.1-6.04,7.09-8.48,0-1.04-.75-2.66-1.77-2.97-2.67-.81-9.85,4.36-13.59,4.16.3-8.64-9.89-4.94-9.19,1.59.12,1.12.98,2.14.91,3.32-.13,2.07-5.68,7.03-.59,8.17ZM398.86,55.53c5.83,4.84.25,13.72-6.13,8.71l6.13-8.71Z"/>
    <path class="st0" d="M421.04,44.24c-2.35,7.26-14.35,21.69-5.9,28.23,5.81,4.49,15.47.27,20.52-3.76,3.64,8.76,17.53,4.27,22.43-1.4,3.03,6.84,8.06,7.3,14.39,4.23.51.5-5.52,10.54-5.63,12.97-.12,2.6,2.24,8.23,5.64,6.56l18.29-38.06c-6.71-9.45-9.65,3.51-13.33,7.7-5.06,5.76-14.35,7.59-9.54-2.92,3.1-6.78,11.79-11.8,19.23-9.57,2.1.63,3.75,3.6,5.92,1.22,2.5-2.74.4-5.74-2.44-7.04-7.62-3.49-17.58-.1-23.56,5.11-6.84,5.96-11.12,18.15-21.87,17.82l-.33-3.23,8.68-16.79c.11-1.95-5.27-1.77-6.67-1.45-3.08.69-6.08,9.02-7.98,11.81-2.33,3.42-10.33,11.24-14.68,10.59-4.71-.7-1.83-6.56-.74-9.02,2.39-5.37,6.05-10.8,8.55-16.18,1.82-.43,3.9-1.11,5.78-1.1,3.85.02,6.5,3.1,8.28-2.99,1.9-6.52-4.53-5.9-8.99-4.97.31-2.82,5.43-7.2.86-8.62-2.31-.72-5.57-.18-7.21,1.6-2.25,2.43-4.33,10.26-5.95,11.48-.8.6-4.75,1.28-5.86,1.22-2.7-.14-4.19-3.42-6.13-.46-3.48,5.31,4.27,7.4,8.23,7.04Z"/>
    <path class="st0" d="M572.82,58.84c1.31-3,1.23-6.79-3.08-4.95-1.09.46-5.78,5.95-7.34,7.27-4.25,3.62-10.24,7.69-16.15,5.77-1.96-.64-4.27-3.05-3.9-5.28,8.24,4.06,23.31-5.18,18.19-14.61-3.74-6.9-14.93-4.56-19.86.01-3.56,3.3-3.47,6.04-5.67,9.4-1.27,1.93-8.44,8.1-10.58,8.75-1.31.4-4.22.64-4.68-1.06,1.34-6.68,6.65-12.22,8.89-18.73-.04-2.42-6.2-1.89-7.72-1.11-2.1,1.09-5.56,9.1-7.18,11.66-2.44,3.87-7.32,11.54-12.41,10.33-3.01-4.82,13.52-17.85,10.55-24.4-1.49-3.29-6.46-1.39-8.6.3-2.97,2.35-1.45,4.22-2.38,7.09-.88,2.73-4.82,6.41-6.44,9.1-2.59,4.29-5.01,10.91.22,14.29,5.14,3.32,11.67-.74,15.78-3.98,5.36,9.69,18.83,3.21,24.78-2.82,3.02,10.96,14.66,11.25,23.46,6.67,4.58-2.39,12.03-8.97,14.09-13.71ZM545.67,52.01c.83-.96,2.9-2.69,4.1-2.97,1.1-.25,3.21-.37,3.96.56,2.52,4.56-6.7,7.91-9.5,6.18-1.09-.68.88-3.12,1.44-3.77Z"/>
    <path class="st0" d="M78.4,76.23c11.85,0,21.45-9.57,21.45-21.38s-9.6-21.38-21.45-21.38-21.45,9.57-21.45,21.38,9.6,21.38,21.45,21.38ZM76.35,42.03c18.46-2.62,18.21,28.79-.38,25.55-12.46-2.18-12.29-23.74.38-25.55Z"/>
    <path class="st0" d="M204.85,60.26c1.78-.06,3.42-.23,4.73,1.17,1.9,2.03,6.86,13.89,9.19,13.89h10.15c-4.04-5.63-6.71-12.4-11.8-17.18,12.83-6.03,9.8-22.16-4.49-23.76-5.51-.62-12.07.46-17.7,0v40.94h9.91v-15.06ZM204.85,41.43c4.49-.32,10.91,0,10.89,5.88-.01,6.33-5.93,6.78-10.89,6.35v-12.23Z"/>
    <polygon class="st0" points="189.75 67.78 172.76 67.78 172.76 58.37 185.5 58.37 185.5 51.31 172.76 51.31 172.76 41.9 189.75 41.9 189.75 34.37 162.84 34.37 162.84 75.31 189.75 75.31 189.75 67.78"/>
    <polygon class="st0" points="129.33 67.78 114.22 67.78 114.22 34.37 104.31 34.37 104.31 75.31 129.33 75.31 129.33 67.78"/>
    <polygon class="st0" points="158.6 67.78 143.49 67.78 143.49 34.37 133.58 34.37 133.58 75.31 158.6 75.31 158.6 67.78"/>
    <path class="st0" d="M453.43,41.39c7.28.5,11.07-12.44,1.47-10.69-5.13.93-8.24,10.22-1.47,10.69Z"/>
    <path class="st0" d="M384.52,41.39c7.35.69,11.02-12.65,1.46-10.69-5.1,1.05-7.86,10.09-1.46,10.69Z"/>
    <path class="st0" d="M85.29,174.24c3.61-3.22,5.41-8.41,5.41-15.57v-15.41h-16.38v14.67c0,1.82-.29,3.3-.86,4.44-.57,1.14-1.55,1.71-2.94,1.71-1.23,0-2.18-.46-2.85-1.39-.66-.93-.99-2.51-.99-4.77v-40.76c0-1.82.26-3.28.79-4.37.52-1.09,1.54-1.64,3.05-1.64,1.3,0,2.25.42,2.87,1.27.62.85.93,2.49.93,4.93v12.03h16.19v-14.06c0-4.29-.86-7.84-2.59-10.66-1.73-2.82-4.09-4.94-7.1-6.36-3.01-1.42-6.44-2.13-10.29-2.13-7.06,0-12.16,2.1-15.29,6.29-3.13,4.2-4.7,10.24-4.7,18.14v37.57c0,6.6,1.8,11.74,5.39,15.41,3.59,3.67,8.33,5.51,14.23,5.51,6.48,0,11.52-1.61,15.13-4.83Z"/>
    <path class="st0" d="M119.99,178.33h16.19v-70.55c-2.54-3.1-4.41-6.62-4.87-10.34-.02-.17-.02-.36-.04-.54h-11.28v29.1h-7.68v-29.1h-16.19v81.43h16.19v-36.92h7.68v36.92Z"/>
    <path class="st0" d="M173.31,96.91h-24.27l-.61,6.28c1.76,1.38,3.75,2.56,5.58,3.25,4.72,1.78,10.07,2.68,15.91,2.68,2.57,0,5.2-.22,7.85-.53l-.89-9.42c-.52-.33-1.08-.69-1.72-1.09-.59-.38-1.22-.77-1.84-1.17Z"/>
    <path class="st0" d="M168.98,178.33h15.41l-5.5-57.95c-3.06.35-6.13.56-9.19.56-1.99,0-3.94-.09-5.84-.26l2.71,31.52h-7.4l2.38-31.82c-4.55-.59-8.84-1.62-12.74-3.2-.55-.22-1.1-.52-1.65-.78l-5.98,61.95h15.82l1.02-13.14h9.81l1.16,13.14Z"/>
    <path class="st0" d="M189.38,96.91v9.48c8.28-2.16,16.67-5.47,24.81-9.42v-.06h-24.81Z"/>
    <path class="st0" d="M237.96,119.67v58.66h14.9v-81.43h-13.4c-1.6.99-3.19,2.06-4.8,3-2.26,1.32-4.91,2.8-7.83,4.33l-5.8,42.32-5.11-37.03c-7.96,3.55-17.06,6.9-26.54,9.04v59.77h14.71v-58.66l9.9,58.66h14.62l9.35-58.66Z"/>
    <path class="st0" d="M276.08,146.09h6.62c4.5,0,7.98-1,10.43-3.01,2.45-2,4.16-4.83,5.11-8.49.96-3.66,1.43-7.95,1.43-12.88s-.57-9.53-1.71-13.23c-1.14-3.7-3.03-6.55-5.67-8.56-2.64-2-6.21-3.01-10.71-3.01h-21.51v81.43h16.01v-32.25ZM276.08,111.76h1.8c2.47,0,4.03.84,4.7,2.52.66,1.68.99,4.06.99,7.15,0,3.3-.34,5.8-1.02,7.49-.68,1.7-2.53,2.54-5.55,2.54h-.93v-19.71Z"/>
    <rect class="st0" x="304.07" y="96.91" width="15.73" height="81.43"/>
    <path class="st0" d="M360.63,173.18c3.44-3.93,5.16-9.62,5.16-17.05v-38.68c0-6.97-1.7-12.26-5.11-15.87-3.41-3.61-8.4-5.41-14.97-5.41s-11.56,1.8-14.97,5.41c-3.41,3.61-5.11,8.9-5.11,15.87v38.68c0,7.43,1.72,13.12,5.16,17.05,3.44,3.93,8.41,5.9,14.92,5.9s11.48-1.97,14.92-5.9ZM349.55,156.91c0,4.78-1.23,7.17-3.7,7.17-1.42,0-2.44-.55-3.05-1.64-.62-1.09-.93-2.91-.93-5.44v-39.7c0-4.1,1.36-6.15,4.07-6.15,2.41,0,3.61,2.01,3.61,6.01v39.74Z"/>
    <polygon class="st0" points="412.33 96.91 396.6 96.91 396.6 135.91 389.11 96.91 372.36 96.91 372.36 178.33 388.28 178.33 388.28 137.62 396.42 178.33 412.33 178.33 412.33 96.91"/>
    <polygon class="st0" points="459.53 178.33 459.53 96.91 443.8 96.91 443.8 135.91 436.3 96.91 419.55 96.91 419.55 178.33 435.47 178.33 435.47 137.62 443.61 178.33 459.53 178.33"/>
    <path class="st0" d="M472.39,96.91l-7.86,81.43h15.82l1.02-13.14h9.81l1.16,13.14h15.41l-7.73-81.43h-27.62ZM482.52,152.19l3.1-41.41h.74l3.56,41.41h-7.4Z"/>
    <polygon class="st0" points="510.05 112.54 519.72 112.54 519.72 178.33 536 178.33 536 112.54 545.67 112.54 545.67 96.91 510.05 96.91 510.05 112.54"/>
  </g>
</svg>