<?xml version="1.0" encoding="UTF-8"?>
<svg id="Calque_2" xmlns="http://www.w3.org/2000/svg" version="1.1" viewBox="0 0 595.28 366.45">
  <!-- Generator: Adobe Illustrator 29.3.1, SVG Export Plug-In . SVG Version: 2.1.0 Build 151)  -->
  <defs>
    <style>
      .st0 {
        fill: #fff;
      }
    </style>
  </defs>
  <g>
    <path class="st0" d="M116.18,289.03v-81.49h22.41c5.86,0,10.28,1.63,13.24,4.88,2.96,3.26,4.45,8.02,4.45,14.28v38.15c0,7.72-1.35,13.68-4.05,17.87-2.7,4.2-7.43,6.3-14.19,6.3h-21.85ZM132.57,274.63h2.82c2.99,0,4.49-1.45,4.49-4.35v-42.04c0-2.72-.36-4.47-1.09-5.26-.73-.79-2.2-1.18-4.42-1.18h-1.81v52.83Z"/>
    <path class="st0" d="M162.94,289.03v-81.49h32.6v15.74h-16.02v15.88h15.37v15.33h-15.37v18.66h17.09v15.88h-33.66Z"/>
    <path class="st0" d="M224.2,289.03v-81.49h32.6v15.88h-16.21v12.96h15.37v15.7h-15.37v36.95h-16.39Z"/>
    <path class="st0" d="M262.03,289.03v-81.49h25c4.17,0,7.32.95,9.45,2.85s3.56,4.55,4.28,7.96c.72,3.41,1.09,7.42,1.09,12.02s-.56,8-1.69,10.65c-1.13,2.66-3.25,4.49-6.37,5.51,2.56.53,4.36,1.8,5.39,3.82,1.03,2.02,1.55,4.64,1.55,7.85v30.84h-16.07v-31.9c0-2.38-.49-3.85-1.46-4.42-.97-.57-2.54-.86-4.7-.86v37.18h-16.48ZM278.61,237.72h3.94c2.25,0,3.38-2.45,3.38-7.36,0-3.18-.25-5.26-.74-6.25-.49-.99-1.42-1.48-2.78-1.48h-3.8v15.09Z"/>
    <path class="st0" d="M305,289.03l7.87-81.49h27.64l7.73,81.49h-15.42l-1.16-13.15h-9.82l-1.02,13.15h-15.84ZM323.01,262.87h7.41l-3.57-41.44h-.74l-3.1,41.44Z"/>
    <path class="st0" d="M353.25,289.03v-81.49h16.76l7.5,39.03v-39.03h15.74v81.49h-15.93l-8.15-40.75v40.75h-15.93Z"/>
    <path class="st0" d="M419.46,289.77c-5.9,0-10.64-1.84-14.24-5.51-3.6-3.67-5.39-8.81-5.39-15.42v-37.6c0-7.9,1.57-13.95,4.7-18.15,3.13-4.2,8.23-6.3,15.3-6.3,3.86,0,7.29.71,10.3,2.13,3.01,1.42,5.38,3.54,7.11,6.37,1.73,2.82,2.59,6.38,2.59,10.67v14.08h-16.21v-12.04c0-2.44-.31-4.08-.93-4.93-.62-.85-1.57-1.27-2.87-1.27-1.51,0-2.53.55-3.06,1.64-.53,1.1-.79,2.55-.79,4.38v40.79c0,2.25.33,3.84,1,4.77.66.93,1.61,1.39,2.85,1.39,1.39,0,2.37-.57,2.94-1.71.57-1.14.86-2.62.86-4.45v-14.68h16.39v15.42c0,7.16-1.81,12.36-5.42,15.58-3.61,3.23-8.66,4.84-15.14,4.84Z"/>
    <path class="st0" d="M445.43,289.03v-81.49h32.6v15.74h-16.02v15.88h15.37v15.33h-15.37v18.66h17.09v15.88h-33.66Z"/>
  </g>
  <g>
    <g>
      <g>
        <path class="st0" d="M270.42,359.23v-48.9h19.56v9.53h-9.72v7.78h9.22v9.42h-9.22v22.17h-9.83Z"/>
        <path class="st0" d="M292.95,359.23v-41.67h10.11v4.64c.48-1.61,1.33-2.87,2.56-3.78s2.76-1.36,4.61-1.36v8.31c-.81,0-1.79.09-2.92.26s-2.12.42-2.97.72c-.85.31-1.28.64-1.28,1.01v31.87h-10.11Z"/>
        <path class="st0" d="M324.35,359.67c-2.96,0-5.32-.56-7.08-1.67-1.76-1.11-3.02-2.71-3.78-4.81-.76-2.09-1.14-4.61-1.14-7.56v-16.75c0-3.87,1.11-6.8,3.33-8.79,2.22-1.99,5.28-2.99,9.17-2.99,8,0,12,3.93,12,11.78v3.03c0,3.67-.04,6.13-.11,7.39h-14.45v8.06c0,.74.05,1.47.14,2.18s.3,1.3.63,1.76.85.69,1.57.69c1.04,0,1.69-.45,1.94-1.35s.39-2.07.39-3.51v-4h9.89v2.36c0,3.11-.38,5.72-1.15,7.82-.77,2.1-2.07,3.69-3.89,4.75-1.82,1.06-4.31,1.6-7.46,1.6ZM322.24,334.36h4.72v-5.61c0-1.5-.19-2.58-.56-3.24-.37-.66-.93-.99-1.67-.99-.8,0-1.41.31-1.85.94s-.65,1.72-.65,3.28v5.61Z"/>
        <path class="st0" d="M352.13,359.67c-2.96,0-5.32-.56-7.08-1.67-1.76-1.11-3.02-2.71-3.78-4.81s-1.14-4.61-1.14-7.56v-16.75c0-3.87,1.11-6.8,3.33-8.79,2.22-1.99,5.28-2.99,9.17-2.99,8,0,12,3.93,12,11.78v3.03c0,3.67-.04,6.13-.11,7.39h-14.45v8.06c0,.74.05,1.47.14,2.18s.3,1.3.63,1.76.85.69,1.57.69c1.04,0,1.69-.45,1.94-1.35.26-.9.39-2.07.39-3.51v-4h9.89v2.36c0,3.11-.38,5.72-1.15,7.82-.77,2.1-2.07,3.69-3.89,4.75-1.82,1.06-4.31,1.6-7.46,1.6ZM350.02,334.36h4.72v-5.61c0-1.5-.19-2.58-.56-3.24s-.93-.99-1.67-.99c-.8,0-1.41.31-1.85.94s-.65,1.72-.65,3.28v5.61Z"/>
        <path class="st0" d="M379.66,359.67c-8.22,0-12.33-4.17-12.33-12.5v-3.31h10v4.89c0,.94.19,1.69.56,2.22s.96.81,1.78.81c1.44,0,2.17-1.08,2.17-3.25,0-1.82-.38-3.17-1.14-4.07s-1.69-1.76-2.78-2.6l-5.31-4.08c-1.67-1.3-2.94-2.67-3.81-4.11s-1.31-3.45-1.31-6.03c0-2.39.57-4.36,1.71-5.92,1.14-1.56,2.65-2.71,4.53-3.47s3.91-1.14,6.1-1.14c8.08,0,12.11,4.03,12.11,12.08v.78h-10.28v-1.58c0-.83-.14-1.64-.43-2.42-.29-.78-.85-1.17-1.68-1.17-1.41,0-2.11.74-2.11,2.22s.59,2.68,1.78,3.53l6.17,4.5c1.93,1.39,3.54,3.04,4.85,4.95,1.31,1.91,1.96,4.45,1.96,7.61,0,3.93-1.12,6.92-3.35,8.97s-5.29,3.08-9.18,3.08Z"/>
        <path class="st0" d="M395.25,359.23v-48.9h9.83v21.59l4.78-14.36h10.31l-6.25,18.11,7.95,23.56h-10.58l-6.2-19.64v19.64h-9.83Z"/>
        <path class="st0" d="M430.75,359.67c-2.32,0-4.08-.54-5.29-1.61-1.21-1.07-2.04-2.55-2.49-4.42-.44-1.87-.67-3.99-.67-6.36,0-2.54.25-4.62.75-6.24s1.36-2.95,2.57-3.99c1.21-1.04,2.88-1.92,5.01-2.64l6.17-2.11v-4.28c0-2.24-.73-3.36-2.19-3.36-1.33,0-2,.91-2,2.72v2.5h-9.67c-.02-.15-.03-.34-.03-.57v-.79c0-4.15.98-7.09,2.93-8.82s5.05-2.6,9.29-2.6c2.22,0,4.21.39,5.97,1.18s3.15,1.95,4.18,3.49c1.03,1.54,1.54,3.44,1.54,5.7v31.75h-9.89v-4.95c-.48,1.74-1.28,3.07-2.39,4s-2.38,1.39-3.81,1.39ZM434.67,351.95c.81,0,1.37-.34,1.67-1.03s.44-1.43.44-2.22v-11.61c-1.37.56-2.44,1.25-3.19,2.1-.76.84-1.14,2.08-1.14,3.71v5.36c0,2.46.74,3.69,2.22,3.69Z"/>
        <path class="st0" d="M459.23,359.67c-2.69,0-4.5-.57-5.43-1.71-.94-1.14-1.4-2.88-1.4-5.24v-25.98h-2.81v-7.58h2.81v-8.83h9.67v8.83h2.81v7.58h-2.81v23.64c0,.69.11,1.17.33,1.44s.65.42,1.28.42c.44,0,.84-.04,1.19-.11v6.78c-.22.07-.92.22-2.08.43-1.17.21-2.35.32-3.56.32Z"/>
        <path class="st0" d="M467.98,315v-8.28h9.95v8.28h-9.95ZM467.98,359.23v-41.67h9.95v41.67h-9.95Z"/>
        <path class="st0" d="M481.87,359.23v-41.67h9.95v5.31c.37-1.59,1.06-2.95,2.07-4.07s2.41-1.68,4.21-1.68c2.89,0,4.99.89,6.29,2.67s1.96,4.21,1.96,7.31v32.14h-9.81v-31.12c0-.81-.17-1.57-.5-2.26s-.91-1.04-1.72-1.04c-.76,0-1.32.26-1.68.79s-.59,1.19-.68,1.97-.14,1.57-.14,2.35v29.31h-9.95Z"/>
        <path class="st0" d="M521.46,366.45c-1.93,0-3.58-.1-4.96-.29-1.38-.19-2.62-.54-3.71-1.04-1.09-.5-2.19-1.2-3.28-2.11l3.36-5.75c2.43,1.44,4.85,2.17,7.28,2.17,1.59,0,2.78-.51,3.56-1.53.78-1.02,1.17-2.34,1.17-3.97v-4.08c-.8,2.85-2.92,4.28-6.36,4.28-1.98,0-3.58-.47-4.81-1.42-1.22-.94-2.11-2.22-2.67-3.83s-.83-3.41-.83-5.39v-14.97c0-2.24.24-4.22.72-5.93s1.32-3.05,2.53-4.01,2.89-1.44,5.06-1.44c1.83,0,3.26.46,4.29,1.39s1.72,2.18,2.07,3.75v-4.7h10.14v35.73c0,4.72-1.09,8.1-3.26,10.13-2.18,2.03-5.61,3.04-10.29,3.04ZM522.54,346.61c1.56,0,2.33-1.41,2.33-4.22v-14.17c0-.76-.22-1.54-.65-2.33-.44-.8-1.03-1.19-1.79-1.19-.96,0-1.57.36-1.81,1.07s-.36,1.53-.36,2.46v14.17c0,1,.13,1.95.38,2.86.25.91.88,1.36,1.9,1.36Z"/>
      </g>
      <g>
        <path class="st0" d="M0,358.73v-48.9h13.45c3.52,0,6.17.98,7.95,2.93,1.78,1.95,2.67,4.81,2.67,8.57v22.89c0,4.63-.81,8.2-2.43,10.72s-4.46,3.78-8.51,3.78H0ZM9.83,350.09h1.69c1.8,0,2.69-.87,2.69-2.61v-25.23c0-1.63-.22-2.68-.65-3.15s-1.32-.71-2.65-.71h-1.08v31.7Z"/>
        <path class="st0" d="M39.56,359.17c-2.96,0-5.32-.56-7.08-1.67-1.76-1.11-3.02-2.71-3.78-4.81-.76-2.09-1.14-4.61-1.14-7.56v-16.75c0-3.87,1.11-6.8,3.33-8.79s5.28-2.99,9.17-2.99c8,0,12,3.93,12,11.78v3.03c0,3.67-.04,6.13-.11,7.39h-14.45v8.06c0,.74.05,1.47.14,2.18s.3,1.3.63,1.76.85.69,1.57.69c1.04,0,1.69-.45,1.94-1.35s.39-2.07.39-3.51v-4h9.89v2.36c0,3.11-.38,5.72-1.15,7.82s-2.07,3.69-3.89,4.75-4.31,1.6-7.46,1.6ZM37.45,333.86h4.72v-5.61c0-1.5-.19-2.58-.56-3.24s-.93-.99-1.67-.99c-.8,0-1.41.31-1.85.94s-.65,1.72-.65,3.28v5.61Z"/>
        <path class="st0" d="M55.67,358.73v-41.67h9.72v4.83c.44-1.7,1.2-3.01,2.28-3.92,1.07-.91,2.65-1.36,4.72-1.36,1.67,0,3.09.38,4.26,1.15,1.18.77,2,1.78,2.49,3.04.76-1.37,1.65-2.41,2.68-3.13s2.5-1.07,4.4-1.07c2.32,0,4.1.5,5.35,1.49s2.12,2.36,2.61,4.11.74,3.77.74,6.07v30.45h-9.92v-30.62c0-2.69-.69-4.03-2.06-4.03-.72,0-1.28.25-1.67.74s-.66,1.1-.81,1.82-.22,1.44-.22,2.17v29.92h-9.92v-30.62c0-.87-.11-1.74-.32-2.61-.21-.87-.75-1.31-1.63-1.31-.74,0-1.31.27-1.72.81-.41.54-.69,1.2-.83,1.99s-.22,1.56-.22,2.32v29.42h-9.95Z"/>
        <path class="st0" d="M98.76,314.5v-8.28h9.95v8.28h-9.95ZM98.76,358.73v-41.67h9.95v41.67h-9.95Z"/>
        <path class="st0" d="M112.32,344.58v-6.45h14.34v6.45h-14.34Z"/>
        <path class="st0" d="M131.27,358.73v-32.25h-1.81v-7.58h1.81v-2.83c0-4.48,2.24-6.72,6.72-6.72,2.11,0,3.82.27,5.11.81v6.14c-.46-.09-.77-.14-.92-.14-.57,0-.93.21-1.06.63-.13.42-.19.95-.19,1.6v.53h2.17v7.7h-1.97v32.14h-9.86ZM146.24,314.5v-8.28h9.95v8.28h-9.95ZM146.24,358.73v-41.67h9.95v41.67h-9.95Z"/>
        <path class="st0" d="M160.13,358.73v-41.67h9.95v5.31c.37-1.59,1.06-2.95,2.07-4.07s2.41-1.68,4.21-1.68c2.89,0,4.99.89,6.29,2.67s1.96,4.21,1.96,7.31v32.14h-9.81v-31.12c0-.81-.17-1.57-.5-2.26s-.91-1.04-1.72-1.04c-.76,0-1.32.26-1.68.79-.36.53-.59,1.19-.68,1.97-.09.79-.14,1.57-.14,2.35v29.31h-9.95Z"/>
        <path class="st0" d="M196.08,359.17c-2.32,0-4.08-.54-5.29-1.61-1.21-1.07-2.04-2.55-2.49-4.42s-.67-3.99-.67-6.36c0-2.54.25-4.62.75-6.24.5-1.62,1.36-2.95,2.57-3.99s2.88-1.92,5.01-2.64l6.17-2.11v-4.28c0-2.24-.73-3.36-2.19-3.36-1.33,0-2,.91-2,2.72v2.5h-9.67c-.02-.15-.03-.34-.03-.57v-.79c0-4.15.98-7.09,2.93-8.82,1.95-1.73,5.05-2.6,9.29-2.6,2.22,0,4.21.39,5.97,1.18s3.15,1.95,4.18,3.49c1.03,1.54,1.54,3.44,1.54,5.7v31.75h-9.89v-4.95c-.48,1.74-1.28,3.07-2.39,4-1.11.93-2.38,1.39-3.81,1.39ZM200,351.45c.81,0,1.37-.34,1.67-1.03s.44-1.43.44-2.22v-11.61c-1.37.56-2.44,1.25-3.19,2.1s-1.14,2.08-1.14,3.71v5.36c0,2.46.74,3.69,2.22,3.69Z"/>
        <path class="st0" d="M216,358.73v-48.9h10.11v48.9h-10.11Z"/>
        <path class="st0" d="M241.78,359.17c-2.96,0-5.32-.56-7.08-1.67-1.76-1.11-3.02-2.71-3.78-4.81-.76-2.09-1.14-4.61-1.14-7.56v-16.75c0-3.87,1.11-6.8,3.33-8.79,2.22-1.99,5.28-2.99,9.17-2.99,8,0,12,3.93,12,11.78v3.03c0,3.67-.04,6.13-.11,7.39h-14.45v8.06c0,.74.05,1.47.14,2.18.09.71.3,1.3.63,1.76s.85.69,1.57.69c1.04,0,1.69-.45,1.94-1.35s.39-2.07.39-3.51v-4h9.89v2.36c0,3.11-.38,5.72-1.15,7.82-.77,2.1-2.07,3.69-3.89,4.75-1.82,1.06-4.31,1.6-7.46,1.6ZM239.67,333.86h4.72v-5.61c0-1.5-.19-2.58-.56-3.24-.37-.66-.93-.99-1.67-.99-.8,0-1.41.31-1.85.94s-.65,1.72-.65,3.28v5.61Z"/>
      </g>
    </g>
    <path class="st0" d="M550.75,359.52v-50.3h10.35l4.63,24.09v-24.09h9.72v50.3h-9.83l-5.03-25.15v25.15h-9.83Z"/>
    <path class="st0" d="M584.62,359.52v-38.75c-.69.82-1.63,1.48-2.83,1.99s-2.33.76-3.4.76v-8.03c1.01-.15,2.1-.48,3.26-.99s2.24-1.2,3.24-2.09c1-.89,1.77-1.96,2.3-3.22h8.09v50.33h-10.66Z"/>
  </g>
  <g>
    <g>
      <path class="st0" d="M308.24,0c1.97,1.36,3.46,1.75,4.81,3.91,6.95,11.09-9.15,29.31-15.58,37.86-.62,7.67.87,15.24,2.29,22.72,2.4,1.13,9.86-1.41,11.11.97,1.45,2.75-5.8,6.06-7.82,6.35.39,1.21,4.36,4.99,5.6,5.72,2.08,1.24,3.74,1.12,5.73,1.82,5.67,1.98.41,7.26-3.96,7.24-8.78-.04-15.35-9.3-17.89-16.78l-16.19-5.14c-13.4,12.39-28.04,23.66-43.84,32.89-22.43,13.11-57.78,27.52-83.45,17.1-11.26-4.57-23.27-19.31-10.16-28.95,9.21-6.78,25.18-3.54,34.73,1.16,1.91.94,10.55,6.13,11.35,7.52,1.46,2.54-.09,5.28-3.05,4.97-1.04-.11-10.62-6.76-13.34-7.94-6.86-2.97-15.61-4.75-22.83-2.17-13.62,4.85-1.91,16.73,6.48,19.89,35.11,13.23,90.21-22.44,115.37-45.35.39-.35.9-.66,1.43-.69l-3.54-.93c-4.41-.09-7.92-.42-11.89,1.79-3.19,1.77-5.07,5.58-9.29,1.91-2.54-2.2-1.88-3.75.41-5.59,8.57-6.88,20.13-5.83,30.13-3.37l13.47-14.86c1.23-14.53,1.61-34.23,16.16-42.05h3.78ZM306.82,8.01c-1.79-1.18-4.19,5.32-4.6,6.47-1.44,3.96-2.5,8.65-2.94,12.84l6.84-12.25c.88-2.43,1.79-4.46.71-7.05ZM290.29,62.16l-1.65-9.88c-1.61,1.95-4.54,4.37-5.91,6.35-.28.4-.66.47-.46,1.18l8.03,2.36Z"/>
      <path class="st0" d="M21.96,34.4c8.74.54,25.43-2.79,29.38,7.68,2.54,6.75-.67,13.41-7.17,16.1,5.09,4.78,7.77,11.56,11.81,17.19h-10.16c-2.33,0-7.3-11.87-9.2-13.9-1.31-1.4-2.96-1.22-4.73-1.17v15.07h-9.92v-40.97ZM31.88,53.71c4.96.43,10.89-.02,10.9-6.36.01-5.89-6.41-6.21-10.9-5.89v12.24Z"/>
      <path class="st0" d="M367.77,32.02c5.27-1.22,12-1.15,8.74,6.13-2.17,4.84-4.62,1.8-8.03,1.84-1.37.02-5,.73-5.93,1.66-2.72,5.83-6.88,11.73-9.18,17.69-.88,2.28-2.27,6.42,1.51,6.97,3.99.58,11.95-6.56,14.23-9.65,1.92-2.6,5.43-11.57,7.76-12.51,1.51-.61,7.39-1.07,7.42,1.28l-8.88,17.56v1.18c.56,2.13,5.82,1.61,6.44-.46.45-1.49-.16-3.5.31-5.34.69-2.64,5.92-6.55,7.86-4.04.63.81,0,2.12.89,2.16,2.59-3.51,5.1-7.95,7.84-11.26,3.36-4.06,11.92-8.73,13.69-1.01,1.49,6.51-4.88,1.31-6.2,5.19-1.07,3.15,2.45,5.69,2.99,8.85,2.35,13.71-13.5,19.61-23.3,11.87-2.45.75-4.29,2.49-6.9,3.02-4.69.95-10.9.69-12.92-4.4-5.41,5.19-19.44,9.53-22.45,0-2.54.58-4.52,2.9-7.23,3.86-3.71,1.32-8.29,1.44-11.63-.82-7.09-4.81-2.47-13.48,2.33-18.1l-3.55.93c-.89,2.72-1.98,6.36-5.56,5.56-5.1-1.14.46-6.11.59-8.18.07-1.17-.79-2.2-.91-3.32-.7-6.53,9.5-10.23,9.2-1.59,3.74.21,10.93-4.97,13.6-4.16,1.03.31,1.77,1.94,1.77,2.98,0,2.44-5.35,6.44-7.1,8.49-1.8,2.12-6.97,8.23-3.59,10.62,3.83,2.71,11.33-4.95,13.49-7.82,1.48-1.97,5.97-10.08,6.62-12.24.29-.96-.24-.59-.71-.68-2.29-.44-5.61-.23-7.28-2.16-1.28-1.48-.99-3.96.22-5.37,1.82-2.12,2.97.26,4.45.71,1.33.41,5.67-.05,6.83-.77,1.79-1.12,4.41-9.81,6.4-11.85,1.71-1.75,8.09-2.77,8.92-.01.75,2.5-2.52,4.78-2.76,7.2ZM398.47,55.57l-6.13,8.72c6.38,5.01,11.97-3.87,6.13-8.72Z"/>
      <path class="st0" d="M436.74,32.02c4.46-.93,10.9-1.55,8.99,4.97-1.78,6.1-4.44,3.02-8.29,3-1.88,0-3.96.67-5.78,1.1-2.51,5.39-6.16,10.82-8.56,16.2-1.1,2.46-3.98,8.33.74,9.03,4.36.65,12.37-7.17,14.69-10.6,1.9-2.79,4.9-11.13,7.98-11.82,1.4-.31,6.78-.49,6.67,1.45l-8.69,16.8.33,3.24c10.75.32,15.04-11.87,21.88-17.84,5.98-5.22,15.95-8.61,23.58-5.12,2.85,1.3,4.95,4.3,2.45,7.04-2.17,2.38-3.82-.59-5.92-1.22-7.45-2.24-16.14,2.79-19.25,9.57-4.82,10.52,4.49,8.69,9.55,2.93,3.69-4.2,6.63-17.17,13.34-7.71l-18.31,38.09c-3.4,1.67-5.76-3.96-5.64-6.57.11-2.44,6.14-12.49,5.64-12.98-6.34,3.07-11.37,2.62-14.41-4.23-4.9,5.68-18.8,10.17-22.45,1.4-5.06,4.04-14.73,8.26-20.54,3.76-8.46-6.55,3.55-20.99,5.9-28.25-3.96.37-11.72-1.73-8.24-7.04,1.94-2.96,3.43.33,6.13.46,1.11.06,5.06-.62,5.86-1.22,1.62-1.21,3.71-9.05,5.96-11.49,1.64-1.78,4.9-2.32,7.22-1.6,4.57,1.42-.55,5.81-.87,8.63Z"/>
      <path class="st0" d="M501.04,66.34c5.09,1.21,9.97-6.46,12.42-10.33,1.62-2.57,5.08-10.58,7.19-11.67,1.52-.79,7.68-1.32,7.72,1.11-2.24,6.51-7.56,12.06-8.9,18.75.46,1.71,3.37,1.47,4.68,1.07,2.14-.65,9.31-6.82,10.58-8.75,2.21-3.37,2.12-6.1,5.68-9.41,4.93-4.58,16.13-6.91,19.88-.01,5.12,9.44-9.96,18.69-18.21,14.62-.37,2.23,1.94,4.65,3.9,5.29,5.91,1.92,11.91-2.15,16.16-5.77,1.56-1.32,6.26-6.81,7.34-7.28,4.32-1.84,4.39,1.95,3.08,4.95-2.07,4.75-9.52,11.34-14.11,13.72-8.8,4.58-20.45,4.29-23.48-6.68-5.96,6.03-19.44,12.52-24.8,2.82-4.12,3.25-10.66,7.31-15.8,3.99-5.24-3.39-2.82-10.01-.22-14.3,1.63-2.7,5.57-6.38,6.45-9.11.93-2.88-.6-4.74,2.38-7.1,2.14-1.69,7.11-3.6,8.6-.3,2.98,6.55-13.57,19.59-10.56,24.42ZM549.5,49.08c-1.2.28-3.27,2-4.1,2.97-.56.65-2.54,3.09-1.44,3.77,2.8,1.74,12.03-1.61,9.51-6.18-.75-.93-2.86-.81-3.96-.56Z"/>
      <path class="st0" d="M99.22,54.89c0,11.82-9.61,21.4-21.47,21.4s-21.47-9.58-21.47-21.4,9.61-21.4,21.47-21.4,21.47,9.58,21.47,21.4ZM75.7,42.06c-12.69,1.8-12.86,23.39-.38,25.57,18.61,3.25,18.86-28.19.38-25.57Z"/>
      <path class="st0" d="M212.1,34.4c14.29,1.6,17.33,17.75,4.49,23.78,5.09,4.78,7.77,11.56,11.81,17.19h-10.16c-2.33,0-7.3-11.87-9.2-13.9-1.31-1.4-2.96-1.23-4.73-1.17v15.07h-9.92v-40.97c5.63.46,12.2-.62,17.72,0ZM204.31,53.71c4.96.43,10.89-.02,10.9-6.36.01-5.89-6.41-6.21-10.9-5.89v12.24Z"/>
      <polygon class="st0" points="189.19 34.4 189.19 41.94 172.19 41.94 172.19 51.36 184.94 51.36 184.94 58.42 172.19 58.42 172.19 67.84 189.19 67.84 189.19 75.37 162.27 75.37 162.27 34.4 189.19 34.4"/>
      <polygon class="st0" points="113.61 34.4 113.61 67.84 128.73 67.84 128.73 75.37 103.69 75.37 103.69 34.4 113.61 34.4"/>
      <polygon class="st0" points="142.9 34.4 142.9 67.84 158.01 67.84 158.01 75.37 132.98 75.37 132.98 34.4 142.9 34.4"/>
      <path class="st0" d="M454.56,30.72c9.6-1.75,5.81,11.2-1.47,10.7-6.78-.47-3.66-9.76,1.47-10.7Z"/>
      <path class="st0" d="M385.58,30.72c9.56-1.96,5.89,11.39-1.47,10.7-6.4-.6-3.64-9.65,1.47-10.7Z"/>
    </g>
    <path class="st0" d="M73.67,158.06c0,1.82-.29,3.3-.86,4.44-.57,1.14-1.55,1.71-2.94,1.71-1.24,0-2.18-.46-2.85-1.39-.66-.93-1-2.52-1-4.77v-40.79c0-1.82.26-3.28.79-4.38.52-1.09,1.54-1.64,3.06-1.64,1.3,0,2.25.42,2.87,1.27.62.85.93,2.49.93,4.93v12.04h16.21v-14.08c0-4.29-.86-7.85-2.59-10.67-1.73-2.82-4.1-4.95-7.11-6.37-3.01-1.42-6.44-2.13-10.3-2.13-7.07,0-12.17,2.1-15.3,6.3-3.13,4.2-4.7,10.25-4.7,18.15v37.6c0,6.61,1.8,11.75,5.39,15.42,3.6,3.67,8.34,5.51,14.24,5.51,6.48,0,11.53-1.61,15.14-4.84,3.61-3.22,5.42-8.42,5.42-15.58v-15.42h-16.39v14.68Z"/>
    <path class="st0" d="M130.66,96.99h-11.29v29.12h-7.69v-29.12h-16.21v81.49h16.21v-36.95h7.69v36.95h16.21v-70.6c-2.55-3.1-4.41-6.63-4.88-10.35-.02-.17-.02-.36-.04-.54Z"/>
    <path class="st0" d="M172.74,96.99h-24.29l-.61,6.29c1.77,1.38,3.75,2.56,5.59,3.25,4.72,1.78,10.08,2.68,15.92,2.68,2.57,0,5.2-.22,7.85-.53l-.89-9.42c-.52-.33-1.08-.69-1.72-1.09-.59-.38-1.22-.77-1.84-1.17Z"/>
    <path class="st0" d="M163.29,120.77l2.71,31.54h-7.41l2.38-31.85c-4.55-.59-8.84-1.62-12.76-3.21-.55-.22-1.1-.52-1.65-.78l-5.99,62h15.84l1.02-13.15h9.82l1.16,13.15h15.42l-5.5-58c-3.06.36-6.14.56-9.19.56-1.99,0-3.94-.09-5.84-.26Z"/>
    <path class="st0" d="M213.65,96.99h-24.82v9.49c8.29-2.16,16.69-5.48,24.83-9.42v-.06Z"/>
    <path class="st0" d="M226.3,104.32l-5.8,42.35-5.11-37.06c-7.97,3.55-17.07,6.9-26.56,9.05v59.82h14.72v-58.71l9.91,58.71h14.63l9.35-58.71v58.71h14.91v-81.49h-13.41c-1.6.99-3.2,2.06-4.8,3-2.26,1.32-4.92,2.8-7.84,4.33Z"/>
    <path class="st0" d="M291.83,99.99c-2.64-2.01-6.21-3.01-10.72-3.01h-21.53v81.49h16.02v-32.27h6.62c4.51,0,7.99-1,10.44-3.01,2.45-2.01,4.16-4.84,5.12-8.5.96-3.66,1.44-7.96,1.44-12.9s-.57-9.54-1.71-13.24c-1.14-3.7-3.03-6.56-5.67-8.57ZM282.08,129.03c-.68,1.7-2.53,2.55-5.56,2.55h-.93v-19.72h1.81c2.47,0,4.04.84,4.7,2.52.66,1.68,1,4.07,1,7.15,0,3.3-.34,5.8-1.02,7.5Z"/>
    <rect class="st0" x="303.61" y="96.99" width="15.74" height="81.49"/>
    <path class="st0" d="M345.28,96.24c-6.57,0-11.57,1.81-14.98,5.42-3.41,3.61-5.12,8.91-5.12,15.88v38.71c0,7.44,1.72,13.13,5.16,17.06,3.44,3.94,8.42,5.9,14.93,5.9s11.49-1.97,14.93-5.9c3.44-3.94,5.16-9.62,5.16-17.06v-38.71c0-6.98-1.71-12.27-5.12-15.88-3.41-3.61-8.4-5.42-14.98-5.42ZM349.13,157.04c0,4.79-1.24,7.18-3.7,7.18-1.42,0-2.44-.55-3.06-1.64-.62-1.09-.93-2.91-.93-5.44v-39.73c0-4.1,1.36-6.16,4.07-6.16,2.41,0,3.61,2.01,3.61,6.02v39.77Z"/>
    <polygon class="st0" points="396.22 136.02 388.71 96.99 371.95 96.99 371.95 178.48 387.88 178.48 387.88 137.73 396.03 178.48 411.96 178.48 411.96 96.99 396.22 96.99 396.22 136.02"/>
    <polygon class="st0" points="443.44 136.02 435.94 96.99 419.18 96.99 419.18 178.48 435.11 178.48 435.11 137.73 443.26 178.48 459.19 178.48 459.19 96.99 443.44 96.99 443.44 136.02"/>
    <path class="st0" d="M472.06,96.99l-7.87,81.49h15.84l1.02-13.15h9.82l1.16,13.15h15.42l-7.73-81.49h-27.64ZM482.2,152.32l3.1-41.44h.74l3.57,41.44h-7.41Z"/>
    <polygon class="st0" points="509.75 96.99 509.75 112.64 519.43 112.64 519.43 178.48 535.72 178.48 535.72 112.64 545.4 112.64 545.4 96.99 509.75 96.99"/>
  </g>
</svg>