<?xml version="1.0" encoding="UTF-8" standalone="no"?>
<!-- Created with Inkscape (http://www.inkscape.org/) -->

<svg
   version="1.1"
   id="svg1"
   width="1289.7474"
   height="486.10526"
   viewBox="0 0 1289.7474 486.10526"
   xmlns="http://www.w3.org/2000/svg"
   xmlns:svg="http://www.w3.org/2000/svg">
  <defs
     id="defs1" />
  <g
     id="g1"
     transform="translate(2.4274545,0.05575109)">
    <path
       style="fill:#000000"
       d="M 0.65939059,478.75 C 2.3571556,474.7625 15.433813,444.05 29.718628,410.5 c 14.284816,-33.55 26.20333,-61.57422 26.485588,-62.27606 0.390375,-0.97067 3.977744,-1.20999 14.989526,-1 L 85.670076,347.5 113.15741,412 c 15.11804,35.475 28.34886,66.64864 29.40184,69.27475 l 1.91451,4.77475 -16.08451,-0.27475 -16.08451,-0.27475 -7.33984,-18 -7.339854,-18 H 80.80424 c -16.483978,0 -16.937614,0.0573 -22.653851,2.86191 -3.208172,1.57405 -8.721128,5.56357 -12.251012,8.8656 C 39.877679,466.86052 31.529586,478.70178 30.021024,483.75 29.360397,485.96071 29.071215,486 13.460601,486 H -2.4274544 Z M 88.056866,426.25 c -4.10664,-11.21969 -17.215885,-41.95975 -17.670889,-41.43674 -0.3286,0.37771 -3.892558,8.78674 -7.919906,18.68674 -4.027349,9.9 -7.927034,19.4625 -8.665966,21.25 L 52.456591,428 H 70.577 c 16.834876,0 18.074966,-0.12415 17.479866,-1.75 z M 156.48343,416.5 V 347 h 34.28991 c 27.41847,0 35.48425,0.30492 40.25,1.52162 18.38902,4.69474 30.96252,16.78076 34.91881,33.56502 5.15361,21.86378 -2.89405,43.46567 -19.9073,53.4361 -11.49949,6.73915 -16.29401,7.7992 -38.05142,8.41302 l -20,0.56424 -0.5,16 c -0.55249,17.6797 -1.15707,19.57986 -7.4715,23.48239 C 177.30023,485.65832 175.03149,486 166.6154,486 h -10.13197 z m 65.46445,-1.14258 c 11.05243,-3.76594 17.05451,-15.63241 13.3826,-26.45819 -1.96686,-5.79885 -4.94998,-9.05588 -10.75652,-11.7442 -5.24088,-2.42642 -6.55992,-2.59038 -21.09053,-2.62166 l -15.5,-0.0334 -0.26988,21.25 -0.26989,21.25 h 14.84175 c 11.14204,0 16.04344,-0.40946 19.66247,-1.64258 z M 281.48343,416.5 V 347 l 33.75,0.0148 c 36.62253,0.016 41.44431,0.53981 51.51916,5.59623 16.59799,8.3303 24.84168,22.39706 24.84168,42.38899 0,20.32205 -8.70649,34.93231 -25.6298,43.00906 -10.07107,4.80647 -17.04245,5.95971 -36.12626,5.97616 l -17.14522,0.0148 -0.35478,15.92713 c -0.39271,17.63 -0.86853,19.075 -7.84461,23.82287 -2.87598,1.95738 -4.58724,2.25 -13.15805,2.25 h -9.85212 z m 67,-1.8751 c 8.14057,-4.32343 12,-10.4719 12,-19.11718 0,-6.59277 -1.69,-11.00928 -5.62683,-14.70467 -5.42502,-5.09231 -9.53157,-6.10954 -26.62317,-6.59481 l -15.75,-0.44719 v 21.70552 21.70551 l 16.25,-0.34417 c 13.46627,-0.28521 16.84958,-0.6626 19.75,-2.20301 z m 35.33186,66.1251 c 1.26866,-2.8875 14.61116,-34.17411 29.65002,-69.5258 l 27.34337,-64.2758 14.46884,0.2758 14.46884,0.2758 29.3636,69 c 16.14998,37.95 29.36583,69.12365 29.36854,69.27477 0.003,0.15113 -7.23191,0.15113 -16.07695,0 L 496.31966,485.5 l -7.2735,-18 -7.27349,-18 -16.89462,0.0197 c -16.55536,0.0193 -17.0151,0.0777 -22.89462,2.90768 -8.56661,4.12332 -19.89554,15.81002 -25.0279,25.8183 l -3.9721,7.74572 -15.73739,0.004 -15.73739,0.004 z m 88.25937,-54.5 c -3.48082,-9.78138 -17.21113,-42.00318 -17.66647,-41.45902 -0.32631,0.38996 -3.787,8.58402 -7.69041,18.20902 -3.90341,9.625 -7.80903,19.1875 -8.67915,21.25 L 436.45659,428 H 454.577 c 16.82811,0 18.076,-0.1248 17.49766,-1.75 z m 75.60063,57.72561 c -1.91003,-1.16452 -4.11954,-3.80435 -5.22803,-6.24627 -1.82765,-4.02611 -1.92096,-7.27107 -1.94186,-67.53165 l -0.022,-63.30232 40.25,0.31157 c 39.07806,0.30249 40.43926,0.37872 46.75,2.61788 18.41475,6.53388 28.45507,19.79793 29.71765,39.25934 1.34038,20.66061 -6.64998,35.88858 -23.43213,44.65679 -2.90442,1.51748 -5.28183,3.02878 -5.28314,3.35844 -10e-4,0.32967 7.35555,11.35467 16.34858,24.5 l 16.35095,23.90061 -17.06582,0.27454 c -9.3862,0.15099 -17.56266,0.0839 -18.1699,-0.14914 -0.60725,-0.23302 -7.59806,-10.12519 -15.53514,-21.98258 l -14.43105,-21.55891 -12.25,-0.0419 -12.25,-0.042 v 22 22 l -10.25,-0.004 c -8.51421,-0.003 -10.81021,-0.3453 -13.55814,-2.02066 z m 66.54541,-71.43878 c 12.58036,-5.1773 16.19485,-21.45521 6.94445,-31.27446 C 615.70263,375.46395 611.32911,374.5 590.48343,374.5 h -18.5 l -0.27287,18.96921 c -0.15008,10.43306 -0.0291,19.60437 0.26877,20.38068 0.84453,2.20081 36.38767,1.09596 42.24137,-1.31306 z M 708.48343,430.5 V 375 h -21 -21 v -14 -14 h 58 58 v 14 14 h -21.5 -21.5 v 49.76561 c 0,46.51497 -0.12094,49.99319 -1.85161,53.25 -1.01838,1.91641 -3.33493,4.49689 -5.14788,5.73439 -2.89509,1.97616 -4.5562,2.25 -13.64839,2.25 h -10.35212 z m 183.21553,53.53438 c -24.65729,-6.63967 -43.17934,-26.16643 -48.72969,-51.37298 -2.5552,-11.60428 -1.72433,-28.46988 1.92879,-39.1518 5.2105,-15.2358 14.26469,-26.99528 27.45485,-35.65808 11.21666,-7.36667 20.67014,-10.06324 37.13052,-10.59134 15.98932,-0.51298 24.84383,1.0067 35.46482,6.08677 7.83859,3.74923 19.53518,12.15811 19.53518,14.04418 0,0.67187 -3.0375,4.42846 -6.75,8.34796 -6.01145,6.34664 -7.26514,7.20018 -11.45824,7.80092 -4.20497,0.60245 -5.59459,0.23706 -13,-3.41827 -14.11951,-6.96944 -25.62103,-7.8255 -37.07595,-2.75959 -28.13199,12.44129 -31.99052,54.58451 -6.69756,73.15125 7.9504,5.83612 14.11194,7.85182 23.98175,7.84544 10.60965,-0.007 16.71982,-2.23509 26.64661,-9.71735 l 7.14661,-5.38671 9.10339,9.1414 c 5.00687,5.02777 9.10339,9.64078 9.10339,10.25114 0,1.47302 -9.08302,9.16261 -16.17216,13.69117 -3.1197,1.99287 -9.1947,4.83918 -13.5,6.32513 -6.83391,2.35869 -9.66895,2.74177 -22.32784,3.01702 -11.96497,0.26016 -15.77354,-0.0276 -21.78447,-1.64626 z M 984.48502,422.25 c 0,-71.06977 -0.2702,-68.19254 6.8963,-72.98006 2.9862,-1.99491 4.6521,-2.26994 13.74998,-2.26994 h 10.3521 v 69.5 69.5 h -15.49998 -15.5 z m 85.99838,8.25 V 375 h -21 -21 v -14 -14 h 58 58 v 14 14 h -21.5 -21.5 v 49.76561 c 0,46.51497 -0.1209,49.99319 -1.8516,53.25 -1.0184,1.91641 -3.3349,4.49689 -5.1479,5.73439 -2.8951,1.97616 -4.5562,2.25 -13.6484,2.25 h -10.3521 z m 133,28.07773 v -27.42227 l -25.5408,-40.21969 c -14.0474,-22.12083 -25.9882,-41.05581 -26.5352,-42.07773 C 1150.4556,347.07946 1151.1792,347 1168.3295,347 h 17.9164 l 16.2975,27.44854 c 8.9636,15.0967 16.588,27.26904 16.943,27.04965 0.3549,-0.2194 7.9984,-12.57124 16.9855,-27.44854 L 1252.8119,347 h 17.4191 c 9.5805,0 17.2691,0.37795 17.0857,0.83989 -0.1833,0.46194 -12.1458,19.29989 -26.5833,41.86212 l -26.25,41.02222 v 21.88789 c 0,24.52735 -0.5181,26.85697 -6.8964,31.11795 -2.9862,1.99491 -4.6521,2.26993 -13.75,2.26993 h -10.3521 z M 790.06343,406.75 c -0.3716,-2.3375 -0.92789,-5.2625 -1.23622,-6.5 -0.46583,-1.86967 -0.14999,-2.25 1.8685,-2.25 1.336,0 4.86497,-1.2375 7.84214,-2.75 5.80877,-2.95103 8.28052,-6.24561 9.37812,-12.5 l 0.65809,-3.75 h -6.54531 -6.54532 v -16 -16 h 16.08889 16.08888 l -0.33888,20.25 c -0.32429,19.37774 -0.45094,20.48692 -2.94027,25.75 -2.77234,5.86146 -6.21978,9.7993 -11.36028,12.97631 -3.50646,2.16711 -14.28894,4.98585 -19.16053,5.00891 -2.90378,0.0137 -3.16945,-0.28252 -3.79781,-4.23522 z M 520.47696,279.06566 C 513.6186,276.97944 508.34926,272.57444 504.8476,266 c -1.78969,-3.36017 -1.86417,-8.3938 -1.86417,-126 V 17.5 l 2.88633,-5.208474 c 3.07159,-5.5427816 8.12369,-9.7170188 13.69411,-11.3145949 5.19581,-1.4901393 242.06219,-1.3140893 247.06112,0.1836269 5.18693,1.5540419 11.21275,6.8741666 13.77053,12.157841 2.08211,4.301053 2.08791,4.651115 2.08791,125.848101 0,88.19733 -0.31218,122.46748 -1.1381,124.93428 -2.54063,7.58821 -10.49881,14.36475 -17.69967,15.07159 L 760.30788,279.5 712.7288,167.73166 665.14973,55.963306 642.7127,56.231653 620.27567,56.5 572.72051,168.25 c -26.15534,61.4625 -48.0461,111.71132 -48.64612,111.66405 -0.60003,-0.0473 -2.21887,-0.42905 -3.59743,-0.84839 z m 55.5674,-1.31566 c 2.51586,-8.13669 13.87191,-25.34323 22.82898,-34.59019 8.7217,-9.00396 19.23397,-16.17823 28.28422,-19.30303 6.48681,-2.23971 8.11441,-2.35678 32.76613,-2.35678 h 25.94026 l 9.87196,24.5 c 5.42957,13.475 10.73739,26.6375 11.79515,29.25 l 1.92319,4.75 h -67.05279 -67.0528 z m 36.72765,-91 c 13.96214,-34.72812 29.21901,-70.62709 29.76429,-70.03451 0.8197,0.89081 28.94713,69.45771 28.94713,70.5651 0,0.39568 -13.32314,0.71941 -29.60698,0.71941 -23.28696,0 -29.49972,-0.26683 -29.10444,-1.25 z"
       id="path2" />
  </g>
</svg>
