<?xml version="1.0" encoding="UTF-8" standalone="no"?>
<!-- Created with Inkscape (http://www.inkscape.org/) -->

<svg
   version="1.1"
   id="svg1"
   width="635.10248"
   height="831.60809"
   viewBox="0 0 635.10248 831.60809"
   xmlns="http://www.w3.org/2000/svg"
   xmlns:svg="http://www.w3.org/2000/svg">
  <defs
     id="defs1" />
  <g
     id="g1"
     transform="translate(-206.94353,-136.99689)">
    <path
       style="fill:#323232;fill-opacity:1"
       d="M 516.21975,967.50197 C 502.01682,963.53054 460.27864,943.64573 438.07776,930.27373 330.54902,865.50719 257.5616,764.14136 222.94883,631.5 c -6.69021,-25.63789 -11.78558,-53.63639 -14.92297,-82 -0.62611,-5.66036 -1.01163,-83.77087 -1.03894,-210.5 l -0.0434,-201.5 317.55125,-0.25156 317.55124,-0.25155 -0.3132,206.25155 -0.3132,206.25156 -2.23227,15.5 c -13.15486,91.34183 -45.92322,175.45518 -94.66644,243 -18.53999,25.69138 -50.69692,60.55635 -73.02087,79.17021 -34.08142,28.41732 -70.74152,51.3404 -110.57063,69.13839 -26.75536,11.95587 -34.78944,13.96726 -44.70962,11.19337 z M 542.3586,922.45051 C 612.47717,894.3908 672.44861,845.68097 714.66536,782.5 756.83652,719.38726 784.525,638.58399 792.49752,555.36248 793.71585,542.64493 794,521.36419 794,442.83939 V 346 H 522.5 251 l 0.01,98.25 c 0.008,79.88347 0.2847,100.68018 1.48115,111.25 11.25402,99.42232 48.48412,191.55986 104.45232,258.5 32.86514,39.30798 73.62032,71.72462 118.38881,94.16638 26.73829,13.40349 44.71153,20.19403 51.33767,19.39606 2.29326,-0.27617 9.35332,-2.57654 15.68902,-5.11193 z M 522.5,914.26908 c -4.04774,-1.00976 -21.35082,-8.23554 -33.57082,-14.01922 C 428.90132,871.8389 377.44129,826.35434 339.70451,768.35297 300.13272,707.53121 273.84044,631.03081 265.50196,552.45216 264.31015,541.221 264.01932,520.99661 264.01071,448.75 L 264,359 H 522.5 781 v 88.44553 C 781,537.87465 780.63421,549.28298 776.89411,575.5 769.14872,629.79299 754.4047,679.39141 732.57825,724.57721 693.22467,806.04822 633.38154,866.17618 556,901.99591 543.1687,907.93549 525.56185,915.20439 524.78226,914.884 524.62702,914.8202 523.6,914.54348 522.5,914.26908 Z M 554,794 v -44 h -30 -30 v 44 44 h 30 30 z M 494,679 v -44 h -30 -30 v 44 44 h 30 30 z m 120,0 v -44 h -30 -30 v 44 44 h 30 30 z M 435,563 v -44 h -30 -30 v 44 44 h 30 30 z m 119,0 v -44 h -30 -30 v 44 44 h 30 30 z m 120,0 v -44 h -30 -30 v 44 44 h 30 30 z M 375,444 v -44 h -30 -30 v 44 44 h 30 30 z m 119,0 v -44 h -30 -30 v 44 44 h 30 30 z m 120,0 v -44 h -30 -30 v 44 44 h 30 30 z m 120,0 v -44 h -30 -30 v 44 44 h 30 30 z M 446.5,322.89857 c 4.51481,-1.23059 7.91236,-3.98889 10.34501,-8.39857 1.41843,-2.57119 1.65499,-6.64925 1.65499,-28.53054 0,-22.98181 -0.19063,-25.95348 -1.90957,-29.76706 -3.2197,-7.14315 -6.8317,-8.64032 -21.84043,-9.05282 L 422,246.79915 v 37.93376 c 0,20.86357 0.3,38.23376 0.66667,38.60042 1.08456,1.08456 19.4911,0.7488 23.83333,-0.43476 z M 434,285.44774 v -26.55226 l 5.2257,0.30226 c 7.53904,0.43607 7.74175,1.10189 7.75956,25.48716 0.0143,19.59293 -0.63769,24.83798 -3.29782,26.52944 -0.65309,0.41527 -3.09994,0.76193 -5.43744,0.77035 L 434,312 Z M 481,285.5 V 247 h -6 -6 v 38.5 38.5 h 6 6 z m 23.03442,37.25 c 0.0189,-0.6875 0.0515,-11.6 0.0724,-24.25 0.0263,-15.90466 0.32879,-22.07452 0.98056,-20 0.5184,1.65 3.75116,12.45 7.18391,24 l 6.24136,21 h 6.99366 6.99365 l 0.30784,-29 c 0.16932,-15.95 0.0148,-33.1625 -0.34332,-38.25 L 531.81335,247 h -6.04623 -6.04622 l 0.7265,23.5 c 0.39958,12.925 0.53444,23.5 0.29968,23.5 -0.23475,0 -3.31138,-10.57326 -6.83695,-23.49613 L 507.5,247.00773 499.75,247.00387 492,247 v 37.83333 c 0,20.80834 0.3,38.13334 0.66667,38.5 1.26134,1.26135 11.33118,0.74462 11.36775,-0.58333 z m 45.37324,-6 0.90766,-6.75 h 7.18468 7.18468 l 0.90766,6.75 0.90766,6.75 4.87294,0.30981 c 2.68012,0.1704 5.43563,0.0939 6.12337,-0.17002 0.96278,-0.36945 0.60508,-4.12132 -1.55495,-16.30981 -1.54296,-8.70649 -4.48199,-25.84248 -6.53118,-38.07998 L 565.68438,247 h -8.1806 -8.18059 l -1.73368,10.25 c -0.95352,5.6375 -3.86414,22.7496 -6.46805,38.02688 -2.6039,15.27728 -4.50183,28.00942 -4.21762,28.29363 0.28421,0.28421 3.00962,0.38462 6.05646,0.22312 L 548.5,323.5 Z m 2.89487,-20 c 0.28564,-1.2375 1.55379,-9.675 2.81811,-18.75 l 2.29877,-16.5 2.21196,15.5 c 1.21657,8.525 2.44391,16.9625 2.72742,18.75 l 0.51547,3.25 h -5.54554 c -5.23814,0 -5.51675,-0.12472 -5.02619,-2.25 z m 45.92937,3.5 0.2681,-23.75 6.97206,23.75 6.97205,23.75 H 619.22206 626 V 285.5 247 h -6.08056 -6.08057 l 0.33057,23.41827 c 0.18181,12.88004 0.21074,23.29773 0.0643,23.15041 -0.14644,-0.14732 -3.09524,-10.57304 -6.55288,-23.16827 L 601.39423,247.5 593.69712,247.20794 586,246.91587 V 285.45794 324 h 5.9819 5.9819 z m -84.19379,-64.5 c 3.11626,-1.57144 5.06506,-3.45633 6.46189,-6.25 1.85221,-3.70442 2.02466,-6.38308 2.33376,-36.25 L 523.16752,161 H 516.58376 510 v 31.3 c 0,23.01111 -0.31778,31.61778 -1.2,32.5 -0.66,0.66 -2.82,1.2 -4.8,1.2 -1.98,0 -4.14,-0.54 -4.8,-1.2 -0.88222,-0.88222 -1.2,-9.48889 -1.2,-32.5 V 161 h -6.52615 -6.52615 l 0.28718,32.25 c 0.30605,34.36922 0.61866,36.69455 5.51965,41.05775 4.74294,4.22248 16.34504,4.94115 23.28358,1.44225 z m 202.61813,-0.34267 c 1.4961,-1.117 3.64799,-3.2736 4.78197,-4.79245 1.97025,-2.63894 2.06179,-4.03467 2.06179,-31.43821 0,-27.93523 -0.0577,-28.7695 -2.23294,-32.2671 -3.23306,-5.19856 -8.42396,-7.23941 -17.15818,-6.74588 -8.21359,0.46411 -11.55067,2.3831 -14.60888,8.40084 -1.85068,3.64165 -2,5.91396 -2,30.43547 0,24.78625 0.13309,26.75868 2.05794,30.5 3.06202,5.9516 8.97901,8.72652 17.66009,8.28213 4.79419,-0.24541 7.49702,-0.92549 9.43821,-2.3748 z m -15.7838,-11.06102 C 699.79347,223.04623 699.5,217.57459 699.5,198.75795 v -23.93466 l 2.36078,-1.91164 C 704.88919,170.45939 707.4876,170.4876 710,173 c 1.88817,1.88817 2,3.33333 2,25.84501 0,21.83067 -0.15449,23.98482 -1.82874,25.5 -2.35288,2.12933 -7.5321,2.13005 -9.29882,0.001 z M 284.7999,231.25 284.5,225.5 274.75,225.21379 265,224.92758 V 192.96379 161 h -6 -6 v 38 38 h 16.0499 16.04991 z m 13.737,-0.75 0.69609,-6.5 h 7.30391 7.30391 l 0.69609,6.5 0.69609,6.5 h 6.40256 c 6.12179,0 6.38054,-0.0987 5.90044,-2.25 -0.6997,-3.13535 -12.54131,-72.07871 -12.53838,-73 10e-4,-0.4125 -3.82261,-0.75 -8.49761,-0.75 -5.25312,0 -8.5,0.39985 -8.5,1.04676 0,0.57571 -2.7,16.90602 -6,36.28958 -3.3,19.38355 -6,36.01251 -6,36.95324 0,1.42129 1.00078,1.71042 5.92041,1.71042 h 5.9204 z m 2.80071,-19.88975 c 0.26635,-1.16064 1.52115,-9.53525 2.78844,-18.61025 1.26729,-9.075 2.43486,-15.825 2.5946,-15 0.75556,3.90228 5.15246,34.45477 4.9779,34.58964 -0.1092,0.0844 -2.59405,0.37334 -5.52188,0.64214 -5.01284,0.46022 -5.29509,0.36564 -4.83906,-1.62153 z m 82.3407,23.78522 c 4.74861,-3.54171 6.49954,-7.68432 7.05051,-16.68114 0.59066,-9.64506 -0.82892,-15.97583 -4.30465,-19.19703 -2.24338,-2.07909 -2.30562,-2.37072 -0.7766,-3.63877 4.8356,-4.01027 5.98768,-18.21195 2.10243,-25.91664 -3.40611,-6.75454 -6.65776,-7.95845 -21.5,-7.96034 L 354,161 v 38.09811 38.09812 l 13.42831,-0.34812 c 11.76651,-0.30503 13.77751,-0.60855 16.25,-2.45264 z M 366,214 v -11 h 4.97432 c 4.57037,0 5.10687,0.25632 6.60654,3.15636 1.93232,3.73671 1.61831,14.6938 -0.49404,17.23902 C 376.19757,224.46687 374.13454,225 370.87756,225 H 366 Z m 0,-32.5 V 172 h 4.37756 c 5.49977,0 6.8369,1.54093 7.41803,8.54867 C 378.4329,188.23375 376.49581,191 370.47695,191 H 366 Z m 67,49.5 v -6 H 423 413 V 214.5 204 h 8 8 v -6 -6 h -8 -8 v -10 -10 h 10 10 V 166.5 161 H 416.5 400 v 38 38 h 16.5 16.5 z m 16.66269,-0.25 0.83731,-6.25 7.15712,-0.29193 7.15712,-0.29194 0.84288,6.29194 0.84288,6.29193 6.37117,0.30086 c 6.20806,0.29316 6.35656,0.24196 5.80005,-2 -0.31413,-1.26547 -3.08112,-17.15086 -6.14888,-35.30086 -3.06776,-18.15 -5.82603,-34.2375 -6.1295,-35.75 -0.54821,-2.73238 -0.60446,-2.75 -8.77663,-2.75 h -8.22488 l -6.23211,37.25 c -3.42767,20.4875 -6.21572,37.5875 -6.19567,38 0.0201,0.4125 2.69716,0.75 5.94914,0.75 h 5.91269 z m 5.23889,-36.71085 c 1.38053,-9.87847 2.62961,-17.84129 2.77575,-17.69516 0.14613,0.14614 1.18897,6.99102 2.31742,15.21086 1.12846,8.21983 2.30203,16.18265 2.60795,17.69515 0.55183,2.72834 0.51381,2.75 -4.82748,2.75 h -5.38368 z m 89.59254,17.21085 -0.49753,-25.75 3.38827,15.5 c 1.86356,8.525 3.92123,18.0875 4.57261,21.25 l 1.18433,5.75 h 4.87008 c 2.67855,0 5.10326,-0.37729 5.38825,-0.83841 0.285,-0.46113 2.34441,-9.79863 4.57649,-20.75 2.23207,-10.95138 4.21336,-20.36159 4.40285,-20.91159 0.18949,-0.55 0.11537,10.8125 -0.16473,25.25 L 571.70547,237 H 577.85274 584 v -38 -38 h -7.8915 -7.8915 l -1.52313,6.75 c -0.83772,3.7125 -3.00185,13.62021 -4.80917,22.01713 -1.80731,8.39692 -3.58345,14.69692 -3.94696,14 -0.36351,-0.69692 -2.60093,-10.60463 -4.97203,-22.01713 L 548.65462,161 H 540.82731 533 v 38 38 h 5.99583 5.99582 z m 58.00714,21 c 1.09013,-8.30091 1.27505,-8.48473 8.54085,-8.48984 l 6.45789,-0.005 0.82563,4.37219 c 1.84008,9.74422 1.0761,8.87219 7.77288,8.87219 h 6.0604 l -0.56326,-2.75 c -0.3098,-1.5125 -3.05351,-17.6 -6.09713,-35.75 -3.04363,-18.15 -5.76401,-34.03049 -6.04528,-35.28997 -0.48892,-2.18928 -0.87198,-2.27722 -8.71177,-2 l -8.20036,0.28997 -0.79858,5 c -0.43922,2.75 -3.26097,19.23127 -6.27055,36.62505 C 592.46239,220.51883 590,235.25633 590,235.87505 590,236.58203 592.20649,237 595.93873,237 h 5.93872 z m 3.57271,-22.5 c 0.18057,-5.49287 4.67948,-32.09794 5.19981,-30.75 0.50315,1.30342 4.74728,30.22896 4.73192,32.25 -0.003,0.4125 -2.2557,0.75 -5.0057,0.75 -4.54043,0 -4.9932,-0.2068 -4.92603,-2.25 z m 45.54336,2.5 -0.62771,-24.75 6.11098,20.5 c 3.36103,11.275 6.64419,22.3 7.29592,24.5 l 1.18494,4 7.20927,0.29381 L 680,237.08762 V 199.04381 161 h -6 -6 l -0.0689,23.25 -0.0689,23.25 -6.61285,-23.28879 -6.61284,-23.2888 -7.38478,0.2888 -7.38477,0.28879 0.0619,37.5 c 0.034,20.625 0.064,37.6125 0.0665,37.75 0.003,0.1375 2.75972,0.25 6.12711,0.25 h 6.12252 z M 746,199 v -38 h -6 -6 v 38 38 h 6 6 z m 24,23 c 0,-14.21287 0.10248,-15 1.95295,-15 3.13916,0 6.74634,2.04459 7.83932,4.44342 0.55704,1.22258 1.30587,5.33546 1.66406,9.13973 0.35819,3.80427 1.12193,9.05435 1.6972,11.66685 l 1.04595,4.75 h 6.40026 c 3.52014,0 6.39348,-0.1125 6.3852,-0.25 -0.008,-0.1375 -0.66353,-2.05 -1.4561,-4.25 -0.79258,-2.2 -1.4804,-6.475 -1.5285,-9.5 -0.12354,-7.77021 -1.4534,-13.79047 -3.71561,-16.82045 l -1.94425,-2.60412 3.07976,-4.37226 c 3.01381,-4.27864 3.07976,-4.62209 3.07976,-16.03772 0,-9.91666 -0.30492,-12.19014 -2.03402,-15.16545 -3.37244,-5.80307 -7.07612,-6.99666 -21.71598,-6.99845 L 758,161 v 38 38 h 6 6 z m 0,-38 v -12 h 4.5 c 6.89428,0 8.5,2.18102 8.5,11.54545 0,6.67789 -0.28222,7.82768 -2.45455,10 -1.79707,1.79708 -3.53815,2.45455 -6.5,2.45455 H 770 Z"
       id="path1" />
  </g>
</svg>
