<?xml version="1.0" encoding="UTF-8" standalone="no"?>
<!-- Created with Inkscape (http://www.inkscape.org/) -->

<svg
   version="1.1"
   id="svg1"
   width="214.49992"
   height="62.063732"
   viewBox="0 0 214.49992 62.063732"
   xmlns="http://www.w3.org/2000/svg"
   xmlns:svg="http://www.w3.org/2000/svg">
  <defs
     id="defs1" />
  <g
     id="g1"
     transform="translate(-0.197396,-0.93173492)">
    <path
       id="path1"
       d="m 1308.01,393.52 c 20.97,0 35.97,-13.52 35.97,-38.29 h -74.21 c 2.22,22.5 15,38.29 38.24,38.29 m 65.97,-45 c 0,45.742 -25.46,71.25 -65.97,71.25 -45,0 -69.77,-30.79 -69.77,-77.27 0,-45.738 25.51,-77.27 72.78,-77.27 33.75,0 53.98,15.79 61.48,42.04 l -26.25,8.98 c -4.49,-15 -17.27,-22.5 -35.23,-22.5 -26.25,0 -38.29,16.48 -40.51,38.98 h 105 v 15.79 z m -233.24,-54.77 c -24.72,0 -40.51,18.012 -40.51,48.75 0,30.738 16.53,48.75 40.51,48.75 24.77,0 40.51,-18.012 40.51,-48.75 0,-30.738 -15.74,-48.75 -40.51,-48.75 m -8.24,-28.52 c 19.49,0 38.24,8.29 47.27,26.25 h 1.48 v -23.242 h 31.48 V 464.77 h -31.48 v -71.25 h -1.48 c -9.03,17.96 -27.78,26.25 -47.27,26.25 -38.24,0 -66.76,-29.258 -66.76,-77.27 0,-48.012 29.26,-77.27 66.76,-77.27 M 923.238,393.52 c 21.024,0 36.024,-13.52 36.024,-38.29 H 885 c 2.27,22.5 15,38.29 38.238,38.29 m 66.024,-45 c 0,45.742 -25.512,71.25 -66.024,71.25 -45,0 -70.508,-30.79 -70.508,-77.27 0,-45.738 25.508,-77.27 72.782,-77.27 33.75,0 53.976,15.79 61.476,42.04 l -26.25,8.98 c -4.488,-15 -17.218,-22.5 -35.226,-22.5 -26.25,0 -38.242,16.48 -40.512,38.98 h 105 v 15.79 z M 825,464.77 H 793.5195 V 268.239 H 825 Z m -68.238,0 H 725.2307 V 268.239 H 756.762 Z M 686.25,416.762 H 654.7695 V 268.981 H 686.25 Z m -15.738,16.476 c 10.508,0 19.488,9.032 19.488,20.282 0,10.46 -8.98,19.492 -19.488,19.492 -11.25,0 -20.282,-9.032 -20.282,-19.492 0,-10.508 9.032,-20.282 20.282,-20.282 m -109.492,-165 67.5,191.25 H 592.5 l -53.98,-157.5 h -2.27 l -53.98,157.5 h -36.02 l 67.5,-191.25 z"
       style="fill:#323232;fill-opacity:1;fill-rule:nonzero;stroke:none"
       transform="matrix(0.13333333,0,0,-0.13333333,0,64)" />
    <path
       id="path2"
       d="m 1452.73,62.7305 c 9.77,-32.961 37.5,-53.24222 81.76,-53.24222 45,0 75.74,21.02342 75.74,59.26172 0,31.48 -19.49,51.02 -74.21,58.52 -30.79,4.492 -41.25,11.992 -41.25,26.992 0,16.476 13.47,23.976 33.75,23.976 24.72,0 38.24,-11.25 43.47,-33.008 l 31.53,9.032 c -8.29,34.488 -33.75,53.976 -75.79,53.976 -41.25,0 -68.24,-19.488 -68.24,-56.25 0,-26.25 13.52,-48.008 67.5,-55.5075 35.28,-4.4922 46.53,-12.7305 46.53,-29.211 0,-18.0078 -14.26,-27.039 -38.29,-27.039 -28.47,0 -45,12.7812 -53.24,35.2812 z M 1294.49,125 c 3.75,30 21.76,51.02 53.24,51.02 29.26,0 48.75,-18.008 48.75,-51.02 z m 137.27,-8.238 c 0,59.258 -33.01,90.738 -83.24,90.738 -57.04,0 -89.26,-39.77 -89.26,-98.98 0,-60.0005 32.22,-99.03172 90.74,-99.03172 41.99,0 68.98,20.28122 78.75,52.50002 L 1396.48,72.5 c -6.71,-23.9805 -26.25,-30.7383 -46.48,-30.7383 -36.76,0 -53.24,23.2383 -55.51,53.9766 h 137.27 z M 1096.48,13.2383 V 152.73 c 18.75,-17.96 72.04,-95.9683 93.01,-139.4917 h 34.49 V 204.488 h -33.75 V 76.25 c -24.72,44.262 -59.21,90 -95.97,128.238 h -32.27 V 13.2383 Z m -206.25,0 V 152.73 c 18.75,-17.96 72.04,-95.9683 93.008,-139.4917 h 34.492 V 204.488 H 983.98 V 76.25 c -24.718,44.262 -59.21,90 -95.23,128.238 H 856.48 V 13.2383 Z M 684.77,125 c 3.75,30 21.71,51.02 53.242,51.02 29.258,0 48.75,-18.008 48.75,-51.02 z m 136.48,-8.238 c 0,59.258 -33.012,90.738 -83.238,90.738 -56.992,0 -89.262,-39.77 -89.262,-98.98 0,-60.0005 32.27,-99.03172 90.738,-99.03172 41.992,0 69.032,20.28122 78.75,52.50002 L 786.02,72.5 C 779.262,48.5195 759.77,41.7617 739.488,41.7617 702.73,41.7617 686.25,65 683.98,95.7383 h 137.27 z m -274.488,56.25 c 26.988,0 41.25,-12.782 41.25,-34.492 0,-19.54 -11.992,-33.008 -37.5,-33.008 H 504.77 v 67.5 z M 578.98,80.7383 c 33.75,11.25 44.258,36.7617 44.258,61.5317 0,38.98 -26.988,62.218 -73.468,62.218 H 471.02 V 13.2383 h 33.75 v 62.2734 h 38.98 l 12.73,-21.0234 c 22.5,-36.7578 31.532,-42.7266 67.5,-42.7266 v 32.2188 c -18.75,0 -25.46,6.0195 -39.718,29.2578 z"
       style="fill:#323232;fill-opacity:1;fill-rule:nonzero;stroke:none"
       transform="matrix(0.13333333,0,0,-0.13333333,0,64)" />
    <path
       id="path3"
       d="m 219.77,118.98 c -27.782,39.77 -46.532,51.758 -85.508,57.782 V 140 C 161.25,136.25 173.98,121.988 191.25,97.2695 237.73,30.5117 263.98,3.51953 358.52,8.01172 V 43.2383 C 285,38.75 261.02,61.25 219.77,118.98 m 23.242,18.75 C 282.73,83.0117 303.75,64.2617 358.52,68.75 v 35.23 c -40.508,-4.4917 -60,15.79 -87.782,55.508 C 236.25,207.5 198.012,233.75 133.52,236.762 V 200.738 C 180,199.262 209.262,183.52 243.012,137.73 M 1.48047,13.2383 H 38.2383 V 320 C 26.9883,316.25 12.7305,311.762 1.48047,306.48 Z M 103.52,337.27 C 92.2695,335.738 78.0117,333.52 66.7617,330.512 V 13.9805 H 103.52 Z m 195,-35.282 c 0,60.742 -48.008,101.25 -142.5,101.25 -49.54,0 -108.7505,-11.25 -154.53953,-30 v -37.5 c 42.03903,18.75 102.78153,32.274 154.53953,32.274 68.242,0 105.742,-23.242 105.742,-66.762 0,-25.512 -12.782,-48.012 -36.024,-62.27 9.774,-5.23 20.282,-13.468 28.524,-20.968 27.726,18.008 44.258,48.75 44.258,83.976 m -138.75,165 c -52.5,0 -106.5317,-11.25 -158.28953,-28.468 v -37.5 C 58.5195,421.988 112.5,431.762 159.77,431.762 c 107.218,0 170.23,-48.75 170.23,-126.024 0,-45 -19.488,-83.238 -56.25,-108.75 7.5,-8.238 15.738,-18.008 22.5,-26.25 45.738,31.532 70.512,81.762 70.512,135 0,96.762 -79.492,161.25 -206.992,161.25"
       style="fill:#323232;fill-opacity:1;fill-rule:nonzero;stroke:none"
       transform="matrix(0.13333333,0,0,-0.13333333,0,64)" />
  </g>
</svg>
