<?xml version="1.0" encoding="UTF-8" standalone="no"?>
<!-- Created with Inkscape (http://www.inkscape.org/) -->

<svg
   version="1.1"
   id="svg1"
   width="2451.3828"
   height="1096.8798"
   viewBox="0 0 2451.3828 1096.8798"
   xmlns="http://www.w3.org/2000/svg"
   xmlns:svg="http://www.w3.org/2000/svg">
  <defs
     id="defs1" />
  <path
     style="fill:#323232;fill-opacity:1"
     d="m 1091.4074,1096.8075 c -25.4406,-0.7196 -67.2428,-2.555 -76.5,-3.3587 -44.23929,-3.8408 -44.36124,-3.8534 -72.99988,-7.5217 -45.55956,-5.8356 -108.81164,-23.7105 -148.65113,-42.0083 -1.73312,-0.796 -3.40345,-1.4473 -3.71184,-1.4473 -1.62965,0 -47.86609,-22.5436 -62.63703,-30.54 C 680.27734,986.68763 625.45211,948.98645 581.29227,911.79768 542.72289,879.31686 500.87946,837.49571 470.26991,800.83445 453.47094,780.7142 426.13535,743.30216 412.25814,721.43835 l -5.14939,-8.11294 -23.3919,31.32308 c -22.36539,29.94851 -49.71416,67.30221 -58.96566,80.5369 -22.91367,32.77908 -31.56694,45.23652 -37.36128,53.78617 -3.72751,5.5 -8.01603,11.8 -9.53003,14 -2.44079,3.5467 -14.39018,21.98512 -20.4142,31.5 -12.70678,20.07021 -21.53006,35.61762 -28.3708,49.99187 -4.43618,9.3216 -5.55825,12.7391 -5.94154,18.0961 -0.42506,5.9408 -0.24026,6.8207 1.83938,8.75817 2.06118,1.9202 3.4453,2.1538 12.76227,2.1538 21.44966,0 44.52523,-5.70107 64.17253,-15.85447 13.15906,-6.8005 13.93921,-5.9161 3.17242,3.5963 -33.22893,29.35737 -67.83127,46.25427 -94.72825,46.25737 -28.63493,0 -41.44872,-23.7694 -34.39059,-63.80307 1.12947,-6.4064 2.74191,-13.90876 3.5832,-16.672 0.84129,-2.76324 2.47713,-8.17407 3.63521,-12.02407 1.91439,-6.36434 9.51035,-27.12414 11.70872,-32 0.49595,-1.1 2.3382,-5.375 4.09387,-9.5 14.72417,-34.59482 46.52311,-94.26584 75.93886,-142.5 2.68335,-4.4 6.4899,-10.7 8.45898,-14 1.96909,-3.3 8.03761,-12.975 13.48559,-21.5 5.44799,-8.525 11.74732,-18.425 13.99851,-22 8.24306,-13.09036 33.63611,-51.07162 46.58794,-69.68318 l 5.69469,-8.18318 -5.02747,-14.81682 c -12.57972,-37.07465 -13.46923,-45.65188 -6.63608,-63.98997 6.31318,-16.94269 14.27005,-29.17403 27.91162,-42.9059 11.83995,-11.91832 18.00811,-16.67843 29.60409,-22.84614 13.95512,-7.42249 22.67343,-7.15817 17.00011,0.5154 -6.00627,8.12393 -8.59257,20.85997 -7.12485,35.08584 0.8333,8.07671 4.4136,22.35337 6.06206,24.17281 0.42299,0.46687 5.48974,-5.38313 11.25942,-13 12.95323,-17.10024 18.67599,-24.50873 34.57674,-44.7619 12.35882,-15.74171 58.51161,-73.04641 60.56944,-75.20483 0.58617,-0.61483 6.46577,-7.55952 13.06577,-15.43264 48.36347,-57.69268 94.41445,-107.59112 141.64627,-153.48052 63.0071,-61.21631 117.38574,-98.0574 152.85373,-103.55716 11.82816,-1.83411 32.51444,-0.13414 45.5,3.73912 19.76077,5.89414 36.467,14.87681 49.104,26.40242 7.45325,6.79776 7.44803,6.91727 -0.2743,6.28036 -5.39539,-0.44499 -8.40478,-0.0885 -14.3297,1.69744 -17.45842,5.26251 -41.83705,20.43338 -70.5,43.87228 -6.98331,5.71054 -21.06909,17.66565 -22.5,19.09657 -0.275,0.275 -5.22108,4.775 -10.9913,10 -43.41497,39.31281 -116.5864,115.49947 -170.5087,177.53501 -3.3,3.79652 -10.96055,12.54177 -17.02345,19.43388 -6.06289,6.89211 -17.73895,20.40611 -25.94678,30.03111 -8.20784,9.625 -17.23951,20.2 -20.07039,23.5 -6.87787,8.01766 -19.67731,23.26141 -26.45938,31.51234 -9.85108,11.98462 -34.15882,41.37571 -38.03384,45.98766 -2.07952,2.475 -11.72916,14.4 -21.44362,26.5 l -17.66267,22 4.32006,0.34957 c 4.14413,0.33534 7.91851,-0.0209 35.82007,-3.38115 18.29654,-2.20348 44.97299,-6.70656 58.5,-9.87501 3.3,-0.77297 10.5,-2.4048 16,-3.62629 28.69052,-6.37188 75.7126,-19.77898 105,-29.93797 68.9501,-23.9169 114.4189,-43.0566 176,-74.08567 137.66438,-69.36548 237.53008,-151.62797 274.30488,-225.95355 7.8641,-15.89408 10.0202,-21.66975 14.3684,-38.48993 2.0652,-7.98872 2.3187,-11.1911 2.256,-28.5 -0.076,-20.82767 -0.7799,-25.14061 -6.8582,-41.99113 C 1139.9795,118.96886 1090.0307,78.401447 1017.9074,54.123515 967.08569,37.016026 915.08693,29.450437 858.64564,30.951618 795.69119,32.626031 723.41197,42.999991 663.40752,58.973397 c -5.5,1.46412 -11.69206,3.07845 -13.76012,3.58741 -2.06807,0.50896 -7.69307,2.09234 -12.5,3.51863 -4.80694,1.42628 -11.21488,3.26496 -14.23988,4.08594 -6.59297,1.78932 -52.65282,17.00508 -55.5,18.33429 -1.1,0.51353 -5.825,2.31452 -10.5,4.00219 -4.675,1.68767 -11.2,4.13201 -14.5,5.43187 -3.3,1.29986 -10.05,3.945163 -15,5.878463 -7.86914,3.07342 -13.66535,5.46373 -21,8.66022 -32.12581,14.00066 -38.59288,16.99957 -67,31.06926 -52.90108,26.20123 -110.02472,60.26883 -159.28835,94.99696 -22.54855,15.89547 -61.44618,46.29635 -77.25868,60.38237 -2.50087,2.22781 -8.35087,7.39985 -13,11.49342 -14.12668,12.43857 -47.84455,46.77371 -59.34153,60.42788 -37.002268,43.94507 -54.611457,78.15872 -54.611457,106.10699 0,19.96015 7.204885,37.6129 21.371279,52.36194 5.533678,5.76127 16.777928,13.64371 21.935548,15.37725 1.75625,0.59029 3.64319,1.41586 4.19319,1.83459 0.55,0.41872 3.1375,1.07953 5.75,1.46845 5.5405,0.82481 5.94188,1.81234 1.64066,4.03658 -5.24709,2.71338 -21.1861,3.83726 -36.151588,2.5491 C 63.793661,551.92153 42.762788,542.72693 25.452314,524.32579 12.738638,510.81107 4.0642092,492.79636 0.96503515,473.47156 -0.48847004,464.40828 -0.25599004,439.466 1.3658262,430.47156 13.471153,363.33653 68.993047,291.77337 165.82626,218.4956 c 9.509,-7.19587 37.37228,-26.5621 46.84428,-32.55888 26.27825,-16.63691 49.85535,-30.60419 73.23698,-43.38621 8.51406,-4.65438 55.89085,-28.22233 66.5,-33.08093 5.74877,-2.63273 15.65142,-7.00074 34,-14.997173 9.44362,-4.1156 26.29222,-10.87352 41,-16.44497 3.85,-1.45842 8.575,-3.26841 10.5,-4.02221 13.60073,-5.3258 44.34453,-15.815584 63,-21.495597 7.425,-2.260683 16.2,-4.956035 19.5,-5.989672 6.88242,-2.155736 15.76713,-4.710506 23,-6.61358 2.75,-0.723565 8.6,-2.275246 13,-3.44818 20.44748,-5.450806 53.11676,-12.979442 72,-16.592399 25.0847,-4.799491 48.20582,-8.671547 65,-10.8854415 6.05,-0.797542 14.15,-1.917829 18,-2.489526 3.85,-0.571698 14.425,-1.713691 23.5,-2.537763 9.075,-0.8240719 21.9,-2.0294839 28.5,-2.6786939 17.16011,-1.68795696 112.56331,-1.70341896 127,-0.02058 58.77116,6.8507589 80.77415,10.9163694 122.99988,22.7273714 41.4887,11.604829 86.0391,31.841265 117.5,53.372904 19.8538,13.58783 44.5225,36.49427 56.6654,52.61749 23.0656,30.62619 35.674,61.41217 40.784,99.58242 6.9842,52.16975 -11.0314,104.90858 -54.9696,160.91758 -17.8092,22.70174 -45.8221,51.45085 -68.836,70.64506 -5.0291,4.19437 -11.2858,9.42417 -13.9038,11.62177 -15.0236,12.61132 -56.9929,42.2696 -78.74,55.64287 -6.9902,4.29859 -26.112,15.54799 -31.99988,18.82556 -25.15183,14.0011 -29.43781,16.26956 -48,25.40523 -14.94391,7.35488 -24.01891,11.64952 -35.5,16.79996 -11.71427,5.25505 -31.05289,13.40782 -41.5,17.49555 -5.225,2.04443 -10.625,4.18055 -12,4.74693 -9.94084,4.09475 -53.92722,19.04656 -71,24.13426 -15.98696,4.76412 -22.50151,6.6264 -26.5,7.57544 -2.2,0.52217 -9.175,2.27053 -15.5,3.88524 -19.93476,5.08916 -26.14462,6.46845 -51,11.32775 -21.55373,4.21382 -47.9011,8.08801 -74,10.88116 -29.08148,3.11235 -87.48516,3.64911 -118.5,1.08908 -5.5,-0.45398 -10.10539,-0.73888 -10.23421,-0.6331 -0.92925,0.76306 14.37449,27.01142 26.56152,45.55724 26.88085,40.90641 73.88865,93.24266 121.25539,135 13.40332,11.81604 15.36518,13.5111 21.4173,18.50475 3.3,2.72285 6.225,5.18692 6.5,5.47571 2.94721,3.09496 41.09939,32.43132 52.01707,39.99749 2.00157,1.38713 7.80509,5.44705 12.89671,9.02205 45.20989,31.7434 100.98533,63.19447 147.08622,82.94014 4.125,1.7668 8.85,3.7983 10.5,4.5146 1.65,0.7162 6.15,2.5134 10,3.9937 3.85,1.4803 8.35,3.2851 10,4.0106 1.65,0.7256 6.6,2.5143 11,3.975 4.4,1.4607 8.9,3.0621 10,3.5587 2.62987,1.1873 19.66514,6.5148 31,9.6948 33.23396,9.3238 66.70968,15.4075 111.49988,20.2636 9.625,1.0435 19.3,2.1668 21.5,2.4963 8.0218,1.2012 47.6736,3.6658 74.1266,4.6073 40.4627,1.4401 73.4307,-0.4125 124.8734,-7.0172 75.7513,-9.7257 155.3813,-24.1676 221,-40.0812 27.6656,-6.7094 29.7714,-6.6714 13.3044,0.2401 -37.3874,15.692 -82.538,31.6561 -113.8044,40.2382 -5.225,1.4342 -10.85,3.0257 -12.5,3.5367 -1.65,0.5111 -8.625,2.313 -15.5,4.0043 -6.875,1.6913 -13.85,3.5009 -15.5,4.0213 -1.65,0.5204 -6.6,1.6792 -11,2.5752 -4.4,0.896 -12.05,2.4821 -17,3.5246 -22.3722,4.7119 -47.1797,8.985 -69,11.8851 -8.25,1.0965 -16.125,2.2245 -17.5,2.5066 -2.2216,0.4559 -14.0391,1.6351 -45,4.4906 -17.8186,1.6434 -86.772,3.8584 -104.5,3.3569 z M 976.91044,887.39639 c -4.96227,-2.34752 -8.74218,-5.35926 -16.00103,-12.74921 -12.95734,-13.19136 -22.96594,-28.75989 -29.04223,-45.17562 -5.07029,-13.69793 -2.13885,-35.67554 8.26976,-62 3.21733,-8.13696 16.73144,-34.59876 21.19415,-41.5 2.13396,-3.3 5.04824,-7.8 6.47617,-10 45.50084,-70.10249 128.05834,-145.66631 211.18824,-193.29792 69.7203,-39.94816 134.6487,-59.59424 191.4119,-57.91753 44.9575,1.328 75.7218,17.93233 86.5538,46.71545 2.1361,5.67611 2.4462,8.14779 2.4462,19.5 0,11.94344 -0.2409,13.65019 -2.9641,21 -5.5523,14.98553 -16.8967,32.4247 -19.4706,29.93099 -0.7996,-0.77476 0.01,-3.47938 2.9424,-9.82607 4.4623,-9.65858 7.9961,-23.109 7.9853,-30.39364 -0.011,-7.67289 -3.6282,-20.73706 -7.353,-26.55993 -5.3971,-8.43695 -14.1301,-14.34305 -24.4392,-16.52814 -6.4283,-1.36252 -22.9719,-1.41174 -33.2008,-0.0988 -9.9623,1.27874 -18.9053,3.43838 -34,8.21058 -11.3011,3.57286 -15.7817,5.24061 -28.4598,10.5932 -6.4669,2.7303 -35.6372,17.63913 -41.0402,20.97556 -2.75,1.69814 -7.475,4.55223 -10.5,6.34242 -9.9015,5.85971 -29.2151,19.03371 -44.5,30.35402 -54.2613,40.18683 -105.1799,92.62258 -151.0008,155.49977 -28.7877,39.50356 -53.0046,80.4325 -54.2787,91.73615 -0.4497,3.98981 -0.323,4.26385 1.9713,4.26385 5.4157,0 23.7613,-8.62433 38.5603,-18.12739 2.8887,-1.85493 7.3887,-4.68667 10,-6.29275 5.6697,-3.48709 49.3793,-32.57219 57.3424,-38.15655 60.85,-42.67291 124.7084,-91.40084 147.4055,-112.47949 20.7824,-19.30054 39.8158,-36.79411 50.048,-45.9991 20.2155,-18.18616 45.6053,-38.38716 53.1523,-42.28979 7.7711,-4.0185 16.8294,-0.4277 28.3116,11.22294 12.3588,12.54017 24.3691,33.10003 25.6491,43.90754 0.5617,4.74285 0.4379,5.21459 -1.3683,5.21459 -6.51,0 -40.1038,36.99824 -70.2153,77.33111 -27.2139,36.45164 -52.7225,77.21128 -62.0629,99.16889 -4.725,11.10756 -9.8201,29.02779 -8.6,30.24781 1.3112,1.31121 30.9705,-12.19993 35.5855,-16.21077 0.825,-0.717 3.975,-2.72318 7,-4.45817 3.025,-1.735 9.325,-5.85345 14,-9.15211 4.675,-3.29866 9.625,-6.75675 11,-7.68465 8.633,-5.82581 54.1734,-41.57337 65.7516,-51.61266 2.5809,-2.23782 13.1085,-11.31085 26.6972,-23.00849 10.7734,-9.27416 37.7148,-33.44932 53.0699,-47.62096 3.8735,-3.575 9.3744,-8.63954 12.224,-11.25454 2.8497,-2.615 9.8366,-11.615 15.5265,-20 44.4501,-65.50544 88.0874,-119.34712 116.5548,-143.81086 11.895,-10.2221 18.745,-11.99305 30.3929,-7.85757 7.8815,2.79825 12.4086,5.47733 21.9344,12.98055 18.3464,14.45086 31.6944,33.50009 34.7663,49.61554 1.2012,6.30171 0.3448,6.94465 -6.6399,4.98485 -8.1395,-2.28383 -12.1801,-2.0832 -17.7563,0.88168 -18.8744,10.03563 -47.7678,42.4111 -83.5614,93.63161 -7.8194,11.1896 -32.9288,49.22618 -39.0342,59.13043 -2.9842,4.84094 -7.8334,12.71594 -10.7759,17.5 -26.8722,43.68948 -58.8804,105.19831 -54.7435,105.19831 3.566,0 29.608,-12.45676 37.3468,-17.8642 1.5107,-1.0556 7.2468,-4.87685 12.7468,-8.49166 26.2007,-17.22013 60.7756,-44.3295 102.8523,-80.64414 8.9735,-7.74467 42.5584,-37.81027 48.6477,-43.55 3.575,-3.36977 13.475,-12.5864 22,-20.48138 8.525,-7.89498 18.65,-17.37969 22.5,-21.07714 3.85,-3.69744 9.346,-8.89812 12.2134,-11.55705 3.9511,-3.66391 6.709,-7.7399 11.3904,-16.83443 3.3974,-6.6 7.8496,-14.925 9.8939,-18.5 2.0442,-3.575 5.6422,-10.1 7.9956,-14.5 2.3533,-4.4 4.8228,-8.675 5.4876,-9.5 0.6648,-0.825 2.7035,-4.2 4.5305,-7.5 6.0749,-10.97289 20.4238,-32.93629 30.2766,-46.34359 12.6253,-17.17984 27.2568,-32.96608 36.5099,-39.39137 4.2937,-2.98146 5.3101,-3.25273 11.7021,-3.1233 11.678,0.23647 24.5239,7.25816 38.8216,21.22027 14.6947,14.3498 25.4612,32.72443 25.985,44.34733 0.2136,4.73933 0.4719,4.6345 -7.9773,3.23796 -5.6716,-0.93745 -12.2008,1.4216 -18.4762,6.67567 -5.5959,4.68518 -17.6082,19.2039 -25.9603,31.37703 -20.1652,29.39081 -60.9771,102.1627 -72.9065,130 -4.2002,9.80112 -5.5834,13.1511 -8.6712,21 -4.0632,10.32807 -10.5697,28.22504 -13.4516,37 -5.2534,15.99581 -12.9624,42.73443 -12.4643,43.23252 1.2082,1.20828 40.0941,-30.2742 61.2458,-49.58539 5.8116,-5.30592 11.436,-10.27579 12.4985,-11.04416 1.0626,-0.76837 12.1616,-12.46837 24.6646,-26 20.1889,-21.85005 27.5227,-29.94097 44.0883,-48.64027 5.3953,-6.09022 32.1587,-39.50329 42.0219,-52.4627 7.8189,-10.27344 30.7917,-38.34215 38.0817,-46.52913 2.475,-2.77954 6.975,-7.94153 10,-11.47107 30.022,-35.02946 83.3467,-86.70142 111.174,-107.72826 11.0476,-8.34781 35.1091,-24.42506 49.826,-33.29233 8.8706,-5.34477 20.4346,-11.20225 34.5,-17.47525 11.3886,-5.07919 35.6201,-14.00171 51.5,-18.96334 4.675,-1.46069 11.2,-3.5028 14.5,-4.53803 16.8844,-5.29672 58.7406,-15.39993 74.5,-17.98273 3.575,-0.58591 10.325,-1.71593 15,-2.51116 25.5289,-4.34256 55.7317,-6.33137 63.4859,-4.18045 3.7543,1.04143 3.6995,1.07396 -13.7405,8.15173 -36.4006,14.77264 -54.9846,23.12097 -89.2454,40.09112 -32.9888,16.34007 -38.4223,19.21317 -62,32.78406 -17.5137,10.08059 -19.698,11.39261 -37.5,22.52521 -27.5404,17.22253 -83.2962,56.74528 -98,69.46767 -1.375,1.18971 -4.75,3.95781 -7.5,6.15132 -15.7182,12.53752 -40.18,33.20937 -54.9399,46.4279 -42.6616,38.20654 -70.7235,65.34014 -165.5491,160.07274 -93.327,93.23556 -99.0163,98.7539 -116.1518,112.66078 -23.9024,19.39886 -40.0473,29.5973 -46.87,29.60697 -4.1998,0.006 -13.937,-3.78555 -21.6065,-8.41314 -7.5571,-4.55974 -21.0156,-17.21461 -23.512,-22.10806 -1.9455,-3.81355 -1.9857,-4.64017 -0.8794,-18.12118 3.3242,-40.50775 21.6778,-102.8673 46.9398,-159.48615 2.7879,-6.24843 5.0689,-11.60098 5.0689,-11.89455 0,-0.29357 -17.6625,17.23097 -39.25,38.94342 -50.9475,51.24236 -71.3196,70.60983 -111.2774,105.78989 -19.2254,16.92654 -50.9126,41.48331 -69.427,53.80411 -25.1198,16.71643 -44.1347,25.14849 -58.5456,25.96167 -12.7265,0.71814 -22.1782,-3.73033 -35.5754,-16.74376 -17.5981,-17.09405 -22.842,-31.14917 -18.3446,-49.16923 2.0371,-8.16233 6.4302,-21.62389 8.1033,-24.83077 0.7174,-1.375 1.3071,-2.88199 1.3105,-3.34887 0.026,-3.52963 25.3115,-53.50729 38.2753,-75.65113 1.3142,-2.24487 -2.9448,1.3412 -11.8765,10 -39.4274,38.22291 -57.7398,55.26245 -85.8926,79.92244 -46.2886,40.54572 -90.1032,69.97594 -115.4901,77.57459 -12.7925,3.82898 -18.0129,3.46192 -28.7397,-2.02083 -21.816,-11.15066 -39.4,-34.96927 -39.223,-53.13011 0.061,-6.22978 5.4157,-29.16963 9.7684,-41.84609 8.6017,-25.0511 27.6765,-62.51322 46.3349,-91 9.0573,-13.82817 9.0475,-13.77756 1.2646,-6.5 -6.7573,6.3185 -42.2878,37.55879 -49.5072,43.52929 -1.9757,1.63389 -11.6507,9.73899 -21.5,18.01133 -47.3154,39.73966 -100.044,80.36117 -134.4079,103.54632 -28.4643,19.20472 -53.64765,31.91459 -63.2311,31.91227 -1.7978,-4.3e-4 -6.19247,-1.3839 -9.76586,-3.07438 z M 1742.0698,462.96191 c -22.159,-4.01397 -42.1149,-18.94874 -52.9284,-39.61099 -10.4161,-19.90298 -10.8759,-46.09317 -1.1697,-66.62343 7.0205,-14.84939 23.5738,-31.0919 36.9357,-36.24209 1.925,-0.74197 3.9848,-1.71425 4.5774,-2.16063 2.1514,-1.62066 15.1342,-4.08336 24.0049,-4.55349 6.9481,-0.36824 11.4023,0.0213 18.9558,1.65784 5.4304,1.17655 10.3434,2.492 10.9177,2.92322 0.5743,0.43121 2.6192,1.39107 4.5442,2.13301 6.5863,2.53852 16.5384,9.7537 23.2131,16.82927 7.7331,8.19746 13.6895,18.31885 17.453,29.65694 2.3665,7.12961 2.6555,9.52318 2.6555,22 0,12.53246 -0.285,14.8695 -2.7185,22.29481 -4.0189,12.26304 -12.5875,25.92119 -20.6031,32.84092 -1.375,1.18701 -3.625,3.14612 -5,4.35356 -1.375,1.20745 -5.165,3.76008 -8.4221,5.67251 -15.4667,9.08119 -33.8901,12.18431 -52.4155,8.82855 z"
     id="path3" />
</svg>
