<?xml version="1.0" encoding="UTF-8" standalone="no"?>
<!-- Created with Inkscape (http://www.inkscape.org/) -->

<svg
   version="1.1"
   id="svg1"
   width="465.66318"
   height="241.66927"
   viewBox="0 0 465.66318 241.66926"
   xmlns="http://www.w3.org/2000/svg"
   xmlns:svg="http://www.w3.org/2000/svg">
  <defs
     id="defs1" />
  <g
     id="g1"
     transform="translate(1.8870056,-2.287267)">
    <path
       style="fill:#000000"
       d="m 115.87433,242.22175 c -2.69258,-3.04269 -16.413945,-27.98535 -19.398036,-35.26169 -3.377523,-8.23567 -2.712807,-8.07465 -18.033252,-4.36824 -9.564973,2.31401 -11.512889,2.49424 -16.675706,1.5429 -3.215112,-0.59245 -7.787664,-2.01728 -10.161227,-3.1663 -8.985986,-4.35004 -18.558554,-16.39657 -23.624668,-29.73028 -2.196856,-5.782 -2.750783,-6.41592 -7.645782,-8.75 -2.902535,-1.38402 -6.09529,-2.51639 -7.095012,-2.51639 -2.439058,0 -4.6091115,2.65437 -6.1315481,7.5 -1.7282319,5.50064 -2.7967943,6.67704 -4.995926,5.5001 -2.09496316,-1.12119 -4.0001785,-6.02888 -4.0001785,-10.30416 0,-2.21668 1.07347954,-4.02679 4.089638,-6.89599 2.3311386,-2.21756 3.8616591,-4.48448 3.559441,-5.27205 -0.2916084,-0.75992 0.084255,-1.89162 0.8352524,-2.5149 1.0395954,-0.86278 2.5690725,-0.61543 6.4090742,1.03649 2.773993,1.19334 5.562892,2.79539 6.197553,3.56011 0.634662,0.76472 1.766931,1.3904 2.516153,1.3904 1.065032,0 1.227997,-1.28421 0.746974,-5.88639 -0.782573,-7.48725 0.246594,-14.3989 2.571582,-17.27014 1.81548,-2.24202 1.816907,-2.24212 4.570483,-0.2931 6.464763,4.57585 8.140526,5.43938 10.565288,5.44437 3.484991,0.007 5.917157,-2.50253 10.807661,-11.15214 2.283335,-4.03843 4.67225,-8.07489 5.3087,-8.9699 0.944984,-1.3289 0.510735,-2.42914 -2.368109,-6 -5.130842,-6.3642 -8.809691,-13.154314 -8.809691,-16.260215 0,-3.726259 2.132468,-7.459628 6.667579,-11.67311 9.895294,-9.193524 17.196624,-12.939374 25.221154,-12.939374 7.123424,0 8.607344,-1.15393 9.547671,-7.42448 0.57755,-3.85138 0.267321,-5.23326 -2.087718,-9.29954 -1.521337,-2.62679 -3.572157,-5.364 -4.557377,-6.08268 -2.188403,-1.59638 -2.28236,-4.34303 -0.280959,-8.21332 2.220091,-4.29318 4.822087,-5.37655 8.430959,-3.51033 3.588901,1.85589 5.969919,1.95757 6.564852,0.28035 0.243865,-0.6875 1.378049,-6.6346 2.520409,-13.21577 3.244986,-18.6944605 6.553666,-22.11852049 16.608176,-17.1873205 3.01586,1.47911 5.36525,3.30388 5.36525,4.16719 0,0.84471 -1.63765,4.7870905 -3.63921,8.7608605 -4.43977,8.81441 -7.36079,17.08715 -7.36079,20.84679 0,1.69477 1.18977,4.16373 3,6.22547 1.65,1.87925 3,3.9777 3,4.66322 0,0.68553 -1.36333,2.87612 -3.02962,4.86799 -1.6663,1.99186 -4.28918,5.15157 -5.82863,7.02157 -2.1343,2.59259 -3.61147,3.42375 -6.220367,3.5 -3.091415,0.0904 -3.451195,0.40801 -3.73054,3.29373 -0.260288,2.688842 0.168377,3.440668 2.711603,4.755822 2.170334,1.122323 3.366504,2.756955 4.248834,5.806274 0.67544,2.334296 2.26771,5.516201 3.53839,7.0709 2.939,3.595913 2.90729,5.167227 -0.16631,8.240826 -1.36215,1.362153 -2.95403,3.368655 -3.53751,4.458893 -1.36773,2.555624 0.40044,3.313454 12.73851,5.459694 8.09702,1.4085 9.56172,1.42784 11.98475,0.15829 2.47467,-1.29661 3.02072,-1.2613 5.27564,0.34114 3.79415,2.6963 9.6881,4.00397 18.01525,3.99698 11.91327,-0.01 22.56075,-3.69953 25.75847,-8.925748 1.60458,-2.622451 0.11036,-2.674328 -2.2395,-0.07776 -4.64743,5.135348 -22.67029,8.386118 -33.73058,6.083958 -6.33366,-1.31833 -11.78839,-5.458948 -11.78839,-8.948431 0,-1.145658 1.26856,-3.502777 2.81902,-5.238043 l 2.81902,-3.155029 -2.81882,-11.610747 c -1.55036,-6.385912 -3.73505,-15.660749 -4.85488,-20.610749 l -2.03606,-9 3.78586,-3.33281 c 15.76541,-13.87878 51.89704,-22.90394 104.78586,-26.174 9.35,-0.5781 49.85,-1.48162 90,-2.00781 40.15,-0.5262 79.975,-1.41308 88.5,-1.97086 18.11676,-1.18534 37.04797,-4.0943705 45.40655,-6.9773005 3.2486,-1.12047 6.29599,-2.03722 6.77198,-2.03722 0.91443,0 0.64455,19.7121605 -1.75929,128.4999995 -0.81426,36.85 -1.69961,67.7169 -1.96745,68.59312 -0.7966,2.60601 -8.49269,7.46609 -15.46084,9.76351 -9.71655,3.20359 -25.55484,5.99002 -43.49095,7.65136 -8.8,0.81511 -17.35,1.69718 -19,1.96016 -1.65,0.26297 -14.25,1.16931 -28,2.01406 -13.75,0.84476 -26.8,1.76185 -29,2.03797 -2.2,0.27613 -13.9,1.17613 -26,2.00001 -12.1,0.82388 -23.125,1.7071 -24.5,1.9627 -1.375,0.25561 -8.125,0.94633 -15,1.53493 -23.10158,1.97785 -70.66131,8.35071 -86.08705,11.53541 -2.86593,0.59168 -2.39383,1.99509 -9.43692,-28.05323 -1.41807,-6.05 -3.88229,-16.4 -5.47603,-23 -2.89754,-11.99928 -6.01026,-25.07271 -10,-42 -10.08265,-42.77772 -8.44918,-38.23178 -13.94312,-38.8037 -3.99725,-0.4161 -26.11953,1.75188 -29.98346,2.93839 -1.00071,0.30729 -0.0748,1.84519 3.10162,5.15169 2.49051,2.59249 7.97465,9.09644 12.18698,14.45322 5.0883,6.47073 10.80026,12.24055 17.01883,17.19121 7.99142,6.36203 10.61915,9.11501 10.61915,11.1253 0,0.21589 -1.38253,1.10746 -3.07229,1.98127 -3.11941,1.61311 -8.92522,11.87241 -8.92692,15.77455 -0.001,3.29874 -4.85429,12.13972 -8.70732,15.8631 -4.1471,4.00755 -12.54466,8.82497 -15.38339,8.82497 -2.91795,0 -3.09653,1.57776 -0.92667,8.18747 2.61076,7.95277 5.4542,13.83175 8.02401,16.59012 2.24482,2.40953 4.74294,1.96049 10.02756,-1.8025 3.47278,-2.47283 4.62403,-2.48076 5.92984,-0.0408 1.71562,3.20567 1.18696,5.86431 -1.83967,9.2517 -2.2923,2.56554 -3.60942,3.19669 -6.5,3.11475 -3.34773,-0.0949 -4.16474,0.59303 -3.69078,3.10765 0.1946,1.03247 -1.88895,2.55339 -3.52938,2.57633 -0.60226,0.008 -1.7919,-0.77219 -2.64365,-1.73469 z m 95.60223,-47.7389 c 7.88455,-1.67048 15.63906,-5.78975 15.63085,-8.30325 -0.008,-2.49917 -1.98478,-9.20785 -2.71296,-9.20785 -0.3435,0 -3.5226,1.15941 -7.06468,2.57646 -15.96027,6.38512 -28.67708,1.43058 -33.22601,-12.94504 -2.4439,-7.72327 0.56002,-17.66153 6.77,-22.39812 2.70765,-2.06522 4.89386,-2.74387 9.85721,-3.05991 7.51704,-0.47865 11.06607,1.22619 11.56349,5.55476 0.30999,2.69755 0.46595,2.76374 5.81853,2.4691 3.025,-0.16652 5.82637,-0.62788 6.22526,-1.02527 0.3989,-0.39738 0.35025,-3.09487 -0.10811,-5.99443 -1.08069,-6.83641 -4.69188,-10.70734 -11.96001,-12.82025 -11.3094,-3.28773 -25.44348,0.0264 -32.99295,7.73609 -13.40213,13.68656 -12.87707,36.69887 1.13196,49.61194 9.36143,8.62907 17.51375,10.67736 31.06742,7.80577 z m 40.02788,-7.40912 c 2.25878,-2.12202 2.57668,-2.16897 4.80414,-0.70948 1.77132,1.16062 3.73375,1.4032 7.62406,0.94245 2.88132,-0.34125 5.43528,-0.93842 5.67547,-1.32705 0.24019,-0.38863 -0.84818,-2.46189 -2.41858,-4.60725 -2.43435,-3.32559 -3.02136,-5.439 -3.98174,-14.33537 -1.19567,-11.07584 -2.74,-14.97376 -7.27031,-18.35038 -5.54984,-4.13652 -17.79099,-3.1383 -23.83008,1.94325 -2.67543,2.25123 -3.05558,3.1644 -2.79547,6.71508 0.3353,4.57688 1.5629,5.26923 7.40092,4.17401 2.47609,-0.46451 3.40014,-1.16391 3.40014,-2.5735 0,-3.5865 9.03632,-3.92745 10.39294,-0.39213 0.86653,2.25814 -0.12267,3.41839 -2.91444,3.41839 -4.32778,0 -13.32259,4.026 -15.93729,7.13339 -3.44585,4.09517 -4.11891,7.47103 -2.4463,12.27 2.11947,6.08107 6.851,8.88234 14.14139,8.37229 4.21584,-0.29494 6.37745,-1.00364 8.15515,-2.6737 z m -10.78446,-8.68377 c -1.54646,-4.03 0.83581,-6.30286 8.29037,-7.90959 l 3.39737,-0.73226 -0.65924,3.2962 c -0.36258,1.81291 -1.39864,4.11323 -2.30235,5.11182 -2.07027,2.28763 -7.87831,2.44326 -8.72615,0.23383 z m 52.60619,4.5823 c 2.58753,-1.91304 3.32798,-2.04885 5.32978,-0.97752 2.25439,1.20652 11.80296,0.96442 13.0995,-0.33212 0.32917,-0.32917 -0.80572,-2.50793 -2.52198,-4.84168 -1.89374,-2.57509 -3.118,-5.4434 -3.11418,-7.29619 0.006,-3.08509 -2.69567,-30.31011 -3.6018,-36.29085 -0.28814,-1.90179 -1.34811,-3.69679 -2.56878,-4.35007 -2.32992,-1.24693 -12.83572,-0.33394 -12.83572,1.11547 0,0.486 1.125,2.54141 2.5,4.56759 1.375,2.02617 2.5,5.10498 2.5,6.8418 v 3.15785 l -6.25,-0.35169 c -7.24606,-0.40773 -10.73704,1.25121 -15.34442,7.29181 -3.29952,4.32589 -4.37443,13.15335 -2.46509,20.24409 1.33155,4.94501 6.22268,10.9224 10.54092,12.88192 4.07428,1.84882 11.04849,1.06276 14.73177,-1.66041 z m -9.21318,-8.28631 c -2.94979,-1.46548 -5.99625,-7.05915 -5.99845,-11.01386 -0.005,-9.00444 9.35842,-13.15155 14.39812,-6.37701 2.89851,3.89628 2.95597,12.7983 0.10033,15.54439 -2.79993,2.69251 -5.58103,3.29665 -8.5,1.84648 z m 56.5,3.83199 c 7.70023,-3.74889 9.5,-5.71868 9.5,-10.39747 0,-4.6571 -1.31803,-5.97355 -3.64798,-3.6436 -4.63142,4.63142 -12.99526,6.9844 -18.96624,5.33573 -3.1665,-0.87431 -7.32328,-5.23668 -6.12843,-6.43153 0.29054,-0.29054 5.189,-0.97555 10.88545,-1.52224 16.12913,-1.54791 15.22812,-1.10746 14.5187,-7.09739 -1.23977,-10.46791 -8.08917,-16.7797 -18.21572,-16.78595 -13.47097,-0.008 -22.32983,11.60388 -19.44688,25.49098 3.04291,14.65759 17.81375,21.71521 31.5011,15.05147 z m -19.56828,-26.41861 c 1.90499,-3.55951 5.84328,-5.59462 8.79219,-4.54337 2.51237,0.89563 5.16334,3.87696 4.24072,4.7692 -0.25555,0.24713 -3.54869,0.77612 -7.31809,1.17554 -6.77407,0.71779 -6.84027,0.70156 -5.71482,-1.40137 z m 48.60481,23.66923 c 0.33731,-0.33731 -0.6142,-2.46816 -2.11447,-4.73522 -2.50522,-3.78565 -2.90846,-5.84632 -4.94269,-25.2585 -2.58533,-24.67111 -2.41319,-24.33275 -11.89837,-23.38798 -3.25545,0.32425 -6.11557,0.78613 -6.35583,1.02638 -0.24025,0.24026 0.9182,2.37671 2.57434,4.74767 2.56759,3.67581 3.10551,5.56298 3.65163,12.81084 1.1904,15.7984 3.60987,33.36859 4.79092,34.79166 0.85598,1.03139 2.86896,1.30691 7.42768,1.01663 3.43942,-0.219 6.52947,-0.67417 6.86679,-1.01148 z m 19.0901,-1.71465 c 2.26965,-1.03065 4.45182,-2.40008 4.84928,-3.04318 0.52281,-0.84593 1.24357,-0.69784 2.60644,0.53555 1.52702,1.38193 2.9663,1.57758 7.59949,1.03304 3.14363,-0.36947 5.92699,-0.88307 6.18525,-1.14133 0.25826,-0.25826 -0.88346,-2.38131 -2.53716,-4.7179 -2.58904,-3.65816 -3.15787,-5.67664 -4.09467,-14.52982 -1.69244,-15.99437 -5.90394,-20.83375 -17.9106,-20.58083 -10.74606,0.22637 -17.6944,5.76869 -15.94926,12.72188 0.57454,2.28915 1.18145,2.64043 4.56186,2.64043 4.6683,0 7.26578,-0.86246 6.47091,-2.14859 -1.97009,-3.18766 6.0784,-5.22198 9.0204,-2.27998 2.63281,2.6328 1.8415,4.12901 -2.49107,4.71013 -5.65186,0.75807 -14.38264,5.23463 -16.5659,8.49387 -2.29625,3.42793 -2.27123,10.20262 0.0508,13.74645 1.8225,2.78148 8.679,6.4342 12.07762,6.4342 1.1,0 3.85698,-0.84326 6.12663,-1.87392 z m -7.0552,-9.65359 c -0.86429,-0.86428 -1.57143,-2.14454 -1.57143,-2.84501 0,-2.24522 3.72461,-4.73694 7.92238,-5.29998 3.62473,-0.48617 4.07762,-0.31868 4.07762,1.50803 0,2.72051 -4.69166,8.20839 -7.01747,8.20839 -1.01182,0 -2.54682,-0.70714 -3.4111,-1.57143 z m 56.56605,4.04113 c 3.96778,-2.00367 8.87577,-6.39806 8.83092,-7.90679 -0.0174,-0.5846 -1.18984,-2.38067 -2.60546,-3.99127 -2.13627,-2.43051 -2.85345,-2.72558 -4.2184,-1.73559 -8.99445,6.52366 -13.5556,6.95289 -18.74454,1.76395 -2.86444,-2.86444 -3.4,-4.11249 -3.4,-7.92327 0,-3.36445 0.63973,-5.28355 2.49705,-7.49086 4.05859,-4.82335 10.69358,-5.38892 11.83891,-1.00914 0.49585,1.89611 1.03207,2.04467 5.27895,1.46257 2.59986,-0.35635 4.94096,-0.86183 5.20243,-1.1233 0.26146,-0.26147 0.072,-2.3509 -0.42098,-4.64317 -1.22256,-5.68451 -4.70006,-8.12251 -12.37786,-8.67787 -14.18531,-1.02608 -25.30796,10.26978 -23.67647,24.04516 1.05659,8.92122 6.92441,16.08284 15.42201,18.82241 3.86133,1.24487 12.39875,0.41434 16.37344,-1.59283 z M 108.97213,144.42006 c 4.17947,-2.44657 8.39595,-4.44831 9.36995,-4.44831 2.50536,0 2.19643,-1.48509 -0.57126,-2.74613 -4.47233,-2.03773 -14.51498,-12.3262 -17.10499,-17.52369 -2.471377,-4.9594 -2.821481,-5.23282 -8.316412,-6.49474 -11.756362,-2.69988 -10.602602,-2.89957 -14.010007,2.42481 -4.228154,6.60688 -6.599109,12.46851 -8.63166,21.33975 -3.087016,13.47354 -3.74411,12.0161 5.143826,11.40905 4.268779,-0.29155 9.786417,-0.081 12.261417,0.46799 7.584143,1.68215 13.450186,0.49367 21.859136,-4.42873 z m 222.83271,-13.07089 c 2.09448,-0.86302 4.80371,-2.48851 6.0205,-3.61222 l 2.21235,-2.04309 -3.1522,-4.38937 -3.15221,-4.38937 -2.27418,2.77831 c -1.2508,1.52808 -2.29037,3.05462 -2.31015,3.39232 -0.0818,1.3967 -7.80595,5.79583 -11.28596,6.4277 -4.14172,0.75201 -5.04613,3.04269 -1.5,3.79919 3.50863,0.7485 11.24855,-0.23565 15.44185,-1.96347 z m -71.33142,-10.01334 c 4.49182,-0.61568 4.63957,-0.74492 4.63957,-4.05845 0,-3.0523 -1.15764,-12.52409 -2.53771,-20.763466 -0.42958,-2.564698 0.93561,-1.481235 10.27114,8.151596 13.87025,14.31195 18.27543,16.74859 30.34058,16.78229 7.82907,0.0219 9.002,-0.24042 13.5,-3.01883 6.93108,-4.28132 6.54675,-5.89205 -1.32917,-5.57062 -9.27528,0.37855 -14.76012,-2.51608 -25.77522,-13.602858 -4.93329,-4.9654 -10.91569,-10.41095 -13.29422,-12.101222 l -4.3246,-3.073222 4.8246,-2.465355 c 6.06342,-3.098388 10.04311,-7.367218 14.58433,-15.643942 3.84286,-7.0039 6.92821,-10.37224 10.49027,-11.45245 1.2375,-0.37528 2.25,-1.0597 2.25,-1.52094 0,-1.17089 -9.95769,-18.19669 -11.71275,-20.02661 -1.27064,-1.32485 -1.77561,-1.10109 -4.32462,1.91633 -3.56533,4.22049 -6.83788,11.08734 -10.37297,21.76579 -1.48978,4.50017 -4.02588,10.00045 -5.63577,12.22284 -2.83536,3.914103 -10.40814,8.844838 -11.26932,7.337602 -0.23335,-0.408409 -0.72537,-5.242561 -1.09337,-10.742562 -1.06271,-15.88288 -1.67335,-19.5 -3.29196,-19.5 -2.29935,0 -10.11187,4.94634 -12.39308,7.84643 -2.14531,2.72732 -2.18371,5.49762 -0.27376,19.751628 l 0.54912,4.098058 -6.1971,0.647725 c -6.0382,0.631117 -13.44119,3.798147 -14.33739,6.133592 -0.52794,1.37581 5.40544,12.778635 6.85297,13.170094 0.55,0.148738 2.21771,-1.489318 3.70602,-3.640125 2.84299,-4.108484 8.0735,-7.497852 10.27003,-6.654966 0.8993,0.345096 1.49215,3.960884 1.93841,11.822355 0.35359,6.228868 0.89917,13.912708 1.2124,17.075208 l 0.56951,5.75 h 3.76225 c 2.06923,0 5.85004,-0.28617 8.40181,-0.63592 z M 70.32622,105.95578 c 7.788405,-4.21838 8.369587,-5.09267 6.82414,-10.26576 -1.53399,-5.13475 -4.804778,-11.718268 -5.821807,-11.718268 -4.068233,0 -18.215559,7.711293 -18.215559,9.928767 0,3.788572 7.805144,15.071231 10.42601,15.071231 0.670355,0 3.724602,-1.35719 6.787216,-3.01597 z m 24.753388,0.12909 c 1.699573,-0.47373 2.658863,-1.62752 3.084841,-3.71033 0.340026,-1.66253 1.81755,-4.787751 3.283391,-6.944924 3.42064,-5.033938 3.61345,-8.726124 0.41515,-7.949888 -1.956884,0.474942 -6.187886,-0.409309 -14.450507,-3.020058 -2.160098,-0.682528 -2.189679,-0.566098 -1.610718,6.33974 0.510953,6.094651 0.296096,7.532816 -1.607349,10.75891 -1.738361,2.94631 -1.92405,3.89708 -0.889281,4.55334 1.5343,0.97308 8.242025,0.95781 11.774473,-0.0268 z m 236.846102,-3.41734 c 5.59602,-3.467898 5.69213,-3.606058 5.98954,-8.610116 0.34696,-5.837749 -0.55208,-6.31541 -4.93896,-2.624091 -7.18959,6.049645 -19.37831,5.979952 -23.38413,-0.133707 -1.95919,-2.990105 -2.09429,-2.942316 13.02083,-4.606029 l 12,-1.320834 -0.1162,-5.703676 c -0.14109,-6.925271 -3.32414,-12.171446 -9.48615,-15.634696 -5.80371,-3.26186 -14.22504,-2.61585 -20.15283,1.54596 -11.56432,8.119124 -12.52248,25.678733 -1.94914,35.720489 7.17771,6.81685 19.30093,7.38785 29.01704,1.3667 z M 308.11299,78.05714 c 0,-0.646963 1.10455,-2.280843 2.45455,-3.630843 2.93707,-2.937076 7.53548,-3.228034 9.89046,-0.625804 2.52608,2.791286 2.00024,4.17009 -1.59501,4.182265 -1.7875,0.0061 -4.9375,0.289932 -7,0.630842 -2.55931,0.423028 -3.75,0.246343 -3.75,-0.55646 z m 44.80852,24.26902 c 2.30447,-0.61719 2.30731,-0.64041 1.62147,-13.256873 -0.68644,-12.627619 -0.68476,-12.641306 1.93584,-15.755717 1.61544,-1.919834 3.9694,-3.369727 6.12853,-3.774779 3.43314,-0.64406 3.50564,-0.7576 3.50564,-5.48991 0,-2.92909 -0.55309,-5.29127 -1.40435,-5.99774 -2.03386,-1.68796 -6.1968,-0.32439 -9.69765,3.17646 l -3.01794,3.01793 -1.49673,-2.13689 c -1.17022,-1.67072 -2.5206,-2.13391 -6.19003,-2.12323 -5.59927,0.0163 -9.1933,0.86451 -9.1933,2.16969 0,0.52255 1.21203,2.53914 2.69339,4.48131 2.4387,3.197295 2.85395,5.058616 4.39125,19.68328 0.93382,8.883634 1.7468,16.264559 1.80661,16.402059 0.21536,0.49508 6.659,0.20923 8.91727,-0.39559 z M 165.99415,98.863335 c 3.04015,-1.059803 6.11884,-5.18071 6.11884,-8.190233 0,-0.768884 -1.87562,-2.134735 -4.16805,-3.035227 -3.9616,-1.55616 -4.08543,-1.728552 -2.5,-3.48043 2.31988,-2.563437 2.15615,-2.95491 -1.95407,-4.672273 -5.65198,-2.361546 -9.7079,-1.941692 -13.25538,1.372148 -1.69896,1.587062 -4.72181,3.191882 -6.71745,3.566266 -3.33501,0.625652 -10.38697,6.624029 -10.40027,8.84644 -0.003,0.439051 1.45326,1.411335 3.23531,2.160631 3.24137,1.362893 5.25556,1.15209 4.2675,-0.446631 -0.28878,-0.467242 0.79333,-1.139093 2.40467,-1.493003 3.89024,-0.854439 8.45246,-5.126448 7.66532,-7.177708 -0.47821,-1.246183 -0.12586,-1.453597 1.65756,-0.975736 1.24567,0.333775 2.89488,0.613008 3.6649,0.620518 0.77002,0.0075 -0.46748,1.366478 -2.75,3.019927 -4.45457,3.226871 -5.0548,5.256989 -2.59334,8.771222 1.27532,1.820766 2.51365,2.222506 6.85078,2.222506 2.91174,0 6.7249,-0.49879 8.47368,-1.108417 z m -20.15199,-4.49575 c -0.3323,-0.332291 -1.1948,-0.367818 -1.91667,-0.07895 -0.79773,0.319226 -0.56078,0.556183 0.60417,0.604167 1.05416,0.04342 1.64479,-0.192928 1.3125,-0.52522 z M 103.33742,61.221751 c 3.51143,-4.00484 4.97755,-8.41746 4.29935,-12.93996 -0.37038,-2.46989 -1.31256,-4.67549 -2.13149,-4.98975 -1.92037,-0.73691 -9.136029,2.06839 -12.719674,4.94517 -3.561169,2.85873 -2.996187,6.0649 1.969794,11.17821 3.819537,3.93285 6.266,4.44778 8.58202,1.80633 z m 1.51447,-24.5 c 0.54108,-0.6875 1.98632,-4.625 3.21163,-8.75 1.22531,-4.125 3.76271,-9.82626 5.63866,-12.66947 1.87594,-2.8432 3.41081,-5.6717005 3.41081,-6.2855305 0,-1.56231 -8.89735,-5.21236 -11.04447,-4.53088 -2.3957,0.76036 -4.64459,6.7566605 -6.46921,17.2490705 -0.835625,4.80525 -1.752864,9.47909 -2.038309,10.38631 -0.320398,1.01833 0.502817,2.45326 2.151361,3.75 3.099668,2.4382 3.798898,2.55391 5.139528,0.8505 z"
       id="path2" />
  </g>
</svg>
