<?xml version="1.0" encoding="UTF-8" standalone="no"?>
<!-- Created with Inkscape (http://www.inkscape.org/) -->

<svg
   version="1.1"
   id="svg1"
   width="273.67831"
   height="66.133667"
   viewBox="0 0 273.67831 66.133667"
   xmlns="http://www.w3.org/2000/svg"
   xmlns:svg="http://www.w3.org/2000/svg">
  <defs
     id="defs1" />
  <g
     id="g1"
     transform="translate(1.4664999,1.4664999)">
    <path
       id="path1"
       d="m 17.965,45.23 c 0,-0.132 -0.086,-0.238 -0.227,-0.238 -0.09,0 -0.148,0.035 -0.211,0.121 -0.465,0.649 -1.172,1.008 -2.066,1.008 -1.496,0 -2.523,-1.059 -2.523,-2.601 0,-1.54 1.027,-2.598 2.523,-2.598 0.867,0 1.566,0.348 2.016,0.933 0.043,0.063 0.113,0.106 0.199,0.106 0.133,0 0.23,-0.106 0.23,-0.234 0,-0.063 -0.019,-0.114 -0.054,-0.157 -0.536,-0.683 -1.368,-1.086 -2.391,-1.086 -1.785,0 -3.012,1.235 -3.012,3.036 0,1.804 1.227,3.039 3.012,3.039 1.105,0 1.98,-0.473 2.469,-1.192 0.027,-0.043 0.035,-0.086 0.035,-0.137 z m 4.75,-1.203 v -0.015 c 1.109,-0.055 1.715,-0.641 1.715,-1.715 0,-1.113 -0.657,-1.711 -1.875,-1.711 h -2.758 c -0.156,0 -0.262,0.098 -0.262,0.266 v 5.394 c 0,0.164 0.086,0.262 0.246,0.262 0.149,0 0.235,-0.098 0.235,-0.262 v -2.191 h 2.129 l 1.882,2.347 c 0.051,0.071 0.121,0.106 0.2,0.106 0.148,0 0.246,-0.106 0.246,-0.246 0,-0.063 -0.028,-0.121 -0.071,-0.184 z m -2.699,-0.41 v -2.59 h 2.504 c 0.937,0 1.418,0.446 1.418,1.293 0,0.852 -0.481,1.297 -1.418,1.297 z m 6.586,2.399 v -2.301 h 3.406 c 0.148,0 0.238,-0.078 0.238,-0.219 0,-0.133 -0.09,-0.219 -0.238,-0.219 h -3.406 v -2.25 h 4.046 c 0.149,0 0.247,-0.082 0.247,-0.222 0,-0.137 -0.098,-0.219 -0.247,-0.219 h -4.265 c -0.156,0 -0.262,0.098 -0.262,0.266 v 5.339 c 0,0.168 0.106,0.262 0.262,0.262 h 4.265 c 0.149,0 0.247,-0.078 0.247,-0.219 0,-0.14 -0.098,-0.218 -0.247,-0.218 z m 2.925,-7.278 c 0,-0.101 -0.089,-0.183 -0.183,-0.183 -0.071,0 -0.125,0.027 -0.16,0.062 l -1.032,1.035 c -0.05,0.051 -0.07,0.094 -0.07,0.157 0,0.097 0.063,0.175 0.168,0.175 0.043,0 0.086,-0.007 0.129,-0.054 l 1.07,-1.024 c 0.051,-0.051 0.078,-0.097 0.078,-0.168 z m 5.465,1.746 c -1.68,0 -2.617,0.946 -2.617,2.711 v 3.051 c 0,0.164 0.086,0.262 0.234,0.262 0.149,0 0.239,-0.098 0.239,-0.262 v -1.691 h 4.265 v 1.691 c 0,0.164 0.086,0.262 0.235,0.262 0.148,0 0.246,-0.098 0.246,-0.262 v -3.051 c 0,-1.765 -0.938,-2.711 -2.602,-2.711 z m 2.121,3.633 h -4.265 v -0.929 c 0,-1.504 0.754,-2.266 2.136,-2.266 1.383,0 2.129,0.762 2.129,2.266 z m 1.707,-3.531 c -0.148,0 -0.234,0.082 -0.234,0.219 0,0.14 0.086,0.222 0.234,0.222 h 2.215 v 5.219 c 0,0.164 0.078,0.262 0.246,0.262 0.149,0 0.235,-0.098 0.235,-0.262 v -5.219 h 2.207 c 0.148,0 0.238,-0.082 0.238,-0.222 0,-0.137 -0.09,-0.219 -0.238,-0.219 z m 6.938,5.43 v -2.301 h 3.406 c 0.148,0 0.234,-0.078 0.234,-0.219 0,-0.133 -0.086,-0.219 -0.234,-0.219 h -3.406 v -2.25 h 4.043 c 0.152,0 0.246,-0.082 0.246,-0.222 0,-0.137 -0.094,-0.219 -0.246,-0.219 h -4.262 c -0.16,0 -0.266,0.098 -0.266,0.266 v 5.339 c 0,0.168 0.106,0.262 0.266,0.262 h 4.262 c 0.152,0 0.246,-0.078 0.246,-0.219 0,-0.14 -0.094,-0.218 -0.246,-0.218 z m 10.515,-5.481 c -0.164,0 -0.242,0.098 -0.242,0.262 v 3.137 c 0,1.453 -0.691,2.187 -1.996,2.187 -1.324,0 -2.023,-0.734 -2.023,-2.187 v -3.137 c 0,-0.164 -0.09,-0.262 -0.246,-0.262 -0.149,0 -0.239,0.098 -0.239,0.262 v 3.144 c 0,1.727 0.879,2.618 2.508,2.618 1.602,0 2.469,-0.891 2.469,-2.618 v -3.144 c 0,-0.164 -0.082,-0.262 -0.231,-0.262 z m 5.204,3.492 v -0.015 c 1.113,-0.055 1.718,-0.641 1.718,-1.715 0,-1.113 -0.656,-1.711 -1.875,-1.711 h -2.758 c -0.16,0 -0.261,0.098 -0.261,0.266 v 5.394 c 0,0.164 0.086,0.262 0.242,0.262 0.148,0 0.238,-0.098 0.238,-0.262 v -2.191 h 2.129 l 1.883,2.347 c 0.051,0.071 0.121,0.106 0.199,0.106 0.149,0 0.246,-0.106 0.246,-0.246 0,-0.063 -0.027,-0.121 -0.07,-0.184 z m -2.696,-0.41 v -2.59 h 2.504 c 0.938,0 1.418,0.446 1.418,1.293 0,0.852 -0.48,1.297 -1.418,1.297 z m 9.293,2.399 v -2.301 h 3.406 c 0.149,0 0.235,-0.078 0.235,-0.219 0,-0.133 -0.086,-0.219 -0.235,-0.219 h -3.406 v -2.25 h 4.047 c 0.149,0 0.242,-0.082 0.242,-0.222 0,-0.137 -0.093,-0.219 -0.242,-0.219 h -4.266 c -0.156,0 -0.261,0.098 -0.261,0.266 v 5.339 c 0,0.168 0.105,0.262 0.261,0.262 h 4.266 c 0.149,0 0.242,-0.078 0.242,-0.219 0,-0.14 -0.093,-0.218 -0.242,-0.218 z m 5.528,-5.43 c -0.149,0 -0.239,0.082 -0.239,0.219 0,0.14 0.09,0.222 0.239,0.222 h 2.214 v 5.219 c 0,0.164 0.079,0.262 0.246,0.262 0.149,0 0.235,-0.098 0.235,-0.262 v -5.219 h 2.207 c 0.148,0 0.238,-0.082 0.238,-0.222 0,-0.137 -0.09,-0.219 -0.238,-0.219 z m 9.425,0 c -0.16,0 -0.265,0.098 -0.265,0.266 v 5.394 c 0,0.164 0.09,0.262 0.246,0.262 0.148,0 0.238,-0.098 0.238,-0.262 v -2.41 h 3.324 c 0.153,0 0.246,-0.078 0.246,-0.219 0,-0.133 -0.093,-0.219 -0.246,-0.219 h -3.324 v -2.371 h 3.957 c 0.149,0 0.246,-0.082 0.246,-0.222 0,-0.137 -0.097,-0.219 -0.246,-0.219 z m 8.274,-0.102 c -1.68,0 -2.617,0.946 -2.617,2.711 v 3.051 c 0,0.164 0.086,0.262 0.238,0.262 0.148,0 0.234,-0.098 0.234,-0.262 v -1.691 h 4.266 v 1.691 c 0,0.164 0.086,0.262 0.234,0.262 0.149,0 0.246,-0.098 0.246,-0.262 v -3.051 c 0,-1.765 -0.937,-2.711 -2.601,-2.711 z m 2.121,3.633 h -4.266 v -0.929 c 0,-1.504 0.754,-2.266 2.137,-2.266 1.383,0 2.129,0.762 2.129,2.266 z m 6.262,-0.656 c 0.593,-0.211 0.902,-0.656 0.902,-1.34 0,-1.035 -0.613,-1.535 -1.856,-1.535 h -2.769 c -0.156,0 -0.262,0.098 -0.262,0.266 v 5.339 c 0,0.168 0.106,0.262 0.262,0.262 h 2.934 c 1.242,0 1.867,-0.515 1.867,-1.558 0,-0.762 -0.371,-1.235 -1.078,-1.418 z M 96.18,43.277 v -2.25 h 2.55 c 0.911,0 1.383,0.375 1.383,1.129 0,0.75 -0.472,1.121 -1.383,1.121 z m 0,2.739 v -2.301 h 2.699 c 0.926,0 1.391,0.375 1.391,1.156 0,0.77 -0.465,1.145 -1.391,1.145 z m 9.3,-1.989 v -0.015 c 1.114,-0.055 1.719,-0.641 1.719,-1.715 0,-1.113 -0.66,-1.711 -1.875,-1.711 h -2.758 c -0.16,0 -0.261,0.098 -0.261,0.266 v 5.394 c 0,0.164 0.086,0.262 0.242,0.262 0.148,0 0.238,-0.098 0.238,-0.262 v -2.191 h 2.129 l 1.883,2.347 c 0.051,0.071 0.121,0.106 0.199,0.106 0.149,0 0.246,-0.106 0.246,-0.246 0,-0.063 -0.027,-0.121 -0.07,-0.184 z m -2.695,-0.41 v -2.59 h 2.504 c 0.938,0 1.418,0.446 1.418,1.293 0,0.852 -0.48,1.297 -1.418,1.297 z m 6.348,-3.082 c -0.156,0 -0.242,0.098 -0.242,0.262 v 5.449 c 0,0.164 0.086,0.262 0.242,0.262 0.152,0 0.238,-0.098 0.238,-0.262 v -5.449 c 0,-0.164 -0.086,-0.262 -0.238,-0.262 z m 7.418,4.695 c 0,-0.132 -0.086,-0.238 -0.227,-0.238 -0.086,0 -0.148,0.035 -0.211,0.121 -0.461,0.649 -1.172,1.008 -2.066,1.008 -1.496,0 -2.52,-1.059 -2.52,-2.601 0,-1.54 1.024,-2.598 2.52,-2.598 0.867,0 1.57,0.348 2.015,0.933 0.043,0.063 0.114,0.106 0.2,0.106 0.133,0 0.23,-0.106 0.23,-0.234 0,-0.063 -0.019,-0.114 -0.054,-0.157 -0.532,-0.683 -1.364,-1.086 -2.391,-1.086 -1.785,0 -3.012,1.235 -3.012,3.036 0,1.804 1.227,3.039 3.012,3.039 1.105,0 1.98,-0.473 2.469,-1.192 0.027,-0.043 0.035,-0.086 0.035,-0.137 z m 4.109,-4.746 c -1.68,0 -2.617,0.946 -2.617,2.711 v 3.051 c 0,0.164 0.086,0.262 0.234,0.262 0.153,0 0.239,-0.098 0.239,-0.262 v -1.691 h 4.265 v 1.691 c 0,0.164 0.086,0.262 0.235,0.262 0.148,0 0.246,-0.098 0.246,-0.262 v -3.051 c 0,-1.765 -0.938,-2.711 -2.602,-2.711 z m 2.121,3.633 h -4.265 v -0.929 c 0,-1.504 0.754,-2.266 2.136,-2.266 1.383,0 2.129,0.762 2.129,2.266 z m 7.153,-3.582 c -0.149,0 -0.235,0.098 -0.235,0.262 v 4.871 h -0.019 l -4.078,-4.992 c -0.079,-0.106 -0.168,-0.141 -0.274,-0.141 -0.176,0 -0.269,0.113 -0.269,0.297 v 5.414 c 0,0.164 0.086,0.262 0.234,0.262 0.148,0 0.238,-0.098 0.238,-0.262 v -4.898 h 0.016 l 4.09,5.019 c 0.09,0.106 0.168,0.141 0.261,0.141 0.176,0 0.274,-0.113 0.274,-0.289 v -5.422 c 0,-0.164 -0.086,-0.262 -0.238,-0.262 z m 1.789,0.051 c -0.149,0 -0.235,0.082 -0.235,0.219 0,0.14 0.086,0.222 0.235,0.222 h 2.215 v 5.219 c 0,0.164 0.078,0.262 0.246,0.262 0.148,0 0.238,-0.098 0.238,-0.262 v -5.219 h 2.203 c 0.152,0 0.238,-0.082 0.238,-0.222 0,-0.137 -0.086,-0.219 -0.238,-0.219 z m 9.425,0 c -0.16,0 -0.261,0.098 -0.261,0.266 v 5.394 c 0,0.164 0.086,0.262 0.242,0.262 0.148,0 0.238,-0.098 0.238,-0.262 v -2.41 h 3.328 c 0.149,0 0.243,-0.078 0.243,-0.219 0,-0.133 -0.094,-0.219 -0.243,-0.219 h -3.328 v -2.371 h 3.957 c 0.149,0 0.246,-0.082 0.246,-0.222 0,-0.137 -0.097,-0.219 -0.246,-0.219 z m 9.012,3.441 v -0.015 c 1.113,-0.055 1.715,-0.641 1.715,-1.715 0,-1.113 -0.656,-1.711 -1.871,-1.711 h -2.762 c -0.156,0 -0.262,0.098 -0.262,0.266 v 5.394 c 0,0.164 0.09,0.262 0.247,0.262 0.148,0 0.234,-0.098 0.234,-0.262 v -2.191 h 2.129 l 1.883,2.347 c 0.054,0.071 0.121,0.106 0.203,0.106 0.148,0 0.242,-0.106 0.242,-0.246 0,-0.063 -0.023,-0.121 -0.07,-0.184 z m -2.699,-0.41 v -2.59 h 2.508 c 0.933,0 1.418,0.446 1.418,1.293 0,0.852 -0.485,1.297 -1.418,1.297 z m 8.629,-3.133 c -1.684,0 -2.617,0.946 -2.617,2.711 v 3.051 c 0,0.164 0.086,0.262 0.234,0.262 0.148,0 0.238,-0.098 0.238,-0.262 v -1.691 h 4.262 v 1.691 c 0,0.164 0.09,0.262 0.238,0.262 0.149,0 0.246,-0.098 0.246,-0.262 v -3.051 c 0,-1.765 -0.937,-2.711 -2.601,-2.711 z m 2.117,3.633 h -4.262 v -0.929 c 0,-1.504 0.75,-2.266 2.137,-2.266 1.383,0 2.125,0.762 2.125,2.266 z m 7.156,-3.582 c -0.148,0 -0.234,0.098 -0.234,0.262 v 4.871 h -0.02 l -4.082,-4.992 c -0.078,-0.106 -0.164,-0.141 -0.269,-0.141 -0.176,0 -0.274,0.113 -0.274,0.297 v 5.414 c 0,0.164 0.09,0.262 0.239,0.262 0.148,0 0.238,-0.098 0.238,-0.262 v -4.898 h 0.016 l 4.089,5.019 c 0.086,0.106 0.164,0.141 0.262,0.141 0.176,0 0.274,-0.113 0.274,-0.289 v -5.422 c 0,-0.164 -0.09,-0.262 -0.239,-0.262 z m 7.192,4.457 c -0.09,0 -0.149,0.035 -0.211,0.121 -0.465,0.649 -1.172,1.008 -2.067,1.008 -1.496,0 -2.523,-1.059 -2.523,-2.601 0,-1.54 1.027,-2.598 2.523,-2.598 0.868,0 1.567,0.348 2.016,0.933 0.043,0.063 0.113,0.106 0.199,0.106 0.133,0 0.227,-0.106 0.227,-0.234 0,-0.063 -0.016,-0.114 -0.051,-0.157 -0.535,-0.683 -1.367,-1.086 -2.391,-1.086 -1.785,0 -3.011,1.235 -3.011,3.036 0,1.726 1.121,2.925 2.773,3.031 l -0.078,0.551 c -0.023,0.14 0.062,0.195 0.168,0.195 0.387,0 0.508,0.086 0.508,0.277 0,0.184 -0.157,0.297 -0.438,0.297 -0.238,0 -0.367,-0.051 -0.527,-0.164 -0.035,-0.027 -0.059,-0.043 -0.113,-0.043 -0.079,0 -0.149,0.059 -0.149,0.156 0,0.035 0.008,0.078 0.055,0.121 0.172,0.168 0.418,0.247 0.75,0.247 0.492,0 0.797,-0.247 0.797,-0.614 0,-0.359 -0.254,-0.566 -0.707,-0.566 l 0.05,-0.449 c 1.071,-0.024 1.911,-0.489 2.391,-1.192 0.027,-0.043 0.035,-0.086 0.035,-0.137 0,-0.132 -0.086,-0.238 -0.226,-0.238 z m 4.336,-4.508 c -1.684,0 -2.618,0.946 -2.618,2.711 v 3.051 c 0,0.164 0.086,0.262 0.235,0.262 0.148,0 0.238,-0.098 0.238,-0.262 v -1.691 h 4.262 v 1.691 c 0,0.164 0.09,0.262 0.238,0.262 0.149,0 0.246,-0.098 0.246,-0.262 v -3.051 c 0,-1.765 -0.937,-2.711 -2.601,-2.711 z m 2.117,3.633 h -4.262 v -0.929 c 0,-1.504 0.75,-2.266 2.137,-2.266 1.383,0 2.125,0.762 2.125,2.266 z m 2.523,-3.582 c -0.156,0 -0.242,0.098 -0.242,0.262 v 5.449 c 0,0.164 0.086,0.262 0.242,0.262 0.149,0 0.239,-0.098 0.239,-0.262 v -5.449 c 0,-0.164 -0.09,-0.262 -0.239,-0.262 z m 2.41,1.727 c 0,-0.809 0.762,-1.34 1.918,-1.34 0.84,0 1.532,0.254 1.918,0.707 0.043,0.055 0.106,0.09 0.192,0.09 0.133,0 0.219,-0.098 0.219,-0.231 0,-0.078 -0.016,-0.129 -0.059,-0.183 -0.422,-0.524 -1.234,-0.821 -2.242,-0.821 -1.465,0 -2.426,0.7 -2.426,1.778 0,1.015 0.621,1.418 2.426,1.441 1.558,0.027 2.074,0.336 2.074,1.078 0,0.824 -0.754,1.34 -1.961,1.34 -1.051,0 -1.832,-0.297 -2.207,-0.832 -0.051,-0.07 -0.105,-0.094 -0.184,-0.094 -0.14,0 -0.238,0.094 -0.238,0.227 0,0.062 0.02,0.113 0.047,0.156 0.418,0.633 1.328,0.981 2.555,0.981 1.531,0 2.468,-0.672 2.468,-1.778 0,-1.086 -0.636,-1.539 -2.531,-1.558 -1.504,-0.016 -1.969,-0.289 -1.969,-0.961 z"
       style="fill:#ffffff;fill-opacity:1;fill-rule:nonzero;stroke:#ffffff;stroke-width:0.62475;stroke-dasharray:none;stroke-opacity:1"
       transform="scale(1.3333333)" />
    <path
       id="path2"
       d="m 23.25,9.23 c -3.602,0 -6.059,1.653 -7.414,4.364 H 15.754 C 14.652,10.797 12.324,9.23 8.934,9.23 5.93,9.23 3.598,10.543 2.246,12.914 H 2.16 V 10.715 C 2.16,9.953 1.777,9.484 1.059,9.484 0.383,9.484 0,9.953 0,10.715 v 18.25 c 0,0.719 0.383,1.187 1.059,1.187 0.718,0 1.101,-0.468 1.101,-1.187 v -9.656 c 0,-4.954 2.457,-8.043 6.395,-8.043 3.808,0 5.843,2.496 5.843,7.238 v 10.461 c 0,0.719 0.379,1.187 1.102,1.187 0.676,0 1.059,-0.468 1.059,-1.187 v -9.656 c 0,-4.954 2.496,-8.043 6.394,-8.043 3.809,0 5.844,2.496 5.844,7.238 v 10.461 c 0,0.719 0.379,1.187 1.101,1.187 0.676,0 1.059,-0.468 1.059,-1.187 V 18.293 c 0,-5.887 -2.586,-9.063 -7.707,-9.063 z m 32.012,0.254 c -0.676,0 -1.059,0.469 -1.059,1.231 v 2.922 H 54.117 C 52.469,10.84 49.418,9.23 45.48,9.23 c -6.097,0 -10.289,4.278 -10.289,10.586 0,6.313 4.192,10.59 10.289,10.59 3.938,0 6.989,-1.609 8.637,-4.406 h 0.086 v 2.965 c 0,0.719 0.383,1.187 1.059,1.187 0.718,0 1.101,-0.468 1.101,-1.187 v -18.25 c 0,-0.762 -0.383,-1.231 -1.101,-1.231 z m -9.485,18.887 c -4.996,0 -8.386,-3.473 -8.386,-8.555 0,-5.078 3.39,-8.55 8.386,-8.55 4.953,0 8.426,3.472 8.426,8.55 0,5.039 -3.473,8.555 -8.426,8.555 z M 72.242,9.359 c -3.769,0 -6.437,1.61 -7.793,4.614 h -0.082 v -3.258 c 0,-0.762 -0.383,-1.231 -1.101,-1.231 -0.676,0 -1.059,0.469 -1.059,1.231 v 18.25 c 0,0.719 0.383,1.187 1.059,1.187 0.718,0 1.101,-0.468 1.101,-1.187 v -7.918 c 0,-6.27 2.836,-9.57 7.875,-9.57 0.68,0 1.102,-0.34 1.102,-1.059 0,-0.68 -0.422,-1.059 -1.102,-1.059 z m 17.996,16.77 c 0,-0.594 -0.422,-1.059 -1.015,-1.059 -0.422,0 -0.762,0.211 -0.973,0.633 -0.805,1.609 -2.328,2.668 -4.574,2.668 -3.262,0 -5.25,-2.117 -5.25,-5.715 V 11.773 h 9.527 c 0.68,0 1.102,-0.382 1.102,-1.015 0,-0.637 -0.422,-1.02 -1.102,-1.02 H 78.426 V 4.191 c 0,-0.761 -0.383,-1.226 -1.059,-1.226 -0.719,0 -1.101,0.465 -1.101,1.226 v 18.422 c 0,4.871 2.754,7.793 7.285,7.793 3.09,0 5.461,-1.355 6.562,-3.687 0.086,-0.168 0.125,-0.379 0.125,-0.59 z m 4.66,-21.301 c 0.93,0 1.442,-0.508 1.442,-1.398 0,-0.93 -0.512,-1.481 -1.442,-1.481 -0.89,0 -1.398,0.551 -1.398,1.481 0,0.89 0.508,1.398 1.398,1.398 z m 0,4.656 c -0.679,0 -1.058,0.469 -1.058,1.231 v 18.25 c 0,0.719 0.379,1.187 1.058,1.187 0.719,0 1.102,-0.468 1.102,-1.187 V 10.715 C 96,9.953 95.617,9.484 94.898,9.484 Z"
       style="fill:#ffffff;fill-opacity:1;fill-rule:nonzero;stroke:#ffffff;stroke-width:2.19975;stroke-dasharray:none;stroke-opacity:1"
       transform="scale(1.3333333)" />
    <path
       id="path3"
       d="m 117.535,9.859 c -0.504,0 -0.801,0.325 -0.801,0.887 V 27.23 h -0.058 L 102.863,10.332 c -0.265,-0.355 -0.562,-0.473 -0.918,-0.473 -0.593,0 -0.918,0.383 -0.918,1.008 v 18.317 c 0,0.566 0.293,0.89 0.797,0.89 0.504,0 0.801,-0.324 0.801,-0.89 V 12.613 h 0.063 l 13.839,16.989 c 0.297,0.355 0.563,0.472 0.891,0.472 0.594,0 0.918,-0.386 0.918,-0.976 V 10.746 c 0,-0.562 -0.297,-0.887 -0.801,-0.887 z"
       style="fill:#ffffff;fill-opacity:1;fill-rule:nonzero;stroke:#ffffff;stroke-width:2.19975;stroke-dasharray:none;stroke-opacity:1"
       transform="scale(1.3333333)" />
    <path
       id="path4"
       d="m 124.422,4.828 c 0.933,0 1.441,-0.508 1.441,-1.398 0,-0.93 -0.508,-1.481 -1.441,-1.481 -0.891,0 -1.399,0.551 -1.399,1.481 0,0.89 0.508,1.398 1.399,1.398 z m 0,4.656 c -0.676,0 -1.059,0.469 -1.059,1.231 v 18.25 c 0,0.719 0.383,1.187 1.059,1.187 0.719,0 1.101,-0.468 1.101,-1.187 v -18.25 c 0,-0.762 -0.382,-1.231 -1.101,-1.231 z m 26,0 c -0.676,0 -1.059,0.469 -1.059,1.231 v 2.922 h -0.086 c -1.648,-2.797 -4.699,-4.407 -8.636,-4.407 -6.098,0 -10.289,4.278 -10.289,10.586 0,6.313 4.191,10.59 10.289,10.59 3.937,0 6.988,-1.609 8.636,-4.406 h 0.086 v 2.965 c 0,0.719 0.383,1.187 1.059,1.187 0.719,0 1.101,-0.468 1.101,-1.187 v -18.25 c 0,-0.762 -0.382,-1.231 -1.101,-1.231 z m -9.484,18.887 c -4.997,0 -8.387,-3.473 -8.387,-8.555 0,-5.078 3.39,-8.55 8.387,-8.55 4.953,0 8.425,3.472 8.425,8.55 0,5.039 -3.472,8.555 -8.425,8.555 z m 33.75,-18.887 c -0.68,0 -1.059,0.469 -1.059,1.231 v 9.23 c 0,5.125 -3.008,8.426 -7.621,8.426 -4.574,0 -7.031,-2.625 -7.031,-7.578 V 10.715 c 0,-0.762 -0.383,-1.231 -1.059,-1.231 -0.719,0 -1.102,0.469 -1.102,1.231 v 10.246 c 0,6.141 3.09,9.445 8.766,9.445 3.641,0 6.438,-1.527 7.961,-4.195 h 0.086 v 2.797 c 0,0.676 0.422,1.144 1.059,1.144 0.675,0 1.101,-0.468 1.101,-1.144 V 10.715 c 0,-0.762 -0.383,-1.231 -1.101,-1.231 z M 182.691,0 c -0.679,0 -1.058,0.465 -1.058,1.188 v 27.777 c 0,0.719 0.379,1.187 1.058,1.187 0.719,0 1.102,-0.468 1.102,-1.187 V 1.188 C 183.793,0.465 183.41,0 182.691,0 Z m 20.368,26.129 c 0,-0.594 -0.422,-1.059 -1.016,-1.059 -0.422,0 -0.762,0.211 -0.973,0.633 -0.804,1.609 -2.332,2.668 -4.574,2.668 -3.262,0 -5.25,-2.117 -5.25,-5.715 V 11.773 h 9.527 c 0.676,0 1.102,-0.382 1.102,-1.015 0,-0.637 -0.426,-1.02 -1.102,-1.02 h -9.527 V 4.191 c 0,-0.761 -0.383,-1.226 -1.058,-1.226 -0.723,0 -1.102,0.465 -1.102,1.226 v 18.422 c 0,4.871 2.75,7.793 7.281,7.793 3.094,0 5.465,-1.355 6.567,-3.687 0.082,-0.168 0.125,-0.379 0.125,-0.59 z"
       style="fill:#ffffff;fill-opacity:1;fill-rule:nonzero;stroke:#ffffff;stroke-width:2.19975;stroke-dasharray:none;stroke-opacity:1"
       transform="scale(1.3333333)" />
  </g>
</svg>
