<?xml version="1.0" encoding="UTF-8" standalone="no"?>
<!-- Created with Inkscape (http://www.inkscape.org/) -->

<svg
   version="1.1"
   id="svg1"
   width="770.38367"
   height="478.44385"
   viewBox="0 0 770.38365 478.44385"
   xmlns="http://www.w3.org/2000/svg"
   xmlns:svg="http://www.w3.org/2000/svg">
  <defs
     id="defs1" />
  <g
     id="g70">
    <path
       style="fill:#ffffff;fill-opacity:1"
       d="m 314.04997,94.25962 c -5.98626,-1.05973 -9.03177,-1.85795 -9.03177,-2.36722 0,-1.21471 7.62891,-12.14867 13.16066,-18.86221 7.00254,-8.49855 22.78083,-23.69979 29.55388,-28.47302 19.44056,-13.7005 40.68924,-21.9296 65.51085,-25.37077 l 2.59968,-0.3604 -1.59037,4.13998 c -2.02244,5.26471 -4.28303,11.99991 -5.09985,15.19446 l -0.63461,2.48196 -5.5133,1.05689 c -26.76068,5.12996 -48.1913,19.02047 -72.00006,46.66769 -3.61165,4.19393 -6.87191,7.59521 -7.245,7.55841 -0.37309,-0.0368 -4.74264,-0.7864 -9.71011,-1.66577 z"
       id="path68" />
    <path
       style="fill:#ffffff;fill-opacity:1"
       d="m 374.82302,144.12516 c 0,-0.16131 4.00861,-10.57499 8.90803,-23.14151 4.89941,-12.56652 13.34426,-34.28335 18.76632,-48.25962 14.4112,-37.14722 25.81181,-65.59821 27.01469,-67.41693 1.38897,-2.1001 6.34137,-4.74901 9.75297,-5.21662 3.47757,-0.47666 8.59176,0.97126 11.9031,3.36999 2.73171,1.97884 4.81809,5.69657 5.45211,9.71515 l 0.41059,2.60237 h -2.83971 c -2.19703,0 -3.08086,-0.30549 -3.90528,-1.34984 -4.47975,-5.67483 -7.38974,-6.90614 -12.0843,-5.11328 -3.35471,1.28118 -9.12205,7.33882 -11.09761,11.65621 -3.6136,7.8972 -4.12319,15.41822 -1.46355,21.60072 2.48459,5.7756 7.14571,8.55415 13.28667,7.92035 3.93376,-0.406 3.93673,-0.59296 -0.12002,7.53613 -1.42856,2.86261 -11.06325,22.97742 -21.41043,44.69958 -10.34717,21.72216 -19.13046,39.80625 -19.51841,40.18686 -0.68594,0.67296 -23.05517,1.84739 -23.05517,1.21044 z"
       id="path67" />
    <path
       style="fill:#ffffff;fill-opacity:1"
       d="m 568.3171,225.24641 c -20.14887,-2.87799 -38.33734,-18.21324 -44.03337,-37.12586 -1.64242,-5.45338 -3.10727,-15.27525 -3.1119,-20.86548 -0.007,-8.72798 3.56808,-23.2933 7.95951,-32.42599 6.50649,-13.53131 21.21395,-26.93339 36.4303,-33.19688 7.84976,-3.23119 12.62928,-4.11719 21.73747,-4.02955 9.51086,0.0915 15.42697,1.36499 21.60636,4.65093 7.05055,3.74918 14.41892,12.76078 15.775,19.29299 1.91547,9.22679 -2.2838,17.69523 -8.69127,17.52721 -3.38864,-0.0888 -4.69123,-1.58906 -5.74253,-6.6137 -1.16975,-5.59083 -3.33781,-9.09626 -7.22022,-11.67403 -5.63213,-3.73953 -11.49755,-3.89992 -23.50797,-0.64283 -10.14644,2.7516 -16.0313,5.71171 -21.2086,10.66803 -13.65286,13.07012 -17.82043,35.26061 -10.10359,53.79729 3.9757,9.55005 10.2121,16.93716 17.96768,21.28296 5.66384,3.17371 9.92879,4.17338 16.56656,3.88306 5.18658,-0.22684 6.12136,-0.46984 10.88219,-2.82893 6.10779,-3.02653 10.33026,-6.89895 14.92735,-13.68987 4.09843,-6.05429 6.6215,-7.99451 10.85235,-8.34536 3.79532,-0.31474 5.46737,0.41898 7.11584,3.12252 1.77319,2.90809 1.5436,6.7212 -0.68883,11.44019 -1.44071,3.04541 -3.27397,5.34279 -7.81796,9.79716 -11.19449,10.97372 -22.70267,15.73133 -39.28488,16.24083 -3.87295,0.11899 -8.55722,-1.1e-4 -10.40949,-0.26469 z"
       id="path66" />
    <path
       style="fill:#ffffff;fill-opacity:1"
       d="m 313.27657,227.15265 c -7.91985,-2.73862 -14.83895,-9.21224 -18.64023,-17.4401 -2.78345,-6.02476 -5.60851,-13.8619 -7.51332,-20.84308 -1.27293,-4.6653 -1.36756,-6.28962 -1.37982,-23.68466 -0.007,-10.27172 0.18933,-20.19135 0.43684,-22.04363 l 0.45001,-3.36778 -3.74922,7.34788 c -9.3205,18.26665 -19.7833,43.92534 -22.57051,55.35126 -1.54035,6.31455 -1.96401,7.29823 -3.91218,9.0836 -1.8296,1.67671 -2.65904,2.00181 -5.10229,1.9999 -3.25325,-0.003 -6.24465,-1.49352 -7.81982,-3.89753 -0.5438,-0.82995 -1.37955,-4.29393 -1.85722,-7.69774 -1.01419,-7.22692 -1.93353,-10.94884 -4.77338,-19.32476 -1.83682,-5.41757 -9.41482,-24.68514 -13.36599,-33.98392 l -1.43101,-3.36778 -0.38043,9.49101 c -0.42259,10.54279 -1.43203,16.19843 -4.58574,25.69275 -5.13547,15.46049 -14.87054,28.46273 -26.03815,34.7768 -9.43603,5.33504 -28.30523,8.70333 -33.55322,5.98949 -6.31691,-3.2666 -7.21519,-11.2242 -1.84517,-16.34574 3.39747,-3.24027 5.14309,-3.43051 10.12127,-1.10302 4.91857,2.29962 7.13453,2.17378 12.55004,-0.71265 7.09687,-3.7826 12.60963,-9.8431 17.05266,-18.747 5.80244,-11.62816 8.32943,-23.17782 7.80522,-35.67386 -0.40055,-9.54821 -1.88378,-15.50078 -5.87418,-23.57444 -6.01987,-12.17983 -10.25866,-13.98578 -12.93476,-5.51091 -1.12606,3.56608 -2.31864,5.12576 -4.94313,6.46467 -7.25514,3.70129 -15.28004,-1.57876 -14.38889,-9.46731 0.67068,-5.93698 6.98247,-13.63664 13.72769,-16.74622 13.0103,-5.99783 25.98884,-1.58336 40.63801,13.82245 11.269,11.85105 17.61603,23.41238 28.11884,51.21946 3.85842,10.21547 4.20225,10.88095 4.80405,9.29807 0.35652,-0.9377 0.64821,-1.96386 0.64821,-2.28038 0,-0.88009 5.71811,-16.13524 8.24657,-22.00075 13.22479,-30.67873 29.29569,-49.21961 43.4135,-50.08584 3.22068,-0.19761 15.24863,1.67371 16.07605,2.50113 0.13582,0.13582 -1.09911,3.38932 -2.74428,7.23002 -6.61469,15.44218 -10.48243,27.97094 -11.69679,37.88934 -0.92129,7.5247 -0.76336,24.98077 0.29327,32.41505 1.45586,10.24325 5.10174,22.75334 8.60608,29.52998 0.88684,1.71496 0.96281,1.7386 2.70025,0.84013 2.55423,-1.32084 7.24438,-1.17673 9.66127,0.29686 6.19833,3.77917 5.92121,13.47357 -0.47705,16.68816 -2.79787,1.40571 -9.66597,1.39129 -13.77305,-0.0289 z"
       id="path65" />
    <path
       style="fill:#ffffff;fill-opacity:1"
       d="m 408.00656,328.0546 c -4.85618,-0.67603 -9.59992,-2.03801 -15.23972,-4.37549 -8.38975,-3.47723 -15.3835,-13.10329 -18.59707,-25.59667 -3.30754,-12.85871 0.61297,-27.49328 11.41954,-42.62718 4.46905,-6.25862 12.27326,-14.36622 18.01271,-18.71296 9.69566,-7.34296 25.56949,-13.77858 55.72158,-22.59085 5.89361,-1.72247 10.93283,-3.34261 11.19826,-3.60031 0.70893,-0.68829 -4.29722,-7.18571 -8.58691,-11.14483 -14.17604,-13.08363 -36.86145,-21.24884 -65.98678,-23.75075 -4.50862,-0.38729 -13.38899,-0.12974 -33.67777,0.97676 -31.86824,1.738 -36.21281,1.68784 -40.11204,-0.4631 -7.48435,-4.1286 -5.78982,-16.02747 2.8455,-19.98085 3.36806,-1.54195 3.58203,-1.56101 11.77594,-1.04928 13.00014,0.81188 21.58247,0.28687 41.10484,-2.51454 33.43584,-4.79795 65.10408,-13.70335 87.42436,-24.58453 27.30046,-13.30901 42.70397,-32.95133 41.60727,-53.05693 -0.39441,-7.23056 -3.045,-12.81354 -8.46631,-17.83272 -6.22627,-5.76443 -21.98394,-12.84174 -34.20461,-15.36246 -7.71134,-1.5906 -16.14966,-2.71305 -23.5914,-3.13807 -6.22602,-0.3556 -7.18709,-0.55646 -7.75693,-1.62122 -1.47066,-2.74795 0.84205,-12.89619 3.75568,-16.48002 1.09743,-1.34987 1.47181,-1.40046 9.91564,-1.34001 11.64895,0.0834 20.8513,1.86468 37.37167,7.23399 13.46943,4.37772 22.6827,9.82291 30.91593,18.27181 7.72555,7.92793 11.97034,15.44688 14.35764,25.43221 1.06988,4.47497 1.22219,6.56422 0.94676,12.98692 -0.37159,8.66508 -1.34973,12.83983 -4.67973,19.97326 -7.89597,16.91455 -23.92607,31.4711 -47.48116,43.11654 -9.44588,4.66996 -24.89022,10.06586 -35.46626,12.3911 -3.6779,0.80862 -6.43335,1.62559 -6.12323,1.81548 0.31012,0.1899 3.45708,1.48974 6.99324,2.88854 19.99513,7.90947 36.80236,21.34297 45.9338,36.71346 l 2.4828,4.17918 13.89053,-4.21116 c 7.63979,-2.31613 14.13828,-4.12856 14.44108,-4.02763 0.52006,0.17335 10.78585,18.6929 10.80499,19.49227 0.0136,0.56621 -5.79106,2.21878 -11.43827,3.25647 -4.33444,0.79646 -11.63463,2.51461 -19.93429,4.69168 l -2.29621,0.60231 -0.002,8.39584 c -0.005,23.24538 -5.43649,40.23209 -18.24773,57.06644 -9.90689,13.01794 -29.71756,29.11976 -42.24205,34.33373 -9.22396,3.83994 -20.13557,5.44831 -28.78956,4.24357 z m 13.68361,-22.9669 c 9.11935,-2.32737 21.55923,-10.09966 30.84812,-19.27354 13.29509,-13.13047 22.95902,-31.46787 23.7788,-45.1205 0.26208,-4.36477 0.13252,-5.28412 -1.00382,-7.12275 -1.83451,-2.9683 -4.06018,-3.72253 -9.74072,-3.30093 -7.47698,0.55494 -25.75482,7.11253 -38.03906,13.64738 -22.0796,11.74569 -34.9531,27.49289 -34.9531,42.75555 0,12.47657 15.0566,22.00135 29.10978,18.41479 z"
       id="path64" />
    <path
       style="fill:#ffffff;fill-opacity:1"
       d="m 291.5471,357.81371 c 0,-0.13907 7.60457,-19.77167 16.89906,-43.62802 9.29449,-23.85634 20.43973,-52.46816 24.76721,-63.58182 22.52534,-57.84874 25.74141,-66.08093 25.86316,-66.20198 0.14959,-0.14873 6.31942,-0.62403 15.58148,-1.20033 l 6.26438,-0.38978 -3.20277,6.74775 c -1.76151,3.71126 -20.97543,43.13317 -42.69759,87.60425 l -39.49483,80.85652 -1.99005,0.0231 c -1.09453,0.0127 -1.99005,-0.0906 -1.99005,-0.22972 z"
       id="path63" />
  </g>
  <g
     id="g69"
     transform="translate(0,-11.999997)">
    <path
       style="fill:#ffffff;fill-opacity:1"
       d="m 685.88311,439.21702 c 0,-1.19338 0.42072,-1.62226 1.99005,-2.0287 l 1.99005,-0.5154 0.16347,-16.14536 c 0.1737,-17.15663 0.17969,-17.11952 -2.76584,-17.13957 -1.16454,-0.008 -1.37773,-0.34099 -1.37773,-2.15251 v -2.14313 h 6.06905 6.06904 l 8.51519,13.98388 c 4.68335,7.69113 9.18534,15.61305 10.00443,17.60428 l 1.48925,3.62042 0.1645,-14.68365 c 0.0905,-8.076 0.0302,-15.03352 -0.13387,-15.46115 -0.16409,-0.42764 -1.27141,-0.77752 -2.4607,-0.77752 -2.06304,0 -2.16235,-0.0984 -2.16235,-2.14313 v -2.14313 h 7.04171 7.04172 v 2.10434 c 0,1.92654 -0.16813,2.12054 -1.99005,2.29621 l -1.99005,0.19188 -0.1621,18.55054 -0.1621,18.55054 -4.1193,-0.18085 -4.1193,-0.18085 -7.53336,-12.24646 c -4.14335,-6.73556 -8.40385,-13.96276 -9.46779,-16.06045 -1.06393,-2.09769 -2.08483,-3.57151 -2.26866,-3.27516 -0.18384,0.29636 -0.25513,6.62535 -0.15843,14.06444 l 0.17582,13.52561 1.66115,0.36903 c 3.53208,0.78467 3.80428,0.95923 3.80428,2.4396 v 1.48955 h -7.65404 -7.65404 z"
       id="path62" />
    <path
       style="fill:#ffffff;fill-opacity:1"
       d="m 601.99486,439.21102 c 0,-1.15959 0.39855,-1.60647 1.68389,-1.88811 0.92614,-0.20294 2.02832,-0.47509 2.44929,-0.60478 0.58755,-0.181 0.76541,-4.0694 0.76541,-16.73391 V 403.4861 l -2.4493,-0.41381 c -2.20206,-0.37203 -2.44929,-0.59379 -2.44929,-2.19695 v -1.78315 h 8.87869 8.87868 v 1.82974 c 0,1.6624 -0.22488,1.86569 -2.45899,2.22294 l -2.45899,0.39321 0.16278,16.58687 0.16278,16.58688 2.60237,0.51439 c 2.21044,0.43692 2.60237,0.73951 2.60237,2.00917 v 1.49477 h -9.18484 -9.18485 z"
       id="path61" />
    <path
       style="fill:#ffffff;fill-opacity:1"
       d="m 561.58154,439.54165 c 0,-1.49768 0.89405,-2.05116 3.9801,-2.46396 l 2.44929,-0.32763 0.16293,-16.6858 0.16292,-16.68581 h -2.68876 c -5.10452,0 -6.28527,0.50783 -7.12967,3.06639 -0.57665,1.74728 -1.17203,2.40945 -2.3741,2.64042 -0.88243,0.16956 -1.69441,0.21966 -1.8044,0.11135 -0.10998,-0.10831 -0.006,-2.42611 0.23215,-5.15067 l 0.43212,-4.95375 h 17.37214 17.37214 v 4.85732 c 0,4.31227 -0.13681,4.90075 -1.21917,5.24427 -1.73633,0.5511 -2.21492,0.0707 -2.9879,-2.99906 l -0.68376,-2.71547 -4.30092,-0.20348 -4.30092,-0.20348 0.16386,16.83889 0.16387,16.83888 1.5308,0.17142 c 3.64625,0.40832 4.28627,0.75018 4.28627,2.28954 v 1.51914 h -10.4095 c -9.89577,0 -10.40949,-0.0586 -10.40949,-1.18851 z"
       id="path60" />
    <path
       style="fill:#ffffff;fill-opacity:1"
       d="m 501.57389,439.18404 c 0,-1.22491 0.37817,-1.62175 1.82037,-1.91019 2.07904,-0.41581 1.19115,1.60777 9.83484,-22.41434 l 5.67343,-15.76732 h 3.58214 c 1.97017,0 3.58214,0.092 3.58214,0.20436 0,0.36103 11.72339,33.70915 12.5429,35.67928 0.56998,1.37024 1.32144,2.00596 2.69618,2.28091 1.5292,0.30584 1.90596,0.68682 1.90596,1.9273 v 1.54612 h -8.30703 -8.30703 l 0.19375,-1.67865 c 0.12813,-1.11012 0.60852,-1.75241 1.4184,-1.89641 1.967,-0.34974 2.14619,-0.8754 1.2891,-3.78148 l -0.81011,-2.74679 -7.61802,-0.17046 -7.61802,-0.17046 -0.98213,3.07122 -0.98214,3.07122 2.39051,0.6437 c 1.95734,0.52706 2.39051,0.91681 2.39051,2.1509 v 1.50721 h -7.34788 -7.34787 z M 527.13753,425.269 c -0.15673,-0.42097 -1.49505,-4.82721 -2.97405,-9.79164 -1.479,-4.96443 -2.82766,-9.02873 -2.99702,-9.03177 -0.29432,-0.005 -6.12147,18.2166 -6.12147,19.14226 0,0.2456 2.78494,0.44656 6.18875,0.44656 4.69475,0 6.11995,-0.18478 5.90379,-0.76541 z"
       id="path59" />
    <path
       style="fill:#ffffff;fill-opacity:1"
       d="m 457.48663,439.26484 c 0,-1.4932 1.00796,-2.20864 3.1117,-2.20864 1.12931,0 1.17456,-0.64684 1.17456,-16.79023 v -16.7902 l -1.83697,-0.40347 c -1.52965,-0.33597 -1.83697,-0.70264 -1.83697,-2.19178 v -1.78832 h 14.37793 14.37792 l 0.2935,1.37773 c 0.16143,0.75775 0.37532,2.68657 0.47532,4.28626 l 0.18182,2.90854 h -2.0257 c -1.73632,0 -2.15363,-0.30617 -2.92117,-2.14313 -0.80295,-1.92175 -1.13834,-2.14314 -3.24671,-2.14314 -1.29318,0 -4.04494,-0.17702 -6.11501,-0.39339 l -3.76376,-0.39339 v 7.12895 7.12894 h 4.88108 4.88107 l 0.51203,-1.99005 c 0.42802,-1.66356 0.83632,-2.0218 2.48867,-2.18356 l 1.97664,-0.1935 -0.17495,6.31673 -0.17495,6.31674 h -1.79804 c -1.49794,0 -1.8804,-0.31782 -2.29148,-1.9042 -0.4543,-1.75321 -0.74869,-1.93485 -3.71286,-2.29088 -1.77069,-0.21268 -3.97718,-0.38909 -4.90332,-0.39202 l -1.68389,-0.005 v 8.32704 8.32703 l 6.88864,-0.41382 c 7.25287,-0.43571 7.19565,-0.41074 9.19325,-4.01221 0.93174,-1.67985 1.30976,-1.88942 2.7542,-1.52689 0.92082,0.23112 1.7716,0.51759 1.89063,0.63661 0.11902,0.11902 -0.11197,2.16322 -0.51331,4.54265 l -0.72972,4.32625 h -15.86507 -15.86508 z"
       id="path58" />
    <path
       style="fill:#ffffff;fill-opacity:1"
       d="m 406.66382,439.22293 c 0,-1.24027 0.43379,-1.62401 2.44929,-2.16673 l 2.4493,-0.65952 v -16.50913 -16.50912 h -2.14314 c -2.04107,0 -2.14313,-0.10205 -2.14313,-2.14313 v -2.14313 l 11.48106,0.003 c 6.31458,0.002 12.54037,0.29756 13.83509,0.65707 1.29471,0.35951 3.3613,1.57742 4.59242,2.70646 2.1896,2.00807 2.23839,2.15155 2.23839,6.5827 0,3.86665 -0.2358,4.88617 -1.6105,6.96327 -0.89625,1.35419 -2.82694,3.0787 -4.35335,3.88845 l -2.74284,1.45508 1.90406,1.91712 c 1.04722,1.05442 3.38283,4.34789 5.19023,7.31881 2.73476,4.49528 3.68517,5.55841 5.66399,6.33571 1.83677,0.72151 2.3778,1.26643 2.3778,2.39493 0,1.44702 -0.0538,1.45923 -5.6621,1.28485 l -5.6621,-0.17606 -3.67582,-7.24414 c -4.51344,-8.89486 -6.32953,-10.95698 -9.42198,-10.69838 l -2.21405,0.18515 v 7.03333 c 0,6.56334 0.0818,7.04571 1.22465,7.21864 3.54232,0.536 3.9801,0.78815 3.9801,2.29242 v 1.51914 h -8.87868 -8.87869 z m 21.86986,-21.48534 c 2.438,-1.59745 3.36125,-3.69209 3.39912,-7.71183 0.0329,-3.49651 -0.11111,-3.9127 -1.91069,-5.52062 -1.7708,-1.58221 -2.35955,-1.73903 -6.52907,-1.73903 h -4.58276 v 7.90917 c 0,5.7361 0.2103,8.00346 0.76541,8.25235 1.30196,0.58374 7.40149,-0.23571 8.85799,-1.19004 z"
       id="path57" />
    <path
       style="fill:#ffffff;fill-opacity:1"
       d="m 295.22103,439.21103 c 0,-1.12745 0.3947,-1.60109 1.53081,-1.83697 0.84195,-0.17481 2.21967,-0.46085 3.06162,-0.63566 1.49854,-0.31113 1.5308,-0.43624 1.5308,-5.9362 v -5.61837 l -6.16895,-10.86407 c -5.38405,-9.48179 -6.39686,-10.91413 -7.9602,-11.2575 -1.48142,-0.32537 -1.79124,-0.70274 -1.79124,-2.18174 v -1.78832 h 7.96019 7.9602 v 1.83697 c 0,1.05636 -0.32525,1.84096 -0.7654,1.84635 -2.56444,0.0314 -2.43787,1.03664 0.9721,7.7207 1.86859,3.66273 3.71908,7.48615 4.11218,8.49648 l 0.71474,1.83697 0.76717,-2.14313 c 0.42194,-1.17872 2.1826,-4.96246 3.91258,-8.40832 1.72998,-3.44585 3.14542,-6.3773 3.14542,-6.51432 0,-0.13703 -0.96441,-0.43007 -2.14313,-0.6512 -1.87503,-0.35175 -2.14313,-0.62839 -2.14313,-2.21127 v -1.80923 h 7.04171 7.04172 v 1.85619 c 0,1.23344 -0.35951,1.96728 -1.07157,2.18731 -2.39772,0.74092 -3.06591,1.65887 -8.23517,11.31341 l -5.38341,10.0545 -0.003,5.95848 c -0.003,5.8637 0.0215,5.96354 1.528,6.27631 0.84194,0.17481 2.21967,0.46085 3.06162,0.63566 1.1361,0.23588 1.5308,0.70952 1.5308,1.83697 v 1.51914 h -10.10333 -10.10333 z"
       id="path56" />
    <path
       style="fill:#ffffff;fill-opacity:1"
       d="m 235.93354,439.12906 c 0.1557,-1.33138 0.62606,-1.80597 2.18837,-2.20803 l 1.99005,-0.51214 v -16.44707 -16.44706 l -2.14313,-0.40206 c -1.88875,-0.35433 -2.14313,-0.62205 -2.14313,-2.25561 v -1.85355 l 12.7057,0.19835 c 11.80944,0.18435 12.93148,0.30036 15.90635,1.6445 4.11459,1.8591 7.66643,5.72699 9.03062,9.83421 1.48527,4.47172 1.09769,13.85075 -0.74118,17.93612 -1.81449,4.03119 -6.32515,8.64198 -10.13454,10.35953 -2.93033,1.32119 -4.16425,1.45621 -15.02498,1.64405 l -11.83246,0.20465 z m 24.53902,-4.05779 c 3.48602,-2.65979 5.55171,-7.57915 5.85612,-13.94611 0.32316,-6.75919 -0.90663,-11.32776 -3.95864,-14.70596 -2.63082,-2.91201 -5.30129,-3.80227 -10.62394,-3.54172 l -3.9801,0.19482 -0.16353,16.21698 c -0.0899,8.91934 -0.0189,16.59391 0.1579,17.0546 0.24589,0.64077 1.51886,0.78693 5.41666,0.62191 4.42772,-0.18746 5.38349,-0.43566 7.29553,-1.89452 z"
       id="path55" />
    <path
       style="fill:#ffffff;fill-opacity:1"
       d="m 135.51714,439.04919 c 0.15312,-1.32849 0.57895,-1.747 2.03072,-1.99582 l 1.83697,-0.31483 0.16279,-16.61007 0.1628,-16.61007 -2.15285,-0.40387 c -1.88537,-0.3537 -2.15284,-0.62866 -2.15284,-2.2131 v -1.80923 l 11.48105,0.003 c 12.92439,0.004 15.44033,0.46561 18.34096,3.36624 1.72894,1.72895 2.01865,2.44516 2.01783,4.98855 -0.001,3.83469 -1.55355,6.87654 -4.46821,8.75565 l -2.32603,1.49961 2.52881,0.74667 c 3.1714,0.9364 4.74522,2.32232 6.17638,5.43895 1.50626,3.28015 1.43639,6.21852 -0.22611,9.5094 -2.9368,5.81332 -7.62309,7.32948 -22.65468,7.32948 h -10.95135 z m 21.54191,-2.22492 c 5.48214,-2.29058 6.8723,-10.38537 2.49079,-14.50367 -1.38956,-1.30609 -2.26569,-1.51755 -7.0668,-1.70561 l -5.48058,-0.21469 0.17128,8.14812 c 0.17044,8.10803 0.17882,8.15021 1.70209,8.57309 2.57998,0.71623 6.06019,0.58982 8.18322,-0.29724 z m -0.8153,-20.90355 c 3.72448,-1.926 5.03683,-8.7657 2.22198,-11.58054 -1.60034,-1.60034 -6.48232,-2.56274 -9.56524,-1.88562 l -1.86162,0.40889 v 6.58484 c 0,3.62167 0.18369,6.76855 0.40821,6.99307 0.77453,0.77452 7.00522,0.40576 8.79667,-0.52064 z"
       id="path54" />
    <path
       style="fill:#ffffff;fill-opacity:1"
       d="m 71.72313,439.21103 c 0,-1.12745 0.39471,-1.60109 1.53081,-1.83697 0.84195,-0.17481 2.21967,-0.46085 3.06162,-0.63566 1.49854,-0.31113 1.53081,-0.43624 1.53081,-5.9362 v -5.61837 l -6.16896,-10.86407 c -5.38404,-9.48179 -6.39686,-10.91413 -7.9602,-11.2575 -1.48142,-0.32537 -1.79124,-0.70274 -1.79124,-2.18174 v -1.78832 h 7.9602 7.9602 v 1.83697 c 0,1.05636 -0.32526,1.84096 -0.76541,1.84635 -2.56443,0.0314 -2.43787,1.03664 0.9721,7.7207 1.86859,3.66273 3.71908,7.48615 4.11218,8.49648 l 0.71475,1.83697 0.76716,-2.14313 c 0.42194,-1.17872 2.1826,-4.96246 3.91258,-8.40832 1.72998,-3.44585 3.14542,-6.3773 3.14542,-6.51432 0,-0.13703 -0.96441,-0.43007 -2.14313,-0.6512 -1.87502,-0.35175 -2.14313,-0.62839 -2.14313,-2.21127 v -1.80923 h 7.04171 7.04172 v 1.72647 c 0,1.34971 -0.42613,1.9176 -1.95273,2.60237 -1.63022,0.73125 -2.84331,2.54455 -7.34507,10.97924 l -5.39235,10.10333 -0.003,5.95848 c -0.003,5.8637 0.0215,5.96354 1.528,6.27631 0.84195,0.17481 2.21967,0.46085 3.06162,0.63566 1.1361,0.23588 1.5308,0.70952 1.5308,1.83697 v 1.51914 H 81.82626 71.72293 Z"
       id="path53" />
    <path
       style="fill:#ffffff;fill-opacity:1"
       d="m 746.50309,440.22915 -3.9801,-1.02979 -0.17854,-5.09479 -0.17854,-5.0948 1.69546,0.19621 c 1.38687,0.1605 1.87788,0.69773 2.69778,2.95167 1.40547,3.86369 3.97523,5.5109 8.59736,5.5109 3.07767,0 3.84936,-0.24628 5.55952,-1.7743 1.62214,-1.44939 1.98579,-2.2296 1.98579,-4.26058 0,-3.26335 -1.80194,-5.12917 -8.68461,-8.99246 -8.72174,-4.89557 -11.18806,-7.68624 -11.18806,-12.65942 0,-3.64492 1.74325,-6.57971 5.18019,-8.72095 2.56299,-1.59675 3.57138,-1.83702 8.5078,-2.02714 3.54511,-0.13653 6.61135,0.0879 8.35564,0.61159 l 2.75546,0.82726 0.18105,4.10841 0.18106,4.10841 h -1.78176 c -1.54284,0 -1.92036,-0.36294 -2.81546,-2.70672 -0.781,-2.04503 -1.49728,-2.86832 -2.93001,-3.36777 -2.81771,-0.98226 -5.45642,-0.80115 -7.62905,0.52363 -2.24194,1.36704 -2.92428,3.01589 -2.40141,5.803 0.50569,2.6956 2.68366,4.5912 9.53189,8.29615 3.19407,1.72803 6.46724,3.74924 7.27371,4.49158 1.89225,1.74182 3.14543,4.71913 3.14543,7.47295 0,9.17518 -10.99617,14.16061 -23.8806,10.82696 z"
       id="path52" />
    <path
       style="fill:#ffffff;fill-opacity:1"
       d="m 646.19845,440.4368 c -3.8768,-1.2101 -6.63997,-3.2975 -8.93304,-6.74835 -2.87575,-4.32771 -3.66781,-7.20646 -3.62223,-13.16494 0.10303,-13.46699 7.87477,-21.44179 20.87978,-21.42532 10.8085,0.0137 17.17133,6.61241 17.76523,18.42388 0.71548,14.2294 -7.46051,23.93059 -20.0409,23.77946 -1.87534,-0.0225 -4.59732,-0.41166 -6.04884,-0.86473 z m 12.19266,-4.14686 c 2.94248,-1.9497 4.7535,-5.98184 5.30586,-11.81329 1.00662,-10.62723 -1.40783,-18.2443 -6.63588,-20.93475 -4.94614,-2.54537 -10.34151,-0.6825 -12.81362,4.42418 -4.36191,9.01051 -2.11935,24.04723 4.22141,28.30528 2.80965,1.88677 7.09065,1.89479 9.92223,0.0186 z"
       id="path51" />
    <path
       style="fill:#ffffff;fill-opacity:1"
       d="m 371.35266,440.24396 c -8.82148,-3.14583 -13.52491,-10.7743 -12.93423,-20.97798 0.47993,-8.29051 4.89698,-14.6632 12.61129,-18.19493 4.22749,-1.93541 11.18795,-2.4949 17.34637,-1.39433 l 4.2043,0.75135 v 4.84297 4.84298 h -2.36971 c -2.28917,0 -2.39617,-0.0945 -3.14813,-2.78021 -0.86662,-3.09529 -1.79093,-3.80556 -5.6387,-4.33295 -4.09048,-0.56066 -7.75265,0.7156 -10.62583,3.7031 -3.32121,3.45336 -4.18705,6.68385 -3.79586,14.1626 0.37755,7.21799 2.371,11.73067 6.44764,14.59584 2.99878,2.10762 8.52922,2.83257 11.17039,1.46425 1.26529,-0.65551 3.57993,-4.1808 4.44086,-6.76361 0.11897,-0.35689 1.01404,-0.4298 2.16717,-0.17653 l 1.9645,0.43147 -8.5e-4,4.08453 -8.5e-4,4.08453 -3.82617,1.16536 c -5.54567,1.68909 -14.00661,1.91999 -18.01219,0.49156 z"
       id="path50" />
    <path
       style="fill:#ffffff;fill-opacity:1"
       d="m 195.52872,440.4368 c -3.8768,-1.2101 -6.63997,-3.2975 -8.93305,-6.74835 -2.87574,-4.32771 -3.66781,-7.20646 -3.62222,-13.16494 0.10303,-13.46699 7.87477,-21.44179 20.87977,-21.42532 10.80851,0.0137 17.17134,6.61241 17.76524,18.42388 0.71548,14.2294 -7.46052,23.93059 -20.0409,23.77946 -1.87535,-0.0225 -4.59733,-0.41166 -6.04884,-0.86473 z m 12.19265,-4.14686 c 2.94249,-1.9497 4.7535,-5.98184 5.30586,-11.81329 1.00663,-10.62723 -1.40783,-18.2443 -6.63588,-20.93475 -4.94614,-2.54537 -10.34151,-0.6825 -12.81361,4.42418 -4.36191,9.01051 -2.11936,24.04723 4.22141,28.30528 2.80964,1.88677 7.09065,1.89479 9.92222,0.0186 z"
       id="path49" />
    <path
       style="fill:#ffffff;fill-opacity:1"
       d="m 24.35924,440.87763 c -0.65161,-1.05432 -10.42394,-27.14415 -11.80967,-31.52902 -0.82483,-2.61002 -1.62548,-4.7455 -1.77921,-4.7455 -0.15374,0 -0.27953,7.17283 -0.27953,15.93962 0,12.21771 0.17873,15.99467 0.76541,16.17541 0.42097,0.12969 1.52315,0.40184 2.44929,0.60478 1.28534,0.28164 1.68389,0.72852 1.68389,1.88811 v 1.51914 H 7.69471 0 l 0.19375,-1.68389 c 0.14573,-1.26654 0.57316,-1.73468 1.72456,-1.88882 0.84195,-0.11271 1.70901,-0.38825 1.92681,-0.61232 0.2178,-0.22407 0.57765,-3.43839 0.79966,-7.14295 0.22202,-3.70455 0.66313,-10.31764 0.98025,-14.69575 0.83201,-11.48684 0.9751,-10.63793 -1.86975,-11.09284 -2.3008,-0.36791 -2.44929,-0.51795 -2.44929,-2.47482 v -2.08317 l 7.74059,0.17138 7.74058,0.17137 3.51805,10.4095 c 1.93492,5.72522 4.11986,12.43359 4.85543,14.90749 0.73556,2.4739 1.46665,4.36873 1.62464,4.21074 0.15799,-0.15799 2.30463,-6.86636 4.77032,-14.90749 l 4.48307,-14.62024 7.43274,-0.17192 7.43274,-0.17193 v 2.16198 c 0,1.94803 -0.16663,2.1629 -1.68389,2.17135 -3.4686,0.0193 -3.47094,0.0301 -2.67183,12.33099 1.42855,21.98998 1.24553,20.77185 3.22449,21.46172 1.26396,0.44062 1.74356,1.0124 1.74356,2.07871 v 1.47091 H 43.86244 36.2084 v -1.5133 c 0,-1.18803 0.42774,-1.62968 1.99005,-2.05474 1.09453,-0.2978 1.9444,-0.78788 1.88861,-1.08908 -0.0558,-0.30119 -0.29688,-7.29849 -0.53576,-15.54954 -0.23888,-8.25105 -0.47845,-15.05751 -0.53238,-15.12546 -0.0539,-0.068 -2.84384,7.99124 -6.19979,17.90932 -4.77657,14.11653 -6.32661,18.03313 -7.13716,18.034 -0.56949,6.2e-4 -1.16472,-0.20806 -1.32273,-0.46374 z"
       id="path48" />
  </g>
  <g
     id="g68"
     transform="matrix(1.451895,0,0,1.451895,-175.46818,-226.54296)">
    <path
       style="fill:#ffffff;fill-opacity:1"
       d="m 477.08097,474.67808 v -10.71561 h 6.42939 6.42939 v 1.53081 c 0,1.49679 -0.10205,1.53081 -4.59242,1.53081 h -4.59242 v 2.75545 2.75545 h 3.9801 c 3.83722,0 3.98009,0.055 3.98009,1.53081 0,1.47586 -0.14287,1.53081 -3.98009,1.53081 h -3.9801 v 3.36778 3.36777 h 4.59242 c 4.49037,0 4.59242,0.034 4.59242,1.53081 v 1.53081 h -6.42939 -6.42939 z"
       id="path47" />
    <path
       style="fill:#ffffff;fill-opacity:1"
       d="m 450.75108,474.76302 v -10.80055 l 4.13318,0.003 c 2.27325,0.002 5.17401,0.29245 6.44613,0.64572 5.56476,1.54535 8.7438,7.14324 7.24384,12.75551 -1.44412,5.40335 -4.6667,7.44637 -12.44515,7.88988 l -5.378,0.30664 z m 9.29857,6.93545 c 4.68782,-1.302 6.86964,-6.78805 4.3775,-11.00691 -1.22796,-2.07876 -3.14541,-3.02602 -7.06501,-3.49024 l -2.93712,-0.34786 v 7.73933 7.73933 l 1.68388,-0.003 c 0.92614,-0.002 2.69948,-0.28549 3.94075,-0.63024 z"
       id="path46" />
    <path
       style="fill:#ffffff;fill-opacity:1"
       d="m 426.0625,475.78518 c 2.20165,-5.32379 4.14676,-10.1766 4.32246,-10.78401 0.23337,-0.80678 0.8108,-1.0543 2.14273,-0.91849 1.74853,0.17829 1.99628,0.60987 6.04323,10.52721 2.32098,5.68772 4.21996,10.44087 4.21996,10.56257 0,0.1217 -0.7892,0.22128 -1.75378,0.22128 -1.51444,0 -1.89739,-0.37604 -2.8061,-2.75546 l -1.05232,-2.75545 h -4.7214 -4.7214 l -0.94487,2.60237 c -0.80263,2.2106 -1.2299,2.63078 -2.83819,2.79099 l -1.89333,0.18861 z m 8.43458,-2.95804 c -0.82685,-2.19675 -1.50337,-4.18067 -1.50337,-4.40873 0,-0.22806 -0.2546,-0.15288 -0.56577,0.16706 -0.57284,0.58897 -3.10729,6.9307 -3.10786,7.7765 -1.7e-4,0.25259 1.50284,0.45925 3.34003,0.45925 h 3.34033 z"
       id="path45" />
    <path
       style="fill:#ffffff;fill-opacity:1"
       d="m 394.41736,474.67808 v -10.71561 h 1.73317 c 1.48264,0 2.21121,0.70808 5.04037,4.89859 1.81897,2.69422 3.45515,4.89858 3.63595,4.89858 0.18081,0 1.81698,-2.20436 3.63595,-4.89858 2.82916,-4.19051 3.55774,-4.89859 5.04038,-4.89859 h 1.73316 v 10.71565 10.71566 h -1.83697 -1.83696 l -0.005,-7.80712 -0.005,-7.80712 -3.14053,4.7455 c -1.72729,2.61003 -3.34922,4.74551 -3.60429,4.74551 -0.25507,0 -1.80191,-1.95973 -3.43743,-4.35496 l -2.97367,-4.35495 -0.17193,7.41657 -0.17192,7.41657 h -1.81813 -1.81812 z"
       id="path44" />
    <path
       style="fill:#ffffff;fill-opacity:1"
       d="m 367.47515,474.76302 v -10.80055 l 4.13318,0.003 c 2.27325,0.002 5.17401,0.29245 6.44613,0.64572 5.56476,1.54535 8.7438,7.14324 7.24384,12.75551 -1.44412,5.40335 -4.6667,7.44637 -12.44515,7.88988 l -5.378,0.30664 z m 9.29857,6.93545 c 4.68782,-1.302 6.86964,-6.78805 4.3775,-11.00691 -1.22796,-2.07876 -3.14541,-3.02602 -7.06501,-3.49024 l -2.93712,-0.34786 v 7.73933 7.73933 l 1.68389,-0.003 c 0.92613,-0.002 2.69947,-0.28549 3.94074,-0.63024 z"
       id="path43" />
    <path
       style="fill:#ffffff;fill-opacity:1"
       d="m 339.30829,474.67812 v -10.71565 h 1.74722 c 1.51777,0 2.52292,1.01654 7.65404,7.74078 l 5.90682,7.74078 v -7.74078 -7.74078 h 1.83696 1.83697 v 10.71565 10.71566 h -1.68678 c -1.4411,0 -2.53363,-1.11572 -7.50096,-7.66019 l -5.81417,-7.66018 -0.17138,7.66018 -0.17137,7.66019 h -1.81868 -1.81867 z"
       id="path42" />
    <path
       style="fill:#ffffff;fill-opacity:1"
       d="m 315.23203,475.78522 c 2.20166,-5.32379 4.14677,-10.1766 4.32247,-10.78401 0.23337,-0.80678 0.81079,-1.0543 2.14273,-0.91849 1.74852,0.17829 1.99627,0.60987 6.04323,10.52721 2.32097,5.68772 4.21995,10.44087 4.21995,10.56257 0,0.1217 -0.7892,0.22128 -1.75378,0.22128 -1.51444,0 -1.89738,-0.37604 -2.80609,-2.75546 l -1.05232,-2.75545 h -4.7214 -4.7214 l -0.94487,2.60237 c -0.80263,2.2106 -1.2299,2.63077 -2.8382,2.79099 l -1.89333,0.18861 z m 8.43458,-2.95804 c -0.82686,-2.19675 -1.50336,-4.18067 -1.50336,-4.40873 0,-0.22806 -0.2546,-0.15288 -0.56577,0.16706 -0.57284,0.58897 -3.10729,6.9307 -3.10786,7.7765 -1.7e-4,0.25259 1.50284,0.45925 3.34002,0.45925 h 3.34034 z"
       id="path41" />
    <path
       style="fill:#ffffff;fill-opacity:1"
       d="m 286.64851,474.67812 v -10.71565 h 1.83697 1.83697 v 4.28626 4.28626 h 5.20475 5.20474 v -4.28626 -4.28626 h 1.83697 1.83697 v 10.71565 10.71566 h -1.83697 -1.83697 v -4.89859 -4.89858 h -5.20474 -5.20475 v 4.89858 4.89859 h -1.83697 -1.83697 z"
       id="path3" />
  </g>
</svg>
