<?xml version="1.0" encoding="UTF-8" standalone="no"?>
<svg
   xmlns:dc="http://purl.org/dc/elements/1.1/"
   xmlns:cc="http://creativecommons.org/ns#"
   xmlns:rdf="http://www.w3.org/1999/02/22-rdf-syntax-ns#"
   xmlns:svg="http://www.w3.org/2000/svg"
   xmlns="http://www.w3.org/2000/svg"
   viewBox="0 0 150.01334 150.01334"
   height="150.01334"
   width="150.01334"
   xml:space="preserve"
   id="svg2"
   version="1.1"><metadata
     id="metadata8"><rdf:RDF><cc:Work
         rdf:about=""><dc:format>image/svg+xml</dc:format><dc:type
           rdf:resource="http://purl.org/dc/dcmitype/StillImage" /></cc:Work></rdf:RDF></metadata><defs
     id="defs6"><clipPath
       id="clipPath18"
       clipPathUnits="userSpaceOnUse"><path
         id="path16"
         d="M 0,112.51 H 112.51 V 0 H 0 Z" /></clipPath></defs><g
     transform="matrix(1.3333333,0,0,-1.3333333,0,150.01333)"
     id="g10"><g
       id="g12"><g
         clip-path="url(#clipPath18)"
         id="g14"><g
           transform="translate(21.9248,35.7656)"
           id="g20"><path
             id="path22"
             style="fill:#231f20;fill-opacity:1;fill-rule:nonzero;stroke:none"
             d="m 0,0 h 2.368 c 0.256,0 0.4,0.081 0.4,0.561 0,0.879 -0.751,1.408 -1.633,1.408 -1.055,0 -1.791,-0.848 -1.791,-1.84 0,-0.192 0.048,-0.273 0.177,-0.273 C -0.336,-0.144 -0.144,0 0,0" /></g><g
           transform="translate(62.5571,18.3867)"
           id="g24"><path
             id="path26"
             style="fill:#231f20;fill-opacity:1;fill-rule:nonzero;stroke:none"
             d="M 0,0 C -0.504,1.68 -0.672,1.776 -0.96,1.776 -1.2,1.776 -0.937,1.392 -1.344,0 l -1.032,-3.624 c -0.025,-0.072 -0.048,-0.146 -0.048,-0.192 0,-0.168 0.12,-0.241 0.384,-0.241 h 2.832 c 0.263,0 0.336,0.049 0.336,0.169 0,0.072 0,0.168 -0.048,0.312 z" /></g><g
           transform="translate(51.5239,34.583)"
           id="g28"><path
             id="path30"
             style="fill:#231f20;fill-opacity:1;fill-rule:nonzero;stroke:none"
             d="m 0,0 c 0,2.031 -0.735,3.008 -2.016,3.008 -1.263,0 -1.967,-1.154 -1.967,-2.88 0,-1.857 0.752,-2.881 1.983,-2.881 1.185,0 2,0.897 2,2.753" /></g><g
           transform="translate(32.9805,37.7813)"
           id="g32"><path
             id="path34"
             style="fill:#231f20;fill-opacity:1;fill-rule:nonzero;stroke:none"
             d="m 0,0 c -0.784,0 -1.296,-0.591 -1.296,-1.535 0,-0.817 0.385,-1.535 1.265,-1.535 0.879,0 1.327,0.687 1.327,1.551 C 1.296,-0.383 0.784,0 0,0" /></g><g
           transform="translate(11.2046,40.5508)"
           id="g36"><path
             id="path38"
             style="fill:#231f20;fill-opacity:1;fill-rule:nonzero;stroke:none"
             d="m 0,0 c -0.591,0 -1.248,-0.048 -1.568,-0.098 -0.191,-0.031 -0.272,-0.047 -0.272,-0.238 0,-0.24 0.064,-0.513 0.064,-1.072 V -3.2 c 0,-0.432 0.064,-0.64 0.513,-0.752 0.271,-0.065 0.672,-0.112 1.168,-0.112 1.247,0 2.047,0.671 2.047,1.984 C 1.952,-0.801 1.28,0 0,0" /></g><g
           transform="translate(19.4131,21.0029)"
           id="g40"><path
             id="path42"
             style="fill:#231f20;fill-opacity:1;fill-rule:nonzero;stroke:none"
             d="m 0,0 c -0.696,0 -1.417,-0.073 -1.848,-0.145 -0.216,-0.023 -0.336,-0.072 -0.336,-0.383 0,-0.361 0.096,-0.889 0.096,-1.561 v -2.183 c 0,-0.577 0.072,-0.817 0.624,-0.96 0.336,-0.096 0.792,-0.144 1.344,-0.144 1.56,0 2.64,0.912 2.64,2.664 C 2.52,-1.032 1.68,0 0,0" /></g><g
           transform="translate(107.208,18.5547)"
           id="g44"><path
             id="path46"
             style="fill:#231f20;fill-opacity:1;fill-rule:nonzero;stroke:none"
             d="m 0,0 c 0,-1.056 0.383,-1.512 1.416,-1.512 h 3.768 c 0.05,0 0.082,-0.005 0.118,-0.008 V 1.752 C 4.648,2.058 3.772,2.256 2.903,2.256 1.176,2.256 0,1.584 0,0" /></g><g
           transform="translate(107.9521,14.1387)"
           id="g48"><path
             id="path50"
             style="fill:#231f20;fill-opacity:1;fill-rule:nonzero;stroke:none"
             d="m 0,0 c -1.008,0 -1.439,-0.744 -1.439,-1.68 0,-1.8 0.983,-3 3.238,-3 1.394,0 2.307,0.595 2.759,1.326 V 0.002 C 4.521,0.002 4.486,0 4.439,0 Z" /></g><g
           transform="translate(94.0342,55.2227)"
           id="g52"><path
             id="path54"
             style="fill:#231f20;fill-opacity:1;fill-rule:nonzero;stroke:none"
             d="m 0,0 c -5.477,-2.358 -7.872,-1.595 -8.536,-1.262 0.767,-0.468 3.601,-2.407 5.996,-6.736 2.797,-5.059 2.543,-8.39 2.543,-8.39 -14.029,3.591 -27.372,9.593 -39.225,17.949 C -50.7,9.652 -60.49,19.881 -68.34,31.5 c 11.22,-8.309 23.48,-11.254 36.306,-12.068 20.452,-1.297 30.989,9.725 30.989,9.725 0,0 0.859,-2.301 -1.484,-8.389 -2.349,-6.094 -5.458,-7.796 -5.458,-7.796 0,0 2.385,1.374 8.045,-0.231 C 5.723,11.136 10.917,8.417 10.917,8.417 10.917,8.417 6.608,2.847 0,0 m 7.289,-48.164 c -0.456,-0.264 -1.344,-0.528 -2.04,-0.528 -1.848,0 -2.95,1.007 -2.95,3.456 v 5.423 c 0,3.481 -0.601,5.233 -3.097,5.233 -2.425,0 -3.023,-2.208 -3.023,-5.208 v -7.344 c 0,-0.216 0.023,-0.721 0.023,-0.889 0,-0.359 -0.049,-0.431 -0.312,-0.431 -0.12,0 -1.368,0.096 -1.368,0.096 0,0 -1.296,-0.096 -1.511,-0.096 -0.168,0 -0.241,0.12 -0.241,0.36 0,0.264 0.023,0.624 0.023,0.912 v 7.848 c 0,1.367 0.218,2.592 0.672,3.48 0.097,0.192 0.264,0.6 0.264,0.816 0,0.264 -0.144,0.48 -0.456,0.768 l -1.032,0.936 c -0.072,0.047 -0.311,0.336 -0.336,0.383 -0.047,0.097 -0.095,0.193 -0.095,0.265 0,0.096 0.048,0.168 0.169,0.24 l 0.982,0.624 c 0.05,0.024 0.504,0.312 0.554,0.336 0.094,0.048 0.168,0.048 0.262,0.048 0.144,0 0.265,-0.048 0.41,-0.144 l 1.127,-0.864 c 0.191,-0.144 0.408,-0.24 0.599,-0.24 0.24,0 0.696,0.168 0.889,0.264 0.912,0.455 1.8,0.815 2.881,0.815 3.55,0 6,-1.847 6,-7.607 v -5.401 c 0,-0.767 0.262,-1.103 0.671,-1.103 0.479,0 0.744,0.336 0.96,0.336 0.143,0 0.193,-0.048 0.193,-0.265 0,-0.215 -0.073,-1.127 -0.073,-1.127 0,0 0.096,-0.792 0.096,-1.032 0,-0.192 -0.049,-0.24 -0.241,-0.36 m -17.497,1.128 c 0,-0.312 -0.097,-0.312 -0.265,-0.312 -0.215,0 -1.32,0.071 -1.631,0.071 -0.288,0 -0.505,-0.071 -0.649,-0.191 -0.912,-0.768 -2.4,-1.224 -4.032,-1.224 -3.911,0 -6.192,2.304 -6.192,8.448 0,5.951 2.832,8.639 6.433,8.639 1.463,0 3,-0.383 3.863,-1.151 0.145,-0.144 0.313,-0.217 0.528,-0.217 0.312,0 1.056,0.024 1.225,0.024 0.095,0 0.167,-0.119 0.167,-0.215 0,-0.216 -0.024,-1.872 -0.024,-1.872 0,0 0.048,-1.824 0.048,-2.016 0,-0.241 -0.024,-0.288 -0.24,-0.288 -0.168,0 -1.079,0.047 -1.079,0.047 l -1.081,-0.119 c -0.144,0 -0.239,0.024 -0.239,0.192 0,1.848 -1.272,2.783 -2.617,2.783 -2.784,0 -3.312,-2.951 -3.312,-5.663 0,-5.088 1.632,-5.713 3.265,-5.713 1.824,0 2.687,0.84 2.687,2.017 v 0.526 c 0,0.41 -0.144,0.625 -0.527,0.625 h -1.201 c -0.24,0 -0.455,-0.095 -0.552,-0.095 0,0 -0.168,0.072 -0.168,0.144 0,0.287 0.073,1.2 0.073,1.2 0,0 -0.025,0.767 -0.025,1.008 0,0.118 0.049,0.216 0.361,0.216 h 5.039 c 0.29,0 0.384,-0.098 0.384,-0.216 0,-0.168 -0.287,-0.624 -0.287,-1.032 v -3.792 c 0,0 0.048,-1.272 0.048,-1.824 m -19.533,22.764 c 0,-0.177 -0.032,-0.224 -0.193,-0.224 -0.112,0 -0.624,0.047 -0.624,0.047 0,0 -0.496,-0.047 -0.592,-0.047 -0.176,0 -0.192,0.031 -0.192,0.224 0,0.127 0.016,0.335 0.016,0.463 v 3.297 c 0,1.856 -0.512,2.783 -1.808,2.783 -1.471,0 -1.904,-1.167 -1.904,-2.783 v -3.344 c 0,-0.096 0.016,-0.384 0.016,-0.464 0,-0.129 -0.032,-0.176 -0.207,-0.176 -0.113,0 -0.609,0.047 -0.609,0.047 0,0 -0.399,-0.047 -0.544,-0.047 -0.16,0 -0.223,0 -0.223,0.16 0,0.128 0.015,0.304 0.015,0.448 v 3.696 c 0,0.96 0.208,1.391 0.384,1.712 0.064,0.112 0.097,0.208 0.097,0.288 0,0.128 -0.097,0.255 -0.257,0.399 l -0.672,0.608 c -0.096,0.08 -0.144,0.161 -0.144,0.241 0,0.064 0.032,0.112 0.097,0.143 l 0.543,0.352 c 0.081,0.049 0.097,0.065 0.176,0.065 0.064,0 0.129,-0.05 0.176,-0.081 l 0.768,-0.543 c 0.112,-0.08 0.208,-0.097 0.288,-0.097 0.112,0 0.24,0.081 0.368,0.161 0.641,0.4 1.201,0.56 2.048,0.56 1.552,0 2.945,-1.057 2.945,-3.808 v -3.281 c 0,-0.367 0.032,-0.623 0.032,-0.799 m 5.512,-23.988 c -0.456,-0.24 -1.295,-0.432 -1.92,-0.432 -1.248,0 -2.184,0.551 -2.641,2.087 l -0.719,2.376 c -0.073,0.264 -0.073,1.033 -0.648,1.033 -0.217,0 -0.841,-0.336 -1.176,-0.336 l -2.497,-0.024 c -0.551,0 -0.72,-0.049 -0.887,-0.624 l -0.888,-3.049 c -0.265,-0.935 -0.145,-1.367 -0.553,-1.367 -0.239,0 -1.343,0.168 -1.343,0.168 h -1.657 c -0.216,0 -0.239,0.072 -0.239,0.24 0,0.215 0.216,0.648 0.407,1.247 l 4.009,13.057 c 0.527,1.704 0.239,2.016 1.296,2.016 0.216,0 1.439,-0.073 1.439,-0.073 0,0 1.441,0.073 1.561,0.073 0.72,0 0.815,-0.024 1.344,-1.728 l 3.336,-10.56 c 0.336,-1.056 0.649,-1.416 1.127,-1.416 0.288,0 0.553,0.168 0.672,0.168 0.12,0 0.169,-0.073 0.169,-0.264 0,-0.24 -0.072,-1.008 -0.072,-1.008 0,0 0.12,-0.984 0.12,-1.2 0,-0.24 -0.024,-0.265 -0.24,-0.384 m -23.945,27.795 c 0,1.393 0.656,2.609 1.297,3.169 0.832,0 1.104,0.912 2.592,0.912 2.111,0 3.439,-1.376 3.439,-4.256 0,-2.704 -1.487,-4.016 -3.615,-4.016 -2.608,0 -3.713,1.616 -3.713,4.191 m 8.348,-14.259 c -0.264,0 -0.744,0.048 -1.488,0.048 h -2.088 c -0.624,0 -0.696,-0.216 -0.696,-0.625 v -9.215 c 0,-0.984 0.312,-1.2 0.696,-1.2 0.383,0 0.744,0.336 0.96,0.336 0.12,0 0.192,-0.024 0.192,-0.241 V -46.7 c 0,0 0.144,-0.96 0.144,-1.104 0,-0.192 -0.048,-0.24 -0.241,-0.36 -0.551,-0.336 -1.775,-0.528 -2.303,-0.528 -1.897,0 -2.832,0.984 -2.832,3.024 v 9.552 c 0,0.336 0.263,0.96 0.263,1.2 0,0.144 -0.143,0.264 -0.456,0.264 -0.239,0 -1.775,-0.024 -1.823,-0.024 -0.36,0 -1.968,-0.096 -2.16,-0.096 -0.24,0 -0.288,0.096 -0.288,0.264 0,0.192 0.048,1.296 0.048,1.296 0,0 -0.072,0.816 -0.072,1.008 0,0.288 0.072,0.336 0.384,0.336 h 10.416 c 1.056,0 1.224,0.288 1.487,0.288 0.049,0 0.145,-0.025 0.145,-0.144 0,-0.264 -0.048,-1.249 -0.048,-1.249 0,0 0.072,-1.271 0.072,-1.464 0,-0.239 -0.072,-0.287 -0.312,-0.287 M -53.838,-14 c 0,0.144 0.032,0.223 0.175,0.223 h 0.993 c 0.128,0 0.175,-0.079 0.175,-0.207 0,-0.145 -0.047,-0.304 -0.047,-0.416 0,-0.161 0.047,-0.352 0.047,-0.496 0,-0.128 -0.031,-0.209 -0.16,-0.209 h -0.991 c -0.145,0 -0.192,0.097 -0.192,0.241 0,0.128 0.032,0.303 0.032,0.48 0,0.128 -0.032,0.271 -0.032,0.384 m 1.472,-10.496 c -0.16,0 -0.736,0.047 -0.736,0.047 0,0 -0.513,-0.047 -0.671,-0.047 -0.128,0 -0.161,0.047 -0.161,0.176 0,0.096 0.016,0.24 0.016,0.416 v 6.016 c 0,0.4 -0.048,0.848 -0.048,1.072 0,0.224 0.048,0.255 0.208,0.255 0.095,0 0.624,-0.047 0.624,-0.047 0,0 0.496,0.047 0.624,0.047 0.144,0 0.176,-0.031 0.176,-0.175 0,-0.113 -0.032,-0.304 -0.032,-0.496 v -5.905 c 0,-0.672 0.112,-1.039 0.112,-1.216 0,-0.096 -0.033,-0.143 -0.112,-0.143 m -5.967,5.568 c 0,-1.616 -1.12,-2.56 -2.544,-2.56 -0.289,0 -0.368,-0.224 -0.368,-0.657 0,-0.911 2.079,-1.584 2.079,-3.263 0,-1.312 -1.024,-2.08 -2.496,-2.08 -0.32,0 -0.544,0.015 -0.768,0.08 -0.128,0.032 -0.143,0.064 -0.159,0.16 -0.016,0.16 -0.08,0.544 -0.08,0.544 0,0 -0.128,0.544 -0.128,0.608 0,0.08 0.031,0.112 0.111,0.112 0.097,0 0.561,-0.176 0.929,-0.176 0.575,0 0.96,0.24 0.96,0.752 0,1.136 -2.017,1.584 -2.017,3.168 0,0.368 0.241,0.576 0.241,0.736 v 0.096 c 0,0.16 -0.016,0.208 -0.289,0.4 -0.656,0.464 -0.927,1.199 -0.927,2 0,1.535 1.008,2.543 2.672,2.543 0.575,0 2.384,-0.096 2.704,-0.096 0.08,0 0.128,-0.08 0.128,-0.127 0,-0.161 -0.32,-0.272 -0.32,-0.672 0,-0.321 0.272,-0.944 0.272,-1.568 m 5.244,-28.204 c -0.192,0 -0.888,0.048 -0.936,0.048 -0.264,0 -0.359,-0.048 -0.647,-0.264 -1.344,-1.008 -3.145,-1.344 -4.825,-1.344 -3.744,0 -5.976,1.944 -5.976,5.352 0,2.496 1.392,3.552 1.392,4.367 0,0.649 -0.431,1.441 -0.431,2.569 0,3.192 2.616,4.799 5.639,4.799 1.537,0 3.096,-0.191 4.176,-0.791 0.24,-0.144 0.288,-0.192 0.288,-0.408 0,-0.169 -0.311,-1.2 -0.311,-1.2 0,0 -0.025,-1.464 -0.193,-1.464 0,0 -0.216,0.048 -0.384,0.191 -0.623,0.505 -1.824,0.865 -3,0.865 -1.728,0 -2.904,-0.672 -2.904,-2.256 0,-1.056 0.384,-1.512 1.416,-1.512 h 3.769 c 0.336,0 0.359,-0.049 0.359,-0.36 0,-0.168 -0.048,-1.056 -0.048,-1.056 0,0 0.072,-0.96 0.072,-1.2 0,-0.288 -0.12,-0.288 -0.383,-0.288 h -4.441 c -1.008,0 -1.439,-0.744 -1.439,-1.68 0,-1.8 0.983,-3 3.239,-3 2.065,0 3.097,1.296 3.097,2.424 0,0.216 0.023,0.288 0.216,0.288 0.168,0 0.96,-0.024 0.96,-0.024 0,0 1.103,0.048 1.271,0.048 0.217,0 0.265,-0.024 0.265,-0.288 0,-0.36 -0.048,-1.633 -0.048,-1.633 0,0 0.071,-1.535 0.071,-1.919 0,-0.168 -0.071,-0.264 -0.264,-0.264 m -13.972,-0.744 c 0,-0.192 -0.072,-0.288 -0.24,-0.36 -0.672,-0.288 -1.08,-0.456 -1.824,-0.456 -1.56,0 -2.544,0.671 -3.36,2.28 l -1.992,3.96 c -0.192,0.384 -0.36,0.503 -0.768,0.528 -1.224,0.096 -0.961,0.071 -1.104,0.071 -0.313,0 -0.36,-0.168 -0.36,-0.479 v -5.76 c 0,-0.24 -0.024,-0.36 -0.264,-0.36 -0.216,0 -1.416,0.096 -1.465,0.096 -0.071,0 -1.295,-0.096 -1.511,-0.096 -0.144,0 -0.168,0.048 -0.168,0.12 0,0.168 0.144,0.432 0.144,0.6 v 15.192 c 0,0.311 0.12,0.408 0.288,0.432 1.368,0.24 3.864,0.408 5.855,0.408 3.049,0 5.209,-1.464 5.209,-4.921 0,-1.992 -1.056,-3.672 -2.52,-4.367 -0.216,-0.096 -0.289,-0.192 -0.289,-0.289 0,-0.071 0.049,-0.167 0.121,-0.311 0.48,-0.936 1.152,-2.112 1.632,-2.976 0.48,-0.84 1.009,-1.128 1.465,-1.128 0.575,0 0.792,0.264 1.031,0.264 0.12,0 0.168,-0.072 0.168,-0.217 0,-0.168 -0.096,-1.271 -0.096,-1.271 0,0 0.048,-0.816 0.048,-0.96 m -13.961,24.548 -1.504,2.848 c -0.16,0.32 -0.336,0.432 -0.656,0.463 -0.703,0.065 -1.024,0.097 -1.168,0.097 -0.223,0 -0.255,-0.144 -0.255,-0.352 v -1.665 -2.367 c 0,-0.112 0,-0.192 -0.144,-0.192 -0.096,0 -0.64,0.031 -0.72,0.047 -0.08,-0.016 -0.64,-0.047 -0.752,-0.047 -0.097,0 -0.097,0.016 -0.097,0.064 0,0.079 0.081,0.24 0.081,0.352 v 10.224 c 0,0.208 0.064,0.272 0.175,0.288 0.769,0.127 2.416,0.24 3.584,0.24 1.92,0 3.345,-1.008 3.345,-3.28 0,-1.344 -0.737,-2.448 -1.681,-2.865 -0.16,-0.063 -0.224,-0.128 -0.224,-0.223 0,-0.064 0.033,-0.144 0.097,-0.256 0.383,-0.72 1.024,-1.792 1.407,-2.448 0.321,-0.528 0.593,-0.656 0.88,-0.656 0.321,0 0.481,0.144 0.592,0.144 0.08,0 0.097,-0.065 0.097,-0.144 0,-0.081 -0.049,-0.608 -0.049,-0.608 0,0 0.016,-0.449 0.016,-0.56 0,-0.096 -0.032,-0.112 -0.127,-0.176 -0.208,-0.144 -0.752,-0.256 -0.977,-0.256 -0.832,0 -1.424,0.4 -1.92,1.328 m -4.734,72.491 c 0,0 4.185,0.864 8.781,-3.613 4.596,-4.471 3.568,-8.983 3.568,-8.983 0,0 -4.414,-1.235 -8.901,3.343 -4.487,4.576 -3.448,9.253 -3.448,9.253 m 8.943,-26.556 c -5.098,-3.86 -8.992,-1.53 -8.992,-1.53 0,0 -0.24,4.316 4.529,8.123 4.77,3.803 8.851,2.287 8.851,2.287 0,0 0.714,-5.02 -4.388,-8.88 m 5.552,-37.887 0.447,1.664 c 0.081,0.272 0.065,0.368 0.177,0.368 0.095,0 0.192,-0.017 0.336,-0.017 h 0.96 c 0.112,0 0.224,0 0.224,-0.111 0,-0.065 -0.016,-0.128 -0.065,-0.208 l -0.8,-1.537 c -0.368,-0.719 -0.288,-0.751 -0.527,-0.751 h -0.817 c -0.127,0 -0.143,0.032 -0.143,0.095 0,0.081 0.111,0.129 0.208,0.497 m 0.719,-7.952 c 0.865,0 1.856,0.4 2.272,0.879 0.08,0.081 0.145,0.113 0.208,0.113 0.08,0 0.113,-0.048 0.113,-0.16 0,-0.161 -0.065,-0.672 -0.065,-0.672 0,0 0.016,-0.48 0.016,-0.624 0,-0.097 -0.016,-0.16 -0.111,-0.241 -0.577,-0.447 -1.728,-0.719 -2.657,-0.719 -2.495,0 -3.743,1.551 -3.743,4.16 0,2.416 1.296,4.112 3.632,4.112 1.711,0 3.023,-0.881 3.023,-2.704 0,-0.256 -0.08,-0.705 -0.16,-0.976 -0.095,-0.32 -0.208,-0.401 -0.495,-0.401 h -3.761 c -0.416,0 -0.575,-0.047 -0.575,-0.336 0,-1.423 0.911,-2.431 2.303,-2.431 m 5.776,68.259 c 3.971,4.634 8.275,4.245 8.275,4.245 0,0 2.194,-3.972 -1.84,-8.933 -4.035,-4.964 -9.027,-4.078 -9.027,-4.078 0,0 -1.373,4.132 2.592,8.766 m -29.268,12.26 v -89.228 c 0.011,0.036 0.029,0.049 0.069,0.049 0.071,0 0.263,-0.073 0.336,-0.073 0.359,0 3.288,0.265 5.496,0.265 3.264,0 5.064,-1.416 5.064,-4.104 0,-1.344 -0.648,-2.592 -1.632,-3.169 -0.216,-0.119 -0.312,-0.215 -0.312,-0.383 0,-0.144 0.119,-0.24 0.336,-0.312 1.56,-0.48 2.544,-2.04 2.544,-3.937 0,-3.311 -2.28,-5.087 -5.784,-5.087 -1.896,0 -3.36,0.504 -4.32,1.704 -0.264,0.336 -0.288,0.383 -0.672,0.383 h -0.888 c -0.189,0 -0.235,0.073 -0.237,0.376 v -8.994 h 112.51 v 7.184 c -1.119,-0.475 -2.388,-0.653 -3.599,-0.653 -3.743,0 -5.975,1.944 -5.975,5.352 0,2.496 1.392,3.552 1.392,4.367 0,0.649 -0.433,1.441 -0.433,2.569 0,3.192 2.618,4.799 5.641,4.799 1.035,0 2.07,-0.1 2.974,-0.34 v 89.232 z" /></g><g
           transform="translate(3.5732,16.8262)"
           id="g56"><path
             id="path58"
             style="fill:#231f20;fill-opacity:1;fill-rule:nonzero;stroke:none"
             d="m 0,0 h 1.799 c 1.273,0 2.257,0.553 2.257,2.28 0,1.416 -0.984,2.065 -2.16,2.065 C 1.032,4.345 0.191,4.297 -0.072,4.248 -0.313,4.2 -0.36,4.104 -0.36,3.721 V 0.385 C -0.36,0.119 -0.336,0 0,0" /></g><g
           transform="translate(5.7813,9.0029)"
           id="g60"><path
             id="path62"
             style="fill:#231f20;fill-opacity:1;fill-rule:nonzero;stroke:none"
             d="m 0,0 c 1.583,0 2.496,1.056 2.496,2.783 0,2.065 -1.345,2.641 -2.953,2.641 H -2.16 c -0.168,0 -0.193,0.216 -0.312,0.216 -0.072,0 -0.096,-0.12 -0.096,-0.6 V 2.95 C -2.568,1.224 -1.824,0 0,0" /></g></g></g></g></svg>