<?xml version="1.0" encoding="UTF-8" standalone="no"?>
<!-- Created with Inkscape (http://www.inkscape.org/) -->

<svg
   version="1.1"
   id="svg1"
   width="771.1944"
   height="99.656006"
   viewBox="0 0 771.19438 99.656005"
   xmlns="http://www.w3.org/2000/svg"
   xmlns:svg="http://www.w3.org/2000/svg">
  <defs
     id="defs1">
    <clipPath
       clipPathUnits="userSpaceOnUse"
       id="clipPath5">
      <path
         d="M 0,595.276 H 841.89 V 0 H 0 Z"
         transform="translate(-355.65261,-280.05991)"
         id="path5" />
    </clipPath>
    <clipPath
       clipPathUnits="userSpaceOnUse"
       id="clipPath7">
      <path
         d="M 0,595.276 H 841.89 V 0 H 0 Z"
         transform="translate(-582.87982,-332.80831)"
         id="path7" />
    </clipPath>
    <clipPath
       clipPathUnits="userSpaceOnUse"
       id="clipPath9">
      <path
         d="M 0,595.276 H 841.89 V 0 H 0 Z"
         transform="translate(-529.71151,-280.06001)"
         id="path9" />
    </clipPath>
    <clipPath
       clipPathUnits="userSpaceOnUse"
       id="clipPath11">
      <path
         d="M 0,595.276 H 841.89 V 0 H 0 Z"
         transform="translate(-698.95012,-332.80831)"
         id="path11" />
    </clipPath>
    <clipPath
       clipPathUnits="userSpaceOnUse"
       id="clipPath13">
      <path
         d="M 0,595.276 H 841.89 V 0 H 0 Z"
         transform="translate(-370.06191,-332.80831)"
         id="path13" />
    </clipPath>
    <clipPath
       clipPathUnits="userSpaceOnUse"
       id="clipPath15">
      <path
         d="M 0,595.276 H 841.89 V 0 H 0 Z"
         transform="translate(-257.96661,-277.87811)"
         id="path15" />
    </clipPath>
    <clipPath
       clipPathUnits="userSpaceOnUse"
       id="clipPath17">
      <path
         d="M 0,595.276 H 841.89 V 0 H 0 Z"
         transform="translate(-394.15121,-326.20641)"
         id="path17" />
    </clipPath>
    <clipPath
       clipPathUnits="userSpaceOnUse"
       id="clipPath19">
      <path
         d="M 0,595.276 H 841.89 V 0 H 0 Z"
         transform="translate(-444.99701,-273.11441)"
         id="path19" />
    </clipPath>
    <clipPath
       clipPathUnits="userSpaceOnUse"
       id="clipPath21">
      <path
         d="M 0,595.276 H 841.89 V 0 H 0 Z"
         transform="translate(-195.02541,-310.64571)"
         id="path21" />
    </clipPath>
    <clipPath
       clipPathUnits="userSpaceOnUse"
       id="clipPath23">
      <path
         d="M 0,595.276 H 841.89 V 0 H 0 Z"
         transform="translate(-650.52722,-332.80831)"
         id="path23" />
    </clipPath>
    <clipPath
       clipPathUnits="userSpaceOnUse"
       id="clipPath25">
      <path
         d="M 0,595.276 H 841.89 V 0 H 0 Z"
         transform="translate(-715.06132,-327.71081)"
         id="path25" />
    </clipPath>
  </defs>
  <g
     id="layer-MC0"
     transform="translate(-188.694,-347.02252)">
    <path
       id="path4"
       d="m 0,0 -35.367,0.012 c -0.516,0 -0.859,0.534 -0.645,1.003 l 22.742,49.727 c 0.429,0.938 -0.257,2.006 -1.289,2.006 h -15.312 c -1.109,0 -2.117,-0.647 -2.578,-1.655 l -30.494,-66.678 c -0.429,-0.938 0.257,-2.006 1.289,-2.007 l 53.992,-0.004 c 1.11,0 2.117,0.647 2.578,1.656 L 1.288,-2.007 C 1.718,-1.068 1.032,0 0,0"
       style="fill:#ffffff;fill-opacity:1;fill-rule:nonzero;stroke:none"
       transform="matrix(1.3333333,0,0,-1.3333333,474.20347,420.28813)"
       clip-path="url(#clipPath5)" />
    <path
       id="path6"
       d="m 0,0 h -15.312 c -1.11,0 -2.117,-0.647 -2.578,-1.656 l -30.494,-66.677 c -0.429,-0.939 0.257,-2.007 1.289,-2.007 l 15.312,-10e-4 c 1.109,0 2.116,0.647 2.578,1.656 L 1.289,-2.007 C 1.718,-1.068 1.032,0 0,0"
       style="fill:#ffffff;fill-opacity:1;fill-rule:nonzero;stroke:none"
       transform="matrix(1.3333333,0,0,-1.3333333,777.17307,349.95693)"
       clip-path="url(#clipPath7)" />
    <path
       id="path8"
       d="m 0,0 -25.741,0.011 c -0.516,0 -0.859,0.534 -0.644,1.003 l 22.741,49.728 c 0.43,0.938 -0.256,2.006 -1.288,2.006 h -15.313 c -1.109,0 -2.116,-0.647 -2.577,-1.655 l -30.494,-66.678 c -0.43,-0.939 0.256,-2.007 1.288,-2.007 l 44.366,-0.004 c 1.11,0 2.117,0.647 2.578,1.656 L 1.288,-2.007 C 1.718,-1.068 1.032,0 0,0"
       style="fill:#ffffff;fill-opacity:1;fill-rule:nonzero;stroke:none"
       transform="matrix(1.3333333,0,0,-1.3333333,706.282,420.288)"
       clip-path="url(#clipPath9)" />
    <path
       id="path10"
       d="m 0,0 h -34.767 c -1.109,0 -2.116,-0.647 -2.577,-1.656 l -30.494,-66.677 c -0.43,-0.939 0.256,-2.007 1.289,-2.007 h 44.608 c 1.109,0 2.116,0.647 2.578,1.656 l 6.377,13.945 c 0.429,0.938 -0.257,2.006 -1.289,2.006 h -25.986 c -0.516,0 -0.859,0.535 -0.644,1.004 l 3.166,6.924 c 0.231,0.504 0.734,0.827 1.289,0.828 l 21.685,0.013 c 1.109,0 2.115,0.647 2.576,1.655 l 6.368,13.925 c 0.43,0.938 -0.257,2.006 -1.289,2.006 h -21.098 c -0.516,0 -0.859,0.534 -0.644,1.004 l 3.177,6.947 c 0.23,0.504 0.734,0.827 1.288,0.828 l 16.732,0.012 c 1.108,0.001 2.115,0.648 2.576,1.656 L 1.289,-2.007 C 1.718,-1.068 1.032,0 0,0"
       style="fill:#ffffff;fill-opacity:1;fill-rule:nonzero;stroke:none"
       transform="matrix(1.3333333,0,0,-1.3333333,931.93347,349.95693)"
       clip-path="url(#clipPath11)" />
    <path
       id="path12"
       d="m 0,0 h -15.312 c -1.109,0 -2.116,-0.647 -2.577,-1.656 L -36.32,-41.957 c -0.43,-0.939 0.256,-2.007 1.288,-2.007 l 25.024,10e-4 c 1.109,0 2.116,0.647 2.577,1.655 l 6.369,13.926 c 0.429,0.938 -0.256,2.006 -1.287,2.007 l -6.4,0.007 c -0.516,0 -0.859,0.534 -0.644,1.003 L 1.289,-2.007 C 1.718,-1.068 1.032,0 0,0"
       style="fill:#ffffff;fill-opacity:1;fill-rule:nonzero;stroke:none"
       transform="matrix(1.3333333,0,0,-1.3333333,493.41587,349.95693)"
       clip-path="url(#clipPath13)" />
    <path
       id="path14"
       d="m 0,0 c -11.537,0 -20.923,8.864 -20.923,19.76 0,10.895 9.386,19.76 20.923,19.76 11.537,0 20.923,-8.865 20.923,-19.76 C 20.923,8.864 11.537,0 0,0 m 0,57.131 c -21.855,0 -39.572,-16.732 -39.572,-37.371 0,-20.64 17.717,-37.371 39.572,-37.371 21.855,0 39.572,16.731 39.572,37.371 0,20.639 -17.717,37.371 -39.572,37.371"
       style="fill:#ffffff;fill-opacity:1;fill-rule:nonzero;stroke:none"
       transform="matrix(1.3333333,0,0,-1.3333333,343.95547,423.1972)"
       clip-path="url(#clipPath15)" />
    <path
       id="path16"
       d="M 0,0 C -0.277,0 -0.529,-0.162 -0.644,-0.414 L -3.245,-6.1 c -0.107,-0.235 0.064,-0.502 0.322,-0.502 H 20.415 L 23.489,0 Z"
       style="fill:#ffffff;fill-opacity:1;fill-rule:nonzero;stroke:none"
       transform="matrix(1.3333333,0,0,-1.3333333,525.53493,358.75947)"
       clip-path="url(#clipPath17)" />
    <path
       id="path18"
       d="m 0,0 -21.599,13.136 c -0.097,0.059 -0.216,0.068 -0.32,0.024 L -43.285,4.287 C -43.46,4.214 -43.612,4.43 -43.484,4.57 l 12.587,13.725 c 0.151,0.164 0.114,0.426 -0.077,0.542 l -14.222,8.649 c -0.153,0.093 -0.087,0.329 0.092,0.329 h 22.783 c 0.099,0 0.194,0.042 0.261,0.115 l 17.193,18.747 c 0.103,0.113 0.291,0.051 0.307,-0.101 l 1.919,-18.443 c 0.019,-0.181 0.171,-0.318 0.352,-0.318 h 14.767 c 0.194,0 0.247,-0.267 0.068,-0.341 L -1.703,21.556 c -0.144,-0.06 -0.232,-0.208 -0.216,-0.363 L 0.268,0.17 C 0.283,0.024 0.125,-0.076 0,0 m 4.193,18.048 35.123,14.587 c 0.358,0.148 0.252,0.681 -0.136,0.681 H 2.67 c -0.182,0 -0.334,0.137 -0.353,0.318 l -2.678,25.742 c -0.019,0.18 -0.171,0.317 -0.352,0.317 h -23.17 c -0.277,0 -0.529,-0.161 -0.644,-0.413 l -2.83,-6.188 h 20.909 l -6.055,-6.602 h -17.928 l -2.789,-6.099 c -0.108,-0.235 0.064,-0.502 0.322,-0.502 h 14.341 l -5.817,-6.343 c -0.134,-0.146 -0.324,-0.23 -0.522,-0.23 h -39.209 c -0.358,0 -0.49,-0.471 -0.184,-0.657 l 24.732,-15.042 c 0.191,-0.116 0.228,-0.377 0.077,-0.542 l -24.344,-26.54 c -0.257,-0.28 0.046,-0.713 0.397,-0.567 l 20.968,8.707 -1.016,-2.222 c -0.107,-0.235 0.064,-0.502 0.322,-0.502 h 18.715 l 3.019,6.602 H -33.12 l 10.566,4.388 c 0.209,0.086 0.447,0.068 0.64,-0.049 l 1.94,-1.18 -1.445,-3.159 h 6.638 l 10.853,-6.602 h -20.51 l -2.789,-6.1 c -0.108,-0.234 0.064,-0.501 0.322,-0.501 H 6.925 L 3.977,17.684 c -0.016,0.156 0.072,0.304 0.216,0.364"
       style="fill:#ffffff;fill-opacity:1;fill-rule:nonzero;stroke:none"
       transform="matrix(1.3333333,0,0,-1.3333333,593.32933,429.5488)"
       clip-path="url(#clipPath19)" />
    <path
       id="path20"
       d="m 0,0 c -1.309,-2.862 -5.31,-6.235 -9.373,-6.235 h -6.398 l 5.896,12.892 h 6.263 C 0.064,6.657 1.681,3.677 0,0 m 6.845,22.163 h -27.148 c -1.109,0 -2.117,-0.647 -2.578,-1.656 l -30.494,-66.678 c -0.429,-0.938 0.257,-2.006 1.289,-2.006 l 15.312,-10e-4 c 1.109,0 2.117,0.647 2.578,1.655 l 8.913,19.489 8.911,-19.486 c 0.462,-1.009 1.469,-1.656 2.577,-1.656 l 15.698,-0.005 c 1.11,-0.001 2.117,0.646 2.579,1.655 l 6.372,13.934 c 0.429,0.939 -0.256,2.006 -1.288,2.007 l -12.981,0.011 c -0.555,0 -1.058,0.323 -1.288,0.827 l -3.669,8.023 h 10e-4 C 7.13,-19.502 16.256,-10.092 20.704,-0.399 25.896,10.915 19.39,22.163 6.845,22.163"
       style="fill:#ffffff;fill-opacity:1;fill-rule:nonzero;stroke:none"
       transform="matrix(1.3333333,0,0,-1.3333333,260.03387,379.50707)"
       clip-path="url(#clipPath21)" />
    <path
       id="path22"
       d="m 0,0 h -15.312 c -1.109,0 -2.117,-0.647 -2.578,-1.656 l -16.09,-35.183 -2.313,34.196 C -36.394,-1.155 -37.63,0 -39.122,0 h -14.869 c -1.11,0 -2.117,-0.647 -2.578,-1.656 l -30.494,-66.677 c -0.429,-0.939 0.257,-2.007 1.289,-2.007 l 15.312,-10e-4 c 1.109,0 2.116,0.647 2.577,1.656 l 16.091,35.184 2.314,-34.196 c 0.1,-1.488 1.336,-2.643 2.828,-2.643 l 14.869,-10e-4 c 1.109,0 2.116,0.647 2.578,1.656 L 1.289,-2.007 C 1.718,-1.068 1.032,0 0,0"
       style="fill:#ffffff;fill-opacity:1;fill-rule:nonzero;stroke:none"
       transform="matrix(1.3333333,0,0,-1.3333333,867.3696,349.95693)"
       clip-path="url(#clipPath23)" />
    <path
       id="path24"
       d="M 0,0 C 0.156,0.152 0.235,0.336 0.235,0.556 0.235,0.775 0.156,0.961 0,1.112 -0.156,1.264 -0.355,1.339 -0.595,1.339 h -0.939 v -1.566 h 0.939 c 0.24,0 0.439,0.075 0.595,0.227 M 1.739,-3.579 H 0.203 l -1.096,2.334 h -0.641 v -2.334 h -1.347 v 6.031 h 2.459 C 0.173,2.452 0.655,2.266 1.026,1.895 1.396,1.525 1.582,1.078 1.582,0.556 1.582,0.169 1.478,-0.161 1.268,-0.439 1.06,-0.715 0.793,-0.916 0.469,-1.041 Z m 0.524,-0.133 c 0.83,0.841 1.245,1.887 1.245,3.14 0,1.253 -0.415,2.3 -1.245,3.14 -0.83,0.841 -1.856,1.261 -3.077,1.261 -1.221,0 -2.247,-0.42 -3.078,-1.261 -0.829,-0.84 -1.244,-1.887 -1.244,-3.14 0,-1.253 0.415,-2.299 1.244,-3.14 0.831,-0.84 1.857,-1.26 3.078,-1.26 1.221,0 2.247,0.42 3.077,1.26 m 0.932,7.15 c 1.106,-1.107 1.66,-2.443 1.66,-4.01 0,-1.566 -0.554,-2.902 -1.66,-4.009 -1.107,-1.106 -2.443,-1.66 -4.009,-1.66 -1.566,0 -2.902,0.554 -4.009,1.66 -1.107,1.107 -1.66,2.443 -1.66,4.009 0,1.567 0.553,2.903 1.66,4.01 1.107,1.107 2.443,1.66 4.009,1.66 1.566,0 2.902,-0.553 4.009,-1.66"
       style="fill:#ffffff;fill-opacity:1;fill-rule:nonzero;stroke:none"
       transform="matrix(1.3333333,0,0,-1.3333333,953.41507,356.7536)"
       clip-path="url(#clipPath25)" />
  </g>
</svg>
