<?xml version="1.0" encoding="UTF-8" standalone="no"?>
<!-- Created with Inkscape (http://www.inkscape.org/) -->

<svg
   version="1.1"
   id="svg1"
   width="1614.8658"
   height="661.0979"
   viewBox="0 0 1614.8659 661.09789"
   xmlns="http://www.w3.org/2000/svg"
   xmlns:svg="http://www.w3.org/2000/svg">
  <defs
     id="defs1" />
  <g
     id="g1"
     transform="translate(-322.47716,1201.8784)">
    <g
       id="g21"
       transform="translate(50,-108.82353)">
      <path
         style="fill:none;fill-opacity:1;stroke:#ffffff;stroke-width:44;stroke-linecap:round;stroke-linejoin:round;stroke-dasharray:none;stroke-opacity:1"
         d="m 798.23935,-577.57757 h 59.12305 c 39.66424,0 120.3474,-17.9937 120.3474,-83.17547 v -352.17676 c 0,-41.6064 -29.32563,-57.8872 -49.22434,-57.8872 -19.89871,0 -49.22434,7.2359 -49.22434,57.8872 v 350.36778 c 0,62.40772 69.78742,84.98445 118.67958,84.98445 h 745.3471 c 77.2318,0 122.0551,-63.11509 122.0551,-122.78187 0,-59.66678 -49.1173,-125.53265 -125.5327,-125.53265 -76.4154,0 -123.9147,68.02754 -123.9147,125.9147 v 246.02044"
         id="path8" />
      <path
         d="m 1300.2838,-620.3596 c 28.7112,41.35833 69.2293,64.89834 119.5762,65.08008 80.6422,2e-5 146.0156,-65.37342 146.0156,-146.01563 0,-80.64221 -65.0588,-146.01562 -140.0156,-146.01562 -12.0572,0 -25.259,4.15921 -33.087,8.74249 -18.3707,10.75598 -31.5692,21.38904 -43.247,38.71063 25.0265,-2.02163 46.861,-3.05495 70.334,-3.50972 56.363,-1.09199 102.0739,45.69866 102.0742,102.07226 -2e-4,56.37361 -45.7006,102.07309 -102.0742,102.07227 -53.9364,-0.24514 -72.8979,-27.52669 -84.8809,-42.94141 -8.616,-11.08348 -21.5608,-12.90737 -29.6669,-7.26847 -8.1061,5.6389 -13.033,17.54259 -5.0284,29.07312 z"
         style="fill:#ffffff;fill-opacity:1;stroke-width:132.884;stroke-linejoin:bevel"
         id="path15" />
      <circle
         style="fill:none;fill-opacity:1;stroke:#ffffff;stroke-width:44;stroke-linejoin:round;stroke-dasharray:none;stroke-opacity:1"
         id="path9"
         cx="666.4679"
         cy="-701.62823"
         r="124.04346" />
      <path
         d="m 374.80253,-858.17405 c 20.02101,29.65436 52.21723,50.54584 77.83203,57.91406 7.81714,2.24864 66.91,23.78424 66.91211,97.97266 7e-5,56.43771 -45.75175,102.18953 -102.18946,102.18945 -36.93924,-0.042 -69.98844,-20.59204 -89.03515,-52.24219 -5.9942,-9.96064 -21.61915,-22.70625 -35.40821,-14.75 -9.1149,5.25928 -13.06268,17.12736 -8.89257,27.03125 22.11665,52.52635 75.85694,84.72653 132.8496,84.75781 80.97545,-1.7e-4 146.61897,-65.64369 146.61915,-146.61914 -1.8e-4,-80.97545 -57.95822,-136.67413 -146.61915,-146.61914 -12.73334,-1.42829 -28.22126,-5.56027 -42.06835,-9.63476 z"
         style="fill:#ffffff;fill-opacity:1;stroke-width:80.1103;stroke-linejoin:bevel"
         id="path21" />
      <path
         d="m 1280.5514,-604.55687 c 6.0355,-7.86172 4.7689,-21.64593 3.2402,-39.48437 -16.3493,8.02602 -34.2495,10.22284 -43.1426,17.13476 -20.3764,15.83699 -43.611,27.56306 -69.4179,27.6836 -56.3729,-2.3e-4 -102.0721,-45.6994 -102.0723,-102.07227 3e-4,-56.37286 45.6994,-102.07203 102.0723,-102.07226 27.455,0.14264 51.6384,13.56388 72.7949,31.0625 11.7339,9.70513 27.6622,3.48453 33.5996,-3.0625 5.6422,-6.22155 6.1075,-18.88881 -2.1035,-28.06836 -26.1659,-29.25247 -65.0435,-43.86052 -104.291,-43.875 -80.6422,-8e-5 -146.0157,65.37337 -146.0157,146.01562 0,80.64225 65.3735,146.01571 146.0157,146.01563 41.815,-0.0148 83.857,-16.10946 109.3203,-49.27735 z"
         style="display:inline;fill:#ffffff;fill-opacity:1;stroke-width:132.884;stroke-linejoin:bevel"
         id="path12" />
      <path
         style="fill:#ffffff;fill-opacity:1;stroke:none;stroke-width:44;stroke-linecap:butt;stroke-linejoin:bevel;stroke-dasharray:none;stroke-opacity:1"
         d="m 1258.7853,-640.85766 c -0.6502,0 15.8132,-41.73757 16.2999,-77.63092 0.4611,-34.00446 23.1326,-92.27324 75.6965,-95.48604 -16.9156,19.9773 -25.8529,32.04119 -30.169,82.17917 -3.8277,44.46544 -11.2413,76.32402 -61.8274,90.37572"
         id="path13" />
      <path
         d="m 382.65685,-804.86351 c 16.5826,3.56042 39.10743,-1.16992 39.10743,-1.16992 0,0 -23.55262,-10.31197 -35.76868,-25.55076 -11.53014,-14.38315 -16.59253,-22.98912 -30.46375,-35.79299 -22.68926,-20.9434 -38.07837,-48.5482 -38.13867,-79.42578 -7e-5,-56.43774 45.75176,-102.18954 102.18946,-102.18944 18.10126,0.017 35.071,6.3773 51.49804,13.9805 12.43237,5.7543 26.71407,3.4677 32.75586,-4.0196 6.04179,-7.4873 5.45543,-21.9899 -3.75976,-29.209 -22.70861,-17.7897 -52.13365,-24.6894 -80.98047,-24.8144 -80.97544,2e-4 -146.61896,65.6437 -146.61914,146.61913 0.20356,66.77446 44.8928,127.55463 110.17968,141.57226 z"
         style="fill:#ffffff;fill-opacity:1;stroke-width:80.1103;stroke-linejoin:bevel"
         id="path19" />
    </g>
  </g>
</svg>
