<?xml version="1.0" encoding="UTF-8" standalone="no"?>
<!-- Created with Inkscape (http://www.inkscape.org/) -->

<svg
   version="1.1"
   id="svg1"
   width="1436.2072"
   height="553.03687"
   viewBox="0 0 1436.2072 553.03686"
   sodipodi:docname="logo soloop sombre HD (19).png"
   xmlns:inkscape="http://www.inkscape.org/namespaces/inkscape"
   xmlns:sodipodi="http://sodipodi.sourceforge.net/DTD/sodipodi-0.dtd"
   xmlns="http://www.w3.org/2000/svg"
   xmlns:svg="http://www.w3.org/2000/svg">
  <defs
     id="defs1" />
  <sodipodi:namedview
     id="namedview1"
     pagecolor="#ffffff"
     bordercolor="#000000"
     borderopacity="0.25"
     inkscape:showpageshadow="2"
     inkscape:pageopacity="0.0"
     inkscape:pagecheckerboard="0"
     inkscape:deskcolor="#d1d1d1" />
  <g
     inkscape:groupmode="layer"
     inkscape:label="Image"
     id="g1"
     transform="translate(-7.8862278,-4.7063952)">
    <path
       style="fill:#ffffff;fill-opacity:1"
       d="m 1184.8078,555.77068 c -1.2037,-1.12142 -2.2936,-2.13392 -2.422,-2.25 -0.1284,-0.11607 -0.4659,-32.61104 -0.75,-72.21104 l -0.5166,-72 -301.99996,-0.5 -302,-0.5 -8.5,-2.86537 c -4.675,-1.57595 -10.1875,-3.7226 -12.25,-4.77032 -3.68101,-1.86991 -3.819,-1.87014 -7.5,-0.0127 -2.0625,1.04073 -7.35,3.1796 -11.75,4.75305 l -8,2.86081 -37.5,0.35685 c -25.25796,0.24035 -39.13228,-0.008 -42.5,-0.76124 -5.78833,-1.29437 -14.81712,-6.58822 -14.25055,-8.35553 0.21256,-0.66303 3.50589,-2.78052 7.31851,-4.70552 l 6.93204,-3.5 39.5,-0.5118 c 31.17511,-0.40393 40.08317,-0.80822 42.26703,-1.91828 l 2.76704,-1.40647 -8.54153,-8.48409 c -9.98667,-9.9195 -16.567,-19.38074 -20.8919,-30.03851 l -3.10064,-7.64085 -0.27283,-143.5 c -0.18156,-95.49268 0.071,-145.113339 0.75498,-148.322466 3.88453,-18.226059 19.34573,-31.891782 41.01785,-36.254513 22.90917,-4.6117578 46.19918,5.846615 55.44466,24.897409 2.3579,4.858586 3.81905,9.708344 4.51981,15.001924 1.38039,10.427444 1.38686,276.473436 0.007,286.018196 -2.05327,14.20247 -12.04323,31.41663 -24.64908,42.47397 -3.08334,2.70458 -5.30938,5.39745 -4.94677,5.98417 1.72337,2.78846 12.22207,3.2232 71.59533,2.96464 l 60.47092,-0.26333 -9.97092,-6.6487 c -35.82395,-23.88774 -56.70012,-64.14931 -56.70012,-109.3513 0,-33.98471 11.23503,-63.69643 32.64594,-86.33415 18.18444,-19.22639 40.29717,-31.84251 68.13763,-38.875 10.06303,-2.54192 12.47771,-2.76394 29.94564,-2.75329 20.43685,0.0125 25.73202,0.89451 42.05571,7.00549 18.77732,7.02951 43.90023,24.68713 55.01391,38.66646 4.07065,5.12027 4.63055,10.07781 1.33724,11.84034 -3.37999,1.80891 -6.23264,0.40698 -16.44596,-8.08234 -20.79688,-17.28641 -36.74999,-25.69771 -57.9609,-30.55996 -12.29471,-2.81835 -33.6337,-2.4142 -48,0.90912 -25.01938,5.78765 -45.39924,17.13072 -61.28011,34.10742 -21.93474,23.4483 -31.34405,55.78832 -26.7786,92.03861 5.75902,45.72742 34.40179,80.48835 78.55871,95.33903 7.07374,2.37902 8.96128,2.5458 33.2116,2.93466 23.91975,0.38356 26.32407,0.25944 34.5,-1.78093 11.11891,-2.77482 21.46207,-6.84032 32.2884,-12.69132 6.11224,-3.30332 10.11525,-4.7685 14.25,-5.21578 3.1625,-0.34211 5.75,-0.33708 5.75,0.0112 0,1.5519 -3.58622,7.60294 -5.44796,9.19235 -1.12862,0.96354 -5.35555,3.66354 -9.39317,6 l -7.34112,4.24812 29.16251,0.26522 c 16.03939,0.14587 41.94281,0.14587 57.56316,0 l 28.40064,-0.26522 -7.07882,-5.5 c -7.72976,-6.00577 -27.04501,-25.64879 -33.58384,-34.15374 -3.05748,-3.97682 -4.18636,-6.43099 -4.40711,-9.58101 -0.16323,-2.32911 0.13579,-4.23938 0.66447,-4.24504 4.41534,-0.0473 8.89065,3.29272 20.35093,15.18833 19.52236,20.26393 34.02373,30.25517 52.1972,35.96313 6.96629,2.18799 8.98024,2.32833 33.41313,2.32833 24.1218,0 26.6863,-0.17308 35.5,-2.39584 35.6372,-8.98746 62.9388,-33.06609 75.1413,-66.27071 6.9263,-18.84742 9.5984,-44.4319 6.4059,-61.33345 -4.3334,-22.94099 -14.9353,-42.72324 -31.7121,-59.17217 -13.1206,-12.86414 -21.9653,-19.22064 -35.2111,-25.30544 -17.4768,-8.02845 -31.2183,-11.01966 -50.624,-11.01966 -19.20549,0 -33.75791,3.13547 -49.47181,10.65921 -3.83449,1.83593 -7.88449,3.32375 -9,3.30626 -3.04702,-0.0478 -5.77821,-2.5635 -5.77821,-5.32234 0,-4.91291 4.11275,-8.66631 15.86581,-14.47955 17.21904,-8.51679 30.91982,-11.58677 51.88421,-11.62584 10.9331,-0.0204 17.3046,0.47247 23.5,1.81775 47.1415,10.2364 86.0392,43.31307 102.564,87.21545 5.0861,13.51273 6.7582,23.6684 6.7383,40.92633 -0.038,32.64252 -8.6865,60.05533 -26.1869,83 -6.3581,8.33608 -16.8414,18.50715 -24.8571,24.11678 -3.7171,2.6013 -7.1858,5.10169 -7.7083,5.55642 -0.5225,0.45474 20.4945,0.8268 46.7045,0.8268 h 47.6544 l 0.3904,-67.75 c 0.37,-64.19985 0.4974,-68.16921 2.4309,-75.75 6.4297,-25.20813 16.1226,-42.51407 33.6767,-60.12682 22.5438,-22.61909 49.1915,-34.47389 84.2917,-37.49892 40.7329,-3.51045 76.3244,9.03905 103.8499,36.61728 18.2583,18.29322 31.3172,42.95136 36.5467,69.00846 2.0235,10.08286 1.7758,36.46992 -0.4545,48.40995 -10.7289,57.43757 -49.6509,96.76072 -102.963,104.02428 -4.8587,0.66198 -32.5164,1.07157 -73,1.08108 -35.8477,0.008 -65.7313,0.36702 -66.4081,0.79689 -0.9509,0.6041 -1.2915,17.08313 -1.5,72.57332 l -0.2696,71.79176 -2.3608,1.91136 c -3.1001,2.50995 -8.1831,2.45072 -10.9506,-0.1276 z M 1350.3484,387.6433 c 44.6534,-12.65218 73.7329,-52.47189 75.9692,-104.02793 0.8919,-20.56298 -1.7771,-34.2311 -10.2556,-52.51817 -14.6342,-31.56445 -40.6579,-52.99161 -74.543,-61.37661 -13.5958,-3.36433 -39.7825,-3.41184 -54.6586,-0.0992 -40.0855,8.92642 -70.2076,35.05291 -82.1084,71.21678 -5.3196,16.16484 -5.3853,17.11267 -5.8472,84.30966 -0.2375,34.56102 -0.1815,63.49062 0.1245,64.28801 0.4803,1.25161 10.2301,1.40691 71.3231,1.13611 l 70.7668,-0.31369 z M 558.96933,373.92039 c 9.44565,-6.97792 17.32325,-15.96339 21.88817,-24.96641 l 4.26174,-8.4051 V 195.92926 51.309635 l -2.68578,-5.09002 c -4.6761,-8.862027 -11.32561,-13.533281 -22.08723,-15.516188 -12.54021,-2.310624 -26.55965,1.809758 -34.7009,10.198762 -7.63632,7.868703 -7.1065,-4.239318 -6.80033,155.407451 l 0.27424,143 3.87652,7.76492 c 2.39261,4.79256 6.41195,10.50621 10.5,14.92617 7.13078,7.70974 16.82027,15.80726 18.91618,15.80828 0.71098,3.5e-4 3.66181,-1.74953 6.55739,-3.88862 z M 88.119232,411.31747 c -16.587843,-2.68369 -35.15178,-10.49949 -53.5,-22.5246 C 16.658768,377.02188 11.523692,371.47656 9.1573202,361.29676 L 7.8862277,355.8287 12.00273,356.419 c 8.667018,1.24285 11.69319,2.6334 21.748132,9.99347 18.1389,13.27741 32.642385,20.76861 48.355265,24.976 30.693703,8.21877 60.063573,0.27803 83.510773,-22.57883 20.17608,-19.6681 32.47085,-46.4247 34.60494,-75.30931 0.53367,-7.22312 0.28582,-9.13245 -2.09805,-16.16288 -12.94275,-38.17034 -47.36893,-71.54552 -97.99927,-95.00746 -10.967974,-5.08252 -14.505288,-7.76372 -14.505288,-10.99466 0,-7.36478 9.242477,-5.76388 33.000008,5.71598 23.20548,11.21311 44.12514,25.54377 59.88456,41.02289 8.60854,8.45543 18.00216,19.58001 22.01222,26.06843 1.24648,2.01685 2.60525,3.66701 3.01948,3.66701 0.41422,0 2.00602,-3.7125 3.53731,-8.25 10.80033,-32.00323 32.57514,-59.42245 60.04643,-75.61151 17.81002,-10.4956 33.57548,-15.94012 53.85491,-18.59852 14.53163,-1.90494 20.29174,-1.90761 33.64509,-0.0156 48.32616,6.84715 89.926,44.90203 104.91619,95.97566 12.98542,44.24311 0.12601,95.06108 -32.83391,129.75346 -19.21381,20.22373 -43.30339,33.03749 -69.23918,36.82981 -10.52166,1.53847 -39.59299,0.59913 -49.8431,-1.61051 C 290.0681,402.4989 272.29251,395.007 259.72928,386.09819 244.0716,374.99505 227.73194,355.19631 218.008,335.54458 c -2.10503,-4.2542 -4.08976,-7.73491 -4.4105,-7.73491 -0.32075,0 -1.41655,2.3625 -2.43512,5.25 -5.63645,15.97858 -15.9683,32.16122 -29.32909,45.93779 -26.24666,27.06344 -58.16496,38.0714 -93.714058,32.32004 z M 348.40294,390.8436 c 37.614,-3.11178 69.65472,-26.73436 87.20592,-64.2941 12.72189,-27.22496 14.53445,-59.08341 4.91345,-86.36104 -4.03459,-11.43893 -7.32082,-17.88225 -14.89726,-29.20917 -14.07902,-21.04835 -35.51517,-37.46628 -58.39094,-44.72156 -25.45793,-8.07424 -58.57129,-4.25065 -84.50384,9.75764 -21.11974,11.4085 -39.4272,30.45895 -50.50759,52.55741 -10.17077,20.28431 -15.21291,50.02198 -11.03508,65.08295 2.91244,10.49925 6.72095,20.6022 11.93258,31.65391 19.02293,40.33971 50.16831,62.18851 93.33212,65.47341 5.31682,0.40462 9.89194,0.79381 10.16694,0.86486 0.275,0.071 5.57766,-0.29089 11.7837,-0.80431 z M 875.2859,354.14297 c -1.23099,-1.23099 -0.68442,-4.55411 2.38508,-14.50102 4.69875,-15.22657 5.9875,-24.40072 6.93003,-49.33231 1.67774,-44.37948 7.83052,-70.43523 20.61476,-87.29935 4.43373,-5.84868 7.16309,-7.78362 12.05439,-8.54579 l 4.15092,-0.64681 -1.41566,4.74598 c -0.77862,2.61028 -2.25558,5.89296 -3.28215,7.29483 -3.55749,4.85808 -7.24412,13.17895 -9.16274,20.68068 -1.81246,7.08665 -2.40396,12.8363 -4.92691,47.89201 -1.80082,25.02184 -7.42371,49.82071 -14.93725,65.87845 -5.21059,11.13592 -9.89093,16.35287 -12.41047,13.83333 z M 84.619232,211.72061 C 64.647638,204.66555 45.16451,190.51674 32.513901,173.88128 26.394907,165.83485 18.53905,149.89414 15.722812,139.80964 3.8357403,97.243935 20.092838,49.061376 55.119232,23.047087 66.218362,14.803703 81.653471,8.2083012 95.513928,5.7864862 c 8.192142,-1.4314 25.603782,-1.441841 34.605312,-0.02075 15.7488,2.486293 33.28203,8.8762598 48.75771,17.7697018 8.74576,5.025941 10.74229,7.264059 10.74229,12.04216 0,4.049621 -3.77941,8.232039 -7.43881,8.232039 -1.39134,0 -7.17448,-2.435886 -12.85141,-5.413079 -18.92901,-9.927073 -30.93804,-13.894469 -47.20978,-15.596594 -17.8808,-1.870441 -35.997452,1.772248 -50.1639,10.086384 -7.898464,4.635524 -23.908638,20.823779 -28.605113,28.923287 -9.426901,16.25757 -13.222855,31.88601 -12.488936,51.418605 0.433459,11.5361 0.898375,14.27729 3.935642,23.20495 9.154037,26.90711 28.292476,45.63889 57.114282,55.90069 7.156409,2.54799 8.161095,3.25963 12.317175,8.72451 2.48886,3.27263 4.38246,6.04513 4.20802,6.16111 -11.007279,7.31818 -14.15732,7.9135 -23.817178,4.50111 z"
       id="path2"
       inkscape:export-filename="../public/assets/partners/soloop.svg"
       inkscape:export-xdpi="96"
       inkscape:export-ydpi="96" />
  </g>
</svg>
