<svg xmlns="http://www.w3.org/2000/svg" width="134.342" height="28" viewBox="0 0 134.342 28"><path d="M80.865 19.196c-2.025 0-3.823 2.17-5.333 3.764.182.187 1.57 1.574 2.156 2.189 1.277-1.347 2.272-2.568 3.177-2.568 1.82 0 4.456 5.418 7.654 5.418v-3.385c-1.82 0-4.456-5.418-7.654-5.418" fill="#222e63"></path><path d="M70.459 22.497c-1.417-1.519-3.067-3.3-4.9-3.3-3.2 0-5.834 5.418-7.654 5.418s-4.456-5.418-7.654-5.418c-1.635 0-3.12 1.411-4.426 2.792v4.389c1.763-1.594 3.263-3.8 4.426-3.8 1.82 0 4.456 5.418 7.654 5.418s5.834-5.418 7.654-5.418 4.457 5.418 7.654 5.418a3.663 3.663 0 001.835-.561c-.591-.689-4.121-4.441-4.587-4.941" fill="#e83948"></path><path d="M0 .182v2.422h3.169v9.19H6.1v-9.19h3.223V.182zm10.749 11.612V.182h8v2.422h-5.064V4.91h4.4v2.289h-4.4v2.173h5.06v2.422zm16.555-4.23c.249 1.178.763 1.974 1.725 1.974a1.945 1.945 0 001.211-.464l.979 1.957a4.33 4.33 0 01-2.77.946c-2.853 0-3.7-3-3.865-4.213h-1.111v4.031h-2.937V.182h5.358a3.719 3.719 0 013.9 3.915 3.46 3.46 0 01-2.488 3.467m-1.759-2.007a1.3 1.3 0 001.294-1.427 1.321 1.321 0 00-1.294-1.46h-2.074v2.887zm13.401 2.007c.249 1.178.763 1.974 1.725 1.974a1.945 1.945 0 001.211-.464l.978 1.957a4.33 4.33 0 01-2.77.946c-2.853 0-3.7-3-3.865-4.213h-1.111v4.031H32.18V.182h5.358a3.719 3.719 0 013.9 3.915 3.46 3.46 0 01-2.488 3.467m-1.759-2.007a1.3 1.3 0 001.294-1.427 1.321 1.321 0 00-1.294-1.46h-2.073v2.887zm6.633 6.237V.182h8v2.422h-5.06V4.91h4.4v2.289h-4.4v2.173h5.06v2.422zm11.914.001V5.841h2.577a2.977 2.977 0 110 5.954zm1.505-1.242h.791a1.735 1.735 0 100-3.47h-.786zm4.772 1.241V5.84h4.1v1.242h-2.594v1.182h2.254v1.174h-2.254v1.114h2.594v1.242zm14.021-.133l-2.538-6.22-.531 6.353h-2.939L71.11.182h2.87l3 7.332L80.001.182h2.87l1.078 11.612h-2.936l-.531-6.353-2.538 6.221zm8.659.133L89.191.182h2.737l4.562 11.612h-3.086l-.8-2.057H88.49l-.763 2.057zm4.429-4.413h2.82L90.567 3.3zm15.012.183c.249 1.178.763 1.974 1.725 1.974a1.945 1.945 0 001.211-.464l.979 1.957a4.33 4.33 0 01-2.77.946c-2.853 0-3.7-3-3.865-4.213h-1.111v4.031h-2.936V.182h5.353a3.719 3.719 0 013.9 3.915 3.46 3.46 0 01-2.488 3.467m-1.759-2.007a1.3 1.3 0 001.294-1.427 1.321 1.321 0 00-1.294-1.46h-2.074v2.887zM108.93.182h2.936v11.612h-2.936zm7.996 5.159v6.453h-2.937V.182h2.273l4.612 6.37V.182h2.936v11.612h-2.256zm10.847 2.605a1.989 1.989 0 002.09 1.609c.863 0 1.592-.315 1.592-1.045 0-.382-.215-.78-1.194-1.111l-1.293-.465c-1.758-.6-3.152-1.858-3.168-3.434 0-2.14 1.775-3.5 4.164-3.5a4 4 0 014.014 2.737l-2.356.946a1.7 1.7 0 00-1.642-1.261c-.7 0-1.277.282-1.277.946 0 .315.133.763 1.128 1.095l1.244.431c2.6.846 3.235 2.24 3.268 3.533 0 2.455-2.19 3.55-4.429 3.55-2.405 0-4.346-1.277-4.628-3.5z" fill="#222e63"></path></svg>