<?xml version="1.0" encoding="UTF-8" standalone="no"?>
<svg
   width="134.34302"
   height="28.004873"
   viewBox="0 0 134.34302 28.004873"
   version="1.1"
   id="svg3"
   xmlns="http://www.w3.org/2000/svg"
   xmlns:svg="http://www.w3.org/2000/svg">
  <defs
     id="defs3" />
  <path
     d="m 80.865,19.201873 c -2.025,0 -3.823,2.17 -5.333,3.764 0.182,0.187 1.57,1.574 2.156,2.189 1.277,-1.347 2.272,-2.568 3.177,-2.568 1.82,0 4.456,5.418 7.654,5.418 v -3.385 c -1.82,0 -4.456,-5.418 -7.654,-5.418"
     fill="#222e63"
     id="path1"
     style="fill:#ffffff;fill-opacity:1" />
  <path
     d="m 70.459,22.502873 c -1.417,-1.519 -3.067,-3.3 -4.9,-3.3 -3.2,0 -5.834,5.418 -7.654,5.418 -1.82,0 -4.456,-5.418 -7.654,-5.418 -1.635,0 -3.12,1.411 -4.426,2.792 v 4.389 c 1.763,-1.594 3.263,-3.8 4.426,-3.8 1.82,0 4.456,5.418 7.654,5.418 3.198,0 5.834,-5.418 7.654,-5.418 1.82,0 4.457,5.418 7.654,5.418 a 3.663,3.663 0 0 0 1.835,-0.561 c -0.591,-0.689 -4.121,-4.441 -4.587,-4.941"
     fill="#e83948"
     id="path2"
     style="fill:#ffffff;fill-opacity:1" />
  <path
     d="M 0,0.18787314 V 2.6098731 H 3.169 V 11.799873 H 6.1 V 2.6098731 H 9.323 V 0.18787314 Z M 10.749,11.799873 V 0.18787314 h 8 V 2.6098731 h -5.064 v 2.306 h 4.4 v 2.289 h -4.4 v 2.173 h 5.06 V 11.799873 Z M 27.304,7.5698731 c 0.249,1.178 0.763,1.974 1.725,1.974 a 1.945,1.945 0 0 0 1.211,-0.464 l 0.979,1.9569999 a 4.33,4.33 0 0 1 -2.77,0.946 c -2.853,0 -3.7,-2.9999999 -3.865,-4.2129999 H 23.473 V 11.800873 H 20.536 V 0.18787314 h 5.358 a 3.719,3.719 0 0 1 3.9,3.91499996 3.46,3.46 0 0 1 -2.488,3.467 m -1.759,-2.007 a 1.3,1.3 0 0 0 1.294,-1.427 1.321,1.321 0 0 0 -1.294,-1.46 h -2.074 v 2.887 z m 13.401,2.007 c 0.249,1.178 0.763,1.974 1.725,1.974 a 1.945,1.945 0 0 0 1.211,-0.464 l 0.978,1.9569999 a 4.33,4.33 0 0 1 -2.77,0.946 c -2.853,0 -3.7,-2.9999999 -3.865,-4.2129999 H 35.116 V 11.800873 H 32.18 V 0.18787314 h 5.358 a 3.719,3.719 0 0 1 3.9,3.91499996 3.46,3.46 0 0 1 -2.488,3.467 m -1.759,-2.007 a 1.3,1.3 0 0 0 1.294,-1.427 1.321,1.321 0 0 0 -1.294,-1.46 h -2.073 v 2.887 z m 6.633,6.2369999 V 0.18787314 h 8 V 2.6098731 h -5.06 v 2.306 h 4.4 v 2.289 h -4.4 v 2.173 h 5.06 v 2.4219999 z m 11.914,10e-4 V 5.8468731 h 2.577 a 2.977,2.977 0 1 1 0,5.9539999 z m 1.505,-1.242 h 0.791 a 1.735,1.735 0 1 0 0,-3.4699999 h -0.786 z m 4.772,1.241 V 5.8458731 h 4.1 v 1.242 h -2.594 v 1.182 h 2.254 v 1.174 h -2.254 v 1.1139999 h 2.594 v 1.242 z m 14.021,-0.133 -2.538,-6.2199999 -0.531,6.3529999 H 70.028 L 71.11,0.18787314 h 2.87 l 3,7.33199996 3.021,-7.33199996 h 2.87 L 83.949,11.799873 H 81.013 L 80.482,5.4468731 77.944,11.667873 Z m 8.659,0.133 4.496,-11.61199986 h 2.737 L 96.49,11.799873 h -3.086 l -0.8,-2.0569999 H 88.49 l -0.763,2.0569999 z m 4.429,-4.4129999 h 2.82 l -1.377,-4.081 z m 15.012,0.183 c 0.249,1.178 0.763,1.974 1.725,1.974 a 1.945,1.945 0 0 0 1.211,-0.464 l 0.979,1.9569999 a 4.33,4.33 0 0 1 -2.77,0.946 c -2.853,0 -3.7,-2.9999999 -3.865,-4.2129999 h -1.111 V 11.800873 H 97.369 V 0.18787314 h 5.353 a 3.719,3.719 0 0 1 3.9,3.91499996 3.46,3.46 0 0 1 -2.488,3.467 m -1.759,-2.007 a 1.3,1.3 0 0 0 1.294,-1.427 1.321,1.321 0 0 0 -1.294,-1.46 h -2.074 v 2.887 z m 6.555,-5.37499996 h 2.936 V 11.799873 h -2.936 z m 7.996,5.15899996 v 6.4529999 h -2.937 V 0.18787314 h 2.273 l 4.612,6.36999996 V 0.18787314 h 2.936 V 11.799873 h -2.256 z m 10.847,2.605 a 1.989,1.989 0 0 0 2.09,1.609 c 0.863,0 1.592,-0.315 1.592,-1.045 0,-0.382 -0.215,-0.78 -1.194,-1.111 l -1.293,-0.465 c -1.758,-0.6 -3.152,-1.858 -3.168,-3.434 0,-2.14 1.775,-3.49999996 4.164,-3.49999996 a 4,4 0 0 1 4.014,2.73699996 l -2.356,0.946 a 1.7,1.7 0 0 0 -1.642,-1.261 c -0.7,0 -1.277,0.282 -1.277,0.946 0,0.315 0.133,0.763 1.128,1.095 l 1.244,0.431 c 2.6,0.846 3.235,2.24 3.268,3.533 0,2.4549999 -2.19,3.5499999 -4.429,3.5499999 -2.405,0 -4.346,-1.277 -4.628,-3.4999999 z"
     fill="#222e63"
     id="path3"
     style="fill:#ffffff;fill-opacity:1" />
</svg>
