<?xml version="1.0" encoding="UTF-8" standalone="no"?>
<!-- Created with Inkscape (http://www.inkscape.org/) -->

<svg
   version="1.1"
   id="svg1"
   width="266.98267"
   height="97.782013"
   viewBox="0 0 266.98267 97.782012"
   xmlns="http://www.w3.org/2000/svg"
   xmlns:svg="http://www.w3.org/2000/svg">
  <defs
     id="defs1">
    <clipPath
       clipPathUnits="userSpaceOnUse"
       id="clipPath11">
      <path
         d="M 0,129.5 H 252.5 V 0 H 0 Z"
         transform="translate(-180.9724,-88.669002)"
         id="path11" />
    </clipPath>
    <linearGradient
       x1="0"
       y1="0"
       x2="1"
       y2="0"
       gradientUnits="userSpaceOnUse"
       gradientTransform="matrix(4.1354051,0,0,-4.1354051,167.01997,82.88221)"
       spreadMethod="pad"
       id="linearGradient15">
      <stop
         style="stop-opacity:1;stop-color:#ac38a2"
         offset="0"
         id="stop11" />
      <stop
         style="stop-opacity:1;stop-color:#ac38a2"
         offset="0.152709"
         id="stop12" />
      <stop
         style="stop-opacity:1;stop-color:#ac38a2"
         offset="0.46237646"
         id="stop13" />
      <stop
         style="stop-opacity:1;stop-color:#f02fa1"
         offset="0.935961"
         id="stop14" />
      <stop
         style="stop-opacity:1;stop-color:#f02fa1"
         offset="1"
         id="stop15" />
    </linearGradient>
    <clipPath
       clipPathUnits="userSpaceOnUse"
       id="clipPath17">
      <path
         d="M 0,129.5 H 252.5 V 0 H 0 Z"
         transform="translate(-171.1554,-76.841902)"
         id="path17" />
    </clipPath>
    <linearGradient
       x1="0"
       y1="0"
       x2="1"
       y2="0"
       gradientUnits="userSpaceOnUse"
       gradientTransform="matrix(4.1354051,0,0,-4.1354051,171.15538,82.88221)"
       spreadMethod="pad"
       id="linearGradient21">
      <stop
         style="stop-opacity:1;stop-color:#ac38a2"
         offset="0"
         id="stop17" />
      <stop
         style="stop-opacity:1;stop-color:#ac38a2"
         offset="0.152709"
         id="stop18" />
      <stop
         style="stop-opacity:1;stop-color:#ac38a2"
         offset="0.46237646"
         id="stop19" />
      <stop
         style="stop-opacity:1;stop-color:#f02fa1"
         offset="0.935961"
         id="stop20" />
      <stop
         style="stop-opacity:1;stop-color:#f02fa1"
         offset="1"
         id="stop21" />
    </linearGradient>
    <clipPath
       clipPathUnits="userSpaceOnUse"
       id="clipPath23">
      <path
         d="M 0,129.5 H 252.5 V 0 H 0 Z"
         transform="translate(-175.29081,-88.922502)"
         id="path23" />
    </clipPath>
    <clipPath
       clipPathUnits="userSpaceOnUse"
       id="clipPath29">
      <path
         d="M 0,129.5 H 252.5 V 0 H 0 Z"
         transform="translate(-178.12821,-94.198003)"
         id="path29" />
    </clipPath>
    <linearGradient
       x1="0"
       y1="0"
       x2="1"
       y2="0"
       gradientUnits="userSpaceOnUse"
       gradientTransform="matrix(2.1034558,0,0,-2.1034558,164.91652,91.56028)"
       spreadMethod="pad"
       id="linearGradient33">
      <stop
         style="stop-opacity:1;stop-color:#ac38a2"
         offset="0"
         id="stop29" />
      <stop
         style="stop-opacity:1;stop-color:#ac38a2"
         offset="0.152709"
         id="stop30" />
      <stop
         style="stop-opacity:1;stop-color:#ac38a2"
         offset="0.46237646"
         id="stop31" />
      <stop
         style="stop-opacity:1;stop-color:#f02fa1"
         offset="0.935961"
         id="stop32" />
      <stop
         style="stop-opacity:1;stop-color:#f02fa1"
         offset="1"
         id="stop33" />
    </linearGradient>
    <clipPath
       clipPathUnits="userSpaceOnUse"
       id="clipPath35">
      <path
         d="M 0,129.5 H 252.5 V 0 H 0 Z"
         transform="translate(-167.02,-88.922502)"
         id="path35" />
    </clipPath>
    <linearGradient
       x1="0"
       y1="0"
       x2="1"
       y2="0"
       gradientUnits="userSpaceOnUse"
       gradientTransform="matrix(2.8374393,0,0,-2.8374393,175.29079,91.56028)"
       spreadMethod="pad"
       id="linearGradient39">
      <stop
         style="stop-opacity:1;stop-color:#ac38a2"
         offset="0"
         id="stop35" />
      <stop
         style="stop-opacity:1;stop-color:#ac38a2"
         offset="0.152709"
         id="stop36" />
      <stop
         style="stop-opacity:1;stop-color:#ac38a2"
         offset="0.46237646"
         id="stop37" />
      <stop
         style="stop-opacity:1;stop-color:#f02fa1"
         offset="0.935961"
         id="stop38" />
      <stop
         style="stop-opacity:1;stop-color:#f02fa1"
         offset="1"
         id="stop39" />
    </linearGradient>
    <clipPath
       clipPathUnits="userSpaceOnUse"
       id="clipPath41">
      <path
         d="M 0,129.5 H 252.5 V 0 H 0 Z"
         transform="translate(-175.29081,-88.922502)"
         id="path41" />
    </clipPath>
    <linearGradient
       x1="0"
       y1="0"
       x2="1"
       y2="0"
       gradientUnits="userSpaceOnUse"
       gradientTransform="matrix(4.1354051,0,0,-4.1354051,167.01997,91.56028)"
       spreadMethod="pad"
       id="linearGradient45">
      <stop
         style="stop-opacity:1;stop-color:#ac38a2"
         offset="0"
         id="stop41" />
      <stop
         style="stop-opacity:1;stop-color:#ac38a2"
         offset="0.152709"
         id="stop42" />
      <stop
         style="stop-opacity:1;stop-color:#ac38a2"
         offset="0.46237646"
         id="stop43" />
      <stop
         style="stop-opacity:1;stop-color:#f02fa1"
         offset="0.935961"
         id="stop44" />
      <stop
         style="stop-opacity:1;stop-color:#f02fa1"
         offset="1"
         id="stop45" />
    </linearGradient>
    <clipPath
       clipPathUnits="userSpaceOnUse"
       id="clipPath47">
      <path
         d="M 0,129.5 H 252.5 V 0 H 0 Z"
         transform="translate(-167.02,-88.922502)"
         id="path47" />
    </clipPath>
    <linearGradient
       x1="0"
       y1="0"
       x2="1"
       y2="0"
       gradientUnits="userSpaceOnUse"
       gradientTransform="matrix(4.1354046,0,0,-4.1354046,171.15538,91.56028)"
       spreadMethod="pad"
       id="linearGradient51">
      <stop
         style="stop-opacity:1;stop-color:#ac38a2"
         offset="0"
         id="stop47" />
      <stop
         style="stop-opacity:1;stop-color:#ac38a2"
         offset="0.152709"
         id="stop48" />
      <stop
         style="stop-opacity:1;stop-color:#ac38a2"
         offset="0.46237646"
         id="stop49" />
      <stop
         style="stop-opacity:1;stop-color:#f02fa1"
         offset="0.935961"
         id="stop50" />
      <stop
         style="stop-opacity:1;stop-color:#f02fa1"
         offset="1"
         id="stop51" />
    </linearGradient>
    <clipPath
       clipPathUnits="userSpaceOnUse"
       id="clipPath53">
      <path
         d="M 0,129.5 H 252.5 V 0 H 0 Z"
         transform="translate(-171.1554,-94.198003)"
         id="path53" />
    </clipPath>
  </defs>
  <g
     id="layer-MC1"
     transform="translate(-37.845333,-46.65799)">
    <path
       id="path4"
       d="M 34.266,85.878 C 30.344,81.776 28.384,76.712 28.384,70.685 v 0 c 0,-5.107 1.635,-9.439 4.904,-12.997 v 0 c 3.27,-3.558 7.255,-5.338 11.956,-5.338 v 0 c 2.735,0 5.353,0.642 7.853,1.924 v 0 l -0.192,0.576 c -1.56,-0.448 -3.077,-0.673 -4.552,-0.673 v 0 c -3.59,0 -6.955,0.962 -10.097,2.886 v 0 c -2.542,1.538 -4.535,3.632 -5.977,6.282 v 0 c -1.442,2.649 -2.164,5.524 -2.164,8.623 v 0 c 0,5.021 1.512,9.183 4.536,12.484 v 0 c 3.023,3.302 6.832,4.952 11.426,4.952 v 0 c 6.54,0 11.978,-3.035 16.316,-9.103 v 0 c 3.12,-4.359 5.129,-10.364 6.026,-18.014 v 0 c -3.911,-1.752 -7.063,-3.932 -9.455,-6.538 v 0 c -2.394,-2.608 -3.591,-5.151 -3.591,-7.63 v 0 c 0,-2.329 1.143,-3.59 3.429,-3.781 v 0 c -0.833,1.623 -1.25,3.097 -1.25,4.423 v 0 c 0,4.914 3.676,8.815 11.027,11.699 v 0 c 0.406,-3.12 0.609,-6.603 0.609,-10.449 v 0 c 0,-2.479 -0.128,-4.904 -0.385,-7.276 v 0 l 0.802,0.865 c 2.969,3.355 6.559,6.988 10.769,10.899 v 0 c 5.941,5.491 9.921,9.546 11.941,12.164 v 0 c 2.018,2.617 3.125,5.165 3.317,7.645 v 0 c 4.744,4.166 8.12,8.504 10.129,13.013 v 0 c -4.338,-0.3 -10.984,-0.449 -19.937,-0.449 v 0 c -3.676,0 -6.465,0.074 -8.366,0.225 v 0 c -0.919,-1.305 -1.902,-2.394 -2.949,-3.27 v 0 l 1.154,-0.128 c 3.547,-0.407 6.373,-1.015 8.478,-1.827 v 0 c 2.104,-0.813 3.884,-1.977 5.337,-3.494 v 0 c 1.581,-1.646 2.5,-3.43 2.757,-5.353 v 0 L 91.593,72.544 C 88.259,70.087 84.232,68.036 79.51,66.39 v 0 l -6.476,-2.243 c -0.043,0 -0.288,-0.087 -0.737,-0.257 v 0 c -0.983,6.924 -2.639,12.436 -4.968,16.539 v 0 c -2.073,3.697 -4.728,6.555 -7.965,8.575 v 0 c -3.237,2.019 -6.758,3.028 -10.561,3.028 v 0 c -5.77,0 -10.616,-2.051 -14.537,-6.154 m 53.192,-1.474 h 1.347 l 5.834,0.096 6.154,0.096 1.057,0.032 c -1.474,-3.419 -3.579,-6.368 -6.314,-8.846 v 0 c -0.384,3.654 -3.077,6.528 -8.078,8.622 M 72.714,55.844 c 0,2.309 -0.075,4.296 -0.224,5.963 v 0 c 0.384,0.127 0.587,0.191 0.609,0.191 v 0 l 5.545,1.732 c 4.744,1.495 9.177,3.985 13.302,7.468 v 0 c -0.577,-2.094 -1.678,-4.183 -3.301,-6.266 v 0 C 87.02,62.849 84.221,59.936 80.247,56.197 v 0 l -3.27,-3.109 c -1.667,-1.56 -3.173,-3.056 -4.52,-4.487 v 0 c 0.171,1.965 0.257,4.379 0.257,7.243 m 57.696,28.239 -0.481,-0.192 0.32,-0.93 c 0.213,0.065 0.374,0.118 0.481,0.161 v 0 c 0.898,0.277 1.464,0.417 1.699,0.417 v 0 c 0.662,0 0.994,-0.289 0.994,-0.866 v 0 c 0,-0.727 -0.92,-3.28 -2.757,-7.661 v 0 l -3.044,-7.308 c -3.355,-8.035 -5.477,-13.302 -6.363,-15.802 v 0 c -0.888,-2.5 -1.33,-4.445 -1.33,-5.834 v 0 c 0,-1.794 0.64,-2.692 1.923,-2.692 v 0 c 1.603,0 4.124,1.506 7.564,4.519 v 0 l -0.609,0.834 -0.384,-0.289 c -1.582,-1.239 -2.682,-1.87 -3.301,-1.891 v 0 c -0.813,-0.043 -1.197,0.417 -1.155,1.379 v 0 c 0.107,2.2 3.163,10.128 9.167,23.783 v 0 c 3.462,7.842 5.192,13.066 5.192,15.674 v 0 c -1.581,-0.791 -4.22,-1.891 -7.916,-3.302 m 55.419,-13.975 c -2.414,-1.069 -5.117,-2.03 -8.109,-2.884 v 0 l 0.192,-1.026 c 0.149,0.042 0.267,0.074 0.353,0.096 v 0 c 1.068,0.32 1.763,0.481 2.083,0.481 v 0 c 0.619,0 0.93,-0.385 0.93,-1.154 v 0 c 0,-0.919 -0.999,-3.884 -2.997,-8.895 v 0 c -1.998,-5.011 -3.98,-9.525 -5.946,-13.542 v 0 c 1.838,0.79 3.259,1.303 4.263,1.538 v 0 c 2.457,5.684 5.503,10.556 9.135,14.616 v 0 c 1.752,1.966 3.553,3.697 5.401,5.193 v 0 c 1.848,1.496 3.104,2.244 3.766,2.244 v 0 c 0.47,0 0.706,-0.288 0.706,-0.866 v 0 c 0,-0.384 -0.353,-1.261 -1.058,-2.628 v 0 l -2.084,-3.975 c -3.697,-7.18 -5.769,-12.533 -6.218,-16.058 v 0 c 3.505,0.726 6.539,2.008 9.104,3.846 v 0 l -0.513,0.865 -0.161,-0.128 c -1.111,-0.705 -1.987,-1.058 -2.629,-1.058 v 0 c -0.577,0 -0.865,0.31 -0.865,0.93 v 0 c 0,0.811 1.677,4.466 5.032,10.963 v 0 c 2.8,5.448 4.2,8.728 4.2,9.839 v 0 c 0,1.069 -0.524,1.603 -1.571,1.603 v 0 c -1.667,0 -3.98,-1.148 -6.94,-3.445 v 0 c -2.959,-2.298 -6.192,-5.445 -9.695,-9.44 v 0 l -0.546,-0.609 0.449,0.962 c 2.799,6.196 4.199,10.245 4.199,12.148 v 0 c 0,0.106 -0.022,0.299 -0.064,0.577 v 0 z m -50.162,-2.404 -0.513,-0.16 0.256,-0.962 c 0.854,0.257 1.453,0.385 1.795,0.385 v 0 c 0.77,0 1.132,-0.353 1.09,-1.058 v 0 c -0.043,-0.727 -0.46,-1.923 -1.25,-3.589 v 0 l -2.565,-5.386 c -2.628,-5.512 -3.942,-9.157 -3.942,-10.93 v 0 c 0,-1.475 0.705,-2.212 2.116,-2.212 v 0 c 1.603,0 3.637,0.989 6.106,2.966 v 0 c 2.468,1.976 5.08,4.706 7.836,8.189 v 0 c -1.582,-3.954 -2.649,-7.672 -3.205,-11.155 v 0 l 0.866,0.321 c 3.59,1.368 6.164,2.457 7.724,3.269 v 0 l -0.416,0.866 c -1.112,-0.428 -1.955,-0.642 -2.532,-0.642 v 0 c -0.749,0 -1.112,0.332 -1.09,0.995 v 0 c 0.043,0.854 1.132,3.878 3.269,9.07 v 0 c 2.136,5.193 3.953,9.221 5.449,12.084 v 0 c -1.646,-0.662 -3.088,-1.057 -4.327,-1.186 v 0 l -0.417,-1.025 c -2.03,-5.215 -4.754,-9.985 -8.173,-14.312 v 0 c -3.42,-4.327 -6.166,-6.49 -8.238,-6.49 v 0 c -0.813,0 -1.218,0.459 -1.218,1.377 v 0 c 0,0.983 1.068,3.665 3.205,8.046 v 0 l 2.789,5.705 c 1.902,3.911 2.852,6.721 2.852,8.431 v 0 c -1.987,-0.855 -4.476,-1.721 -7.467,-2.597 m 28.687,-1.666 c -3.056,-2.287 -5.561,-5.194 -7.517,-8.719 v 0 c -1.954,-3.526 -2.933,-6.891 -2.933,-10.097 v 0 c 0,-2.842 1.251,-4.263 3.751,-4.263 v 0 c 2.906,0 6.431,1.956 10.577,5.866 v 0 c 2.842,2.671 4.263,5.032 4.263,7.084 v 0 c 0,0.47 -0.15,1.003 -0.448,1.602 v 0 c -1.432,-3.483 -3.232,-6.33 -5.402,-8.542 v 0 c -2.168,-2.211 -4.257,-3.317 -6.266,-3.317 v 0 c -1.838,0 -2.757,1.1 -2.757,3.301 v 0 c 0,2.136 0.566,4.573 1.7,7.308 v 0 c 1.132,2.735 2.574,5.129 4.327,7.18 v 0 c 2.478,2.906 4.904,4.36 7.275,4.36 v 0 c 1.325,0 1.988,-0.513 1.988,-1.539 v 0 c 0,-1.432 -0.903,-2.762 -2.709,-3.99 v 0 c -1.805,-1.23 -3.777,-1.844 -5.913,-1.844 v 0 c -0.535,0 -1.251,0.065 -2.148,0.192 v 0 c 0.384,-1.111 1.079,-1.666 2.084,-1.666 v 0 c 0.939,0 2.28,0.352 4.022,1.057 v 0 c 1.742,0.706 3.179,1.475 4.312,2.309 v 0 c 1.217,0.918 2.232,1.949 3.044,3.093 v 0 c 0.812,1.143 1.218,2.12 1.218,2.932 v 0 c 0,1.239 -0.844,1.859 -2.532,1.859 v 0 c -2.906,0 -6.218,-1.389 -9.936,-4.166 m 48.561,-0.193 c -4.36,-2.415 -7.981,-5.496 -10.867,-9.247 v 0 c -2.884,-3.75 -4.327,-7.239 -4.327,-10.466 v 0 c 0,-1.902 0.748,-2.853 2.244,-2.853 v 0 c 1.71,0 4.023,1.069 6.94,3.206 v 0 c 2.916,2.137 5.753,4.829 8.51,8.078 v 0 c -2.436,-5.279 -3.708,-8.997 -3.815,-11.155 v 0 c 3.889,0.961 6.956,2.286 9.2,3.974 v 0 l -0.577,0.834 c -1.368,-0.813 -2.319,-1.24 -2.853,-1.282 v 0 c -0.577,-0.043 -0.866,0.245 -0.866,0.865 v 0 c 0,0.769 1.015,3.43 3.046,7.981 v 0 l 0.256,0.546 c -1.517,-0.513 -2.789,-0.813 -3.814,-0.899 v 0 c 2.093,2.693 3.141,5.076 3.141,7.149 v 0 c 0,1.495 -0.46,2.521 -1.379,3.077 v 0 c -0.79,-3.633 -2.275,-7.138 -4.455,-10.514 v 0 c -1.581,-2.436 -3.377,-4.578 -5.385,-6.426 v 0 c -2.008,-1.849 -3.547,-2.773 -4.616,-2.773 v 0 c -1.261,0 -1.891,0.855 -1.891,2.565 v 0 c 0,3.654 1.731,7.339 5.193,11.058 v 0 c 4.701,5.064 10.31,7.596 16.828,7.596 v 0 c 1.367,0 2.777,-0.128 4.231,-0.384 v 0 c 0.641,1.196 0.962,2.008 0.962,2.436 v 0 c 0,0.513 -0.342,0.769 -1.026,0.769 v 0 c -4.872,0 -9.766,-1.378 -14.68,-4.135 m -103.884,0 c -4.36,-2.415 -7.982,-5.496 -10.867,-9.247 v 0 c -2.885,-3.75 -4.327,-7.239 -4.327,-10.466 v 0 c 0,-1.902 0.748,-2.853 2.243,-2.853 v 0 c 1.71,0 4.023,1.069 6.94,3.206 v 0 c 2.917,2.137 5.754,4.829 8.511,8.078 v 0 c -2.437,-5.279 -3.708,-8.997 -3.814,-11.155 v 0 c 3.888,0.961 6.955,2.286 9.198,3.974 v 0 l -0.576,0.834 c -1.368,-0.813 -2.319,-1.24 -2.853,-1.282 v 0 c -0.577,-0.043 -0.865,0.245 -0.865,0.865 v 0 c 0,0.769 1.014,3.43 3.044,7.981 v 0 l 0.257,0.546 c -1.518,-0.513 -2.788,-0.813 -3.814,-0.899 v 0 c 2.094,2.693 3.141,5.076 3.141,7.149 v 0 c 0,1.495 -0.46,2.521 -1.378,3.077 v 0 c -0.791,-3.633 -2.276,-7.138 -4.456,-10.514 v 0 c -1.582,-2.436 -3.376,-4.578 -5.385,-6.426 v 0 c -2.009,-1.849 -3.548,-2.773 -4.616,-2.773 v 0 c -1.261,0 -1.891,0.855 -1.891,2.565 v 0 c 0,3.654 1.731,7.339 5.193,11.058 v 0 c 4.701,5.064 10.311,7.596 16.828,7.596 v 0 c 1.367,0 2.778,-0.128 4.231,-0.384 v 0 c 0.641,1.196 0.961,2.008 0.961,2.436 v 0 c 0,0.513 -0.342,0.769 -1.025,0.769 v 0 c -4.872,0 -9.766,-1.378 -14.68,-4.135"
       transform="matrix(1.3333333,0,0,-1.3333333,0,172.66667)"
       style="fill:#ffffff;fill-opacity:1;stroke:none" />
    <path
       id="path10"
       d="M 0,0 -9.817,-12.214 -19.634,0 Z"
       style="fill:none;stroke:#ffffff;stroke-width:0.597;stroke-linecap:butt;stroke-linejoin:miter;stroke-miterlimit:10;stroke-dasharray:none;stroke-opacity:1"
       transform="matrix(1.3333333,0,0,-1.3333333,241.29653,54.441333)"
       clip-path="url(#clipPath11)" />
    <path
       id="path15"
       d="M 171.156,76.842 167.02,88.923 Z"
       transform="matrix(1.3333333,0,0,-1.3333333,0,172.66667)"
       style="fill:url(#linearGradient15);stroke:#ffffff;stroke-opacity:1" />
    <path
       id="path16"
       d="M 0,0 -4.135,12.081"
       style="fill:none;stroke:#ffffff;stroke-width:0.597;stroke-linecap:butt;stroke-linejoin:miter;stroke-miterlimit:10;stroke-dasharray:none;stroke-opacity:1"
       transform="matrix(1.3333333,0,0,-1.3333333,228.2072,70.2108)"
       clip-path="url(#clipPath17)" />
    <path
       id="path21"
       d="m 171.156,76.842 4.135,12.081 z"
       transform="matrix(1.3333333,0,0,-1.3333333,0,172.66667)"
       style="fill:url(#linearGradient21);stroke:#ffffff;stroke-opacity:1" />
    <path
       id="path22"
       d="M 0,0 -4.135,-12.081"
       style="fill:none;stroke:#ffffff;stroke-width:0.597;stroke-linecap:butt;stroke-linejoin:miter;stroke-miterlimit:10;stroke-dasharray:none;stroke-opacity:1"
       transform="matrix(1.3333333,0,0,-1.3333333,233.72107,54.103333)"
       clip-path="url(#clipPath23)" />
    <path
       id="path28"
       d="M 0,0 H -13.212 L -16.79,-5.529 H 2.844 Z"
       style="fill:none;stroke:#ffffff;stroke-width:0.597;stroke-linecap:butt;stroke-linejoin:miter;stroke-miterlimit:10;stroke-dasharray:none;stroke-opacity:1"
       transform="matrix(1.3333333,0,0,-1.3333333,237.50427,47.069333)"
       clip-path="url(#clipPath29)" />
    <path
       id="path33"
       d="m 167.02,88.923 -2.103,5.275 z"
       transform="matrix(1.3333333,0,0,-1.3333333,0,172.66667)"
       style="fill:url(#linearGradient33);stroke:#ffffff;stroke-opacity:1" />
    <path
       id="path34"
       d="M 0,0 -2.103,5.276"
       style="fill:none;stroke:#ffffff;stroke-width:0.597;stroke-linecap:butt;stroke-linejoin:miter;stroke-miterlimit:10;stroke-dasharray:none;stroke-opacity:1"
       transform="matrix(1.3333333,0,0,-1.3333333,222.69333,54.103333)"
       clip-path="url(#clipPath35)" />
    <path
       id="path39"
       d="m 175.291,88.923 2.837,5.275 z"
       transform="matrix(1.3333333,0,0,-1.3333333,0,172.66667)"
       style="fill:url(#linearGradient39);stroke:#ffffff;stroke-opacity:1" />
    <path
       id="path40"
       d="M 0,0 2.837,5.276"
       style="fill:none;stroke:#ffffff;stroke-width:0.597;stroke-linecap:butt;stroke-linejoin:miter;stroke-miterlimit:10;stroke-dasharray:none;stroke-opacity:1"
       transform="matrix(1.3333333,0,0,-1.3333333,233.72107,54.103333)"
       clip-path="url(#clipPath41)" />
    <path
       id="path45"
       d="m 167.02,88.923 4.136,5.275 z"
       transform="matrix(1.3333333,0,0,-1.3333333,0,172.66667)"
       style="fill:url(#linearGradient45);stroke:#ffffff;stroke-opacity:1" />
    <path
       id="path46"
       d="M 0,0 4.135,5.276"
       style="fill:none;stroke:#ffffff;stroke-width:0.597;stroke-linecap:butt;stroke-linejoin:miter;stroke-miterlimit:10;stroke-dasharray:none;stroke-opacity:1"
       transform="matrix(1.3333333,0,0,-1.3333333,222.69333,54.103333)"
       clip-path="url(#clipPath47)" />
    <path
       id="path51"
       d="m 175.291,88.923 -4.135,5.275 z"
       transform="matrix(1.3333333,0,0,-1.3333333,0,172.66667)"
       style="fill:url(#linearGradient51);stroke:#ffffff;stroke-opacity:1" />
    <path
       id="path52"
       d="M 0,0 4.135,-5.276"
       style="fill:none;stroke:#ffffff;stroke-width:0.597;stroke-linecap:butt;stroke-linejoin:miter;stroke-miterlimit:10;stroke-dasharray:none;stroke-opacity:1"
       transform="matrix(1.3333333,0,0,-1.3333333,228.2072,47.069333)"
       clip-path="url(#clipPath53)" />
    <path
       id="path55"
       d="m 94.689,31.365 c -1.406,-1.162 -2.534,-2.47 -3.384,-3.926 v 0 c -0.85,-1.455 -1.274,-2.812 -1.274,-4.072 v 0 c 0,-1.465 0.649,-2.197 1.948,-2.197 v 0 c 1.524,0 3.209,0.888 5.054,2.666 v 0 c 1.25,1.211 1.875,2.236 1.875,3.076 v 0 c 0,0.195 -0.054,0.386 -0.161,0.571 v 0 c -0.068,-0.127 -0.112,-0.209 -0.132,-0.249 v 0 l -0.381,-0.733 c -0.606,-1.18 -1.353,-2.133 -2.241,-2.855 v 0 C 95.104,22.923 94.24,22.561 93.4,22.561 v 0 c -0.986,0 -1.479,0.537 -1.479,1.612 v 0 c 0,0.869 0.28,1.94 0.842,3.215 v 0 c 0.562,1.274 1.238,2.37 2.029,3.288 v 0 c 0.829,0.967 1.816,1.45 2.959,1.45 v 0 c 0.741,0 1.113,-0.175 1.113,-0.526 v 0 c 0,-0.284 -0.171,-0.797 -0.513,-1.538 v 0 l -0.117,-0.25 h 0.513 l 2.066,3.853 c -0.284,0.019 -0.485,0.029 -0.602,0.029 v 0 c -1.796,0 -3.637,-0.777 -5.522,-2.329"
       transform="matrix(1.3333333,0,0,-1.3333333,0,172.66667)"
       style="fill:#ffffff;fill-opacity:1;stroke:none" />
    <path
       id="path58"
       d="m 100.592,31.526 0.191,-0.454 c 0.507,0.264 0.835,0.396 0.981,0.396 v 0 c 0.264,0 0.396,-0.152 0.396,-0.454 v 0 c 0,-0.587 -0.61,-2.53 -1.832,-5.83 v 0 l -1.288,-3.428 -0.161,-0.44 c 0.575,0.196 1.181,0.361 1.816,0.498 v 0 l 0.161,0.499 c 0.645,2.001 1.184,3.491 1.619,4.467 v 0 c 0.435,0.977 0.955,1.88 1.56,2.71 v 0 c 1.289,1.738 2.5,2.608 3.633,2.608 v 0 c 0.283,0 0.61,-0.039 0.981,-0.117 v 0 l 0.527,1.479 c -0.244,0.127 -0.469,0.19 -0.674,0.19 v 0 c -0.947,0 -2.558,-1.25 -4.834,-3.749 v 0 l -0.351,-0.411 c 0.674,1.758 1.011,3.013 1.011,3.765 v 0 c 0,0.147 -0.02,0.308 -0.058,0.483 v 0 c -1.085,-0.811 -2.311,-1.548 -3.678,-2.212"
       transform="matrix(1.3333333,0,0,-1.3333333,0,172.66667)"
       style="fill:#ffffff;fill-opacity:1;stroke:none" />
    <path
       id="path61"
       d="m 112.883,33.958 c 1.083,1.894 2.494,3.144 4.233,3.75 v 0 l -0.557,1.275 c -2.002,-0.577 -3.227,-2.251 -3.676,-5.025 m -1.656,-2.227 c -1.396,-1.045 -2.541,-2.373 -3.435,-3.984 v 0 c -0.894,-1.611 -1.34,-3.149 -1.34,-4.614 v 0 c 0,-1.299 0.571,-1.949 1.714,-1.949 v 0 c 1.328,0 2.939,0.894 4.833,2.681 v 0 c 1.299,1.221 1.949,2.3 1.949,3.238 v 0 c 0,0.215 -0.068,0.459 -0.205,0.732 v 0 c -0.654,-1.592 -1.477,-2.893 -2.468,-3.904 v 0 c -0.992,-1.011 -1.946,-1.516 -2.864,-1.516 v 0 c -0.84,0 -1.26,0.503 -1.26,1.509 v 0 c 0,0.976 0.259,2.09 0.776,3.34 v 0 c 0.518,1.25 1.177,2.343 1.978,3.281 v 0 c 1.132,1.328 2.241,1.992 3.325,1.992 v 0 c 0.606,0 0.908,-0.234 0.908,-0.703 v 0 c 0,-0.654 -0.412,-1.262 -1.238,-1.824 v 0 c -0.825,-0.561 -1.726,-0.842 -2.702,-0.842 v 0 c -0.244,0 -0.572,0.029 -0.981,0.087 v 0 c 0.175,-0.507 0.493,-0.761 0.952,-0.761 v 0 c 0.429,0 1.042,0.161 1.838,0.483 v 0 c 0.796,0.322 1.452,0.674 1.97,1.055 v 0 c 0.557,0.42 1.02,0.891 1.392,1.414 v 0 c 0.371,0.522 0.556,0.969 0.556,1.34 v 0 c 0,0.566 -0.385,0.85 -1.157,0.85 v 0 c -1.328,0 -2.841,-0.635 -4.541,-1.905"
       transform="matrix(1.3333333,0,0,-1.3333333,0,172.66667)"
       style="fill:#ffffff;fill-opacity:1;stroke:none" />
    <path
       id="path64"
       d="m 121.745,31.643 c -1.993,-1.103 -3.648,-2.512 -4.966,-4.225 v 0 c -1.318,-1.715 -1.978,-3.309 -1.978,-4.783 v 0 c 0,-0.869 0.342,-1.304 1.025,-1.304 v 0 c 0.783,0 1.839,0.489 3.172,1.465 v 0 c 1.333,0.977 2.63,2.207 3.89,3.691 v 0 c -1.113,-2.412 -1.695,-4.111 -1.743,-5.098 v 0 c 1.777,0.44 3.178,1.045 4.203,1.817 v 0 l -0.263,0.381 c -0.626,-0.372 -1.06,-0.567 -1.304,-0.586 v 0 c -0.264,-0.019 -0.396,0.112 -0.396,0.395 v 0 c 0,0.352 0.464,1.568 1.392,3.648 v 0 l 0.117,0.248 c -0.693,-0.233 -1.274,-0.37 -1.743,-0.409 v 0 c 0.957,1.23 1.436,2.319 1.436,3.266 v 0 c 0,0.684 -0.211,1.153 -0.63,1.407 v 0 c -0.362,-1.661 -1.04,-3.262 -2.037,-4.805 v 0 c -0.722,-1.114 -1.542,-2.093 -2.46,-2.937 v 0 c -0.918,-0.845 -1.621,-1.267 -2.11,-1.267 v 0 c -0.576,0 -0.864,0.39 -0.864,1.172 v 0 c 0,1.67 0.791,3.354 2.373,5.053 v 0 c 2.149,2.315 4.712,3.472 7.691,3.472 v 0 c 0.624,0 1.269,-0.058 1.933,-0.176 v 0 c 0.293,0.547 0.439,0.918 0.439,1.113 v 0 c 0,0.235 -0.155,0.352 -0.469,0.352 v 0 c -2.226,0 -4.462,-0.63 -6.708,-1.89"
       transform="matrix(1.3333333,0,0,-1.3333333,0,172.66667)"
       style="fill:#ffffff;fill-opacity:1;stroke:none" />
    <path
       id="path67"
       d="m 132.395,36.14 c -0.05,0 -0.147,0.006 -0.294,0.015 v 0 c -0.498,-1.221 -0.891,-1.963 -1.179,-2.227 v 0 c -0.288,-0.263 -0.852,-0.395 -1.692,-0.395 v 0 h -0.191 l -0.204,-0.439 h 1.919 l -0.147,-0.338 c -0.137,-0.341 -0.63,-1.494 -1.479,-3.457 v 0 l -1.524,-3.471 c -0.82,-1.894 -1.23,-3.047 -1.23,-3.457 v 0 c 0,-0.577 0.366,-0.865 1.098,-0.865 v 0 c 0.488,0 1.108,0.157 1.861,0.469 v 0 c 0.751,0.313 1.421,0.694 2.007,1.143 v 0 l -0.235,0.381 c -0.898,-0.606 -1.607,-0.908 -2.124,-0.908 v 0 c -0.43,0 -0.645,0.21 -0.645,0.63 v 0 c 0,0.419 0.357,1.42 1.07,3.002 v 0 c 0.605,1.358 1.074,2.422 1.406,3.194 v 0 c 0.82,1.894 1.323,3.037 1.509,3.428 v 0 l 0.117,0.249 h 2.065 l 0.191,0.439 h -2.066 l 0.147,0.337 0.439,1.054 c 0.274,0.645 0.465,1.109 0.572,1.392 v 0 c -0.459,-0.117 -0.923,-0.176 -1.391,-0.176"
       transform="matrix(1.3333333,0,0,-1.3333333,0,172.66667)"
       style="fill:#ffffff;fill-opacity:1;stroke:none" />
    <path
       id="path70"
       d="m 138.598,37.312 c -0.201,-0.205 -0.3,-0.434 -0.3,-0.688 v 0 c 0,-0.449 0.229,-0.673 0.688,-0.673 v 0 c 0.254,0 0.481,0.101 0.681,0.306 v 0 c 0.2,0.206 0.3,0.435 0.3,0.689 v 0 c 0,0.449 -0.224,0.674 -0.673,0.674 v 0 c -0.264,0 -0.496,-0.103 -0.696,-0.308 m -0.594,-3.647 c -1.122,-0.498 -2.226,-0.947 -3.31,-1.348 v 0 l -0.308,-0.102 0.147,-0.469 c 0.147,0.058 0.239,0.092 0.278,0.102 v 0 l 0.616,0.22 c 0.205,0.068 0.37,0.103 0.497,0.103 v 0 c 0.274,0 0.401,-0.152 0.381,-0.454 v 0 c -0.019,-0.391 -0.556,-1.739 -1.611,-4.043 v 0 c -0.83,-1.797 -1.37,-3.084 -1.619,-3.86 v 0 c -0.249,-0.777 -0.398,-1.624 -0.447,-2.542 v 0 c 0.918,0.313 2.144,0.836 3.677,1.567 v 0 l -0.19,0.425 c -0.449,-0.195 -0.771,-0.297 -0.967,-0.307 v 0 c -0.342,-0.02 -0.508,0.122 -0.498,0.425 v 0 c 0.02,0.292 0.318,1.098 0.894,2.417 v 0 l 1.083,2.461 c 1.212,2.714 1.817,4.531 1.817,5.449 v 0 0.161 z"
       transform="matrix(1.3333333,0,0,-1.3333333,0,172.66667)"
       style="fill:#ffffff;fill-opacity:1;stroke:none" />
    <path
       id="path73"
       d="m 145.57,32.889 c -0.99,-0.371 -1.907,-0.845 -2.746,-1.421 v 0 c -1.524,-1.055 -2.752,-2.312 -3.684,-3.772 v 0 c -0.932,-1.46 -1.4,-2.86 -1.4,-4.197 v 0 c 0,-0.606 0.184,-1.109 0.55,-1.509 v 0 c 0.367,-0.4 0.827,-0.601 1.385,-0.601 v 0 c 1.278,0 2.885,0.86 4.819,2.579 v 0 c 2.255,1.982 3.383,3.857 3.383,5.625 v 0 c 0,0.527 -0.156,0.974 -0.468,1.34 v 0 c -0.313,0.366 -0.694,0.549 -1.143,0.549 v 0 c -0.674,0 -1.387,-0.332 -2.138,-0.995 v 0 C 143.375,29.822 143,29.187 143,28.582 v 0 c 0,-0.146 0.024,-0.318 0.073,-0.513 v 0 c 0.713,1.563 1.46,2.344 2.241,2.344 v 0 c 0.225,0 0.418,-0.105 0.579,-0.315 v 0 c 0.161,-0.21 0.242,-0.466 0.242,-0.769 v 0 c 0,-1.357 -0.616,-2.852 -1.846,-4.483 v 0 c -1.23,-1.631 -2.354,-2.446 -3.37,-2.446 v 0 c -0.429,0 -0.783,0.154 -1.062,0.462 v 0 c -0.278,0.308 -0.417,0.7 -0.417,1.179 v 0 c 0,0.684 0.186,1.531 0.557,2.541 v 0 c 0.371,1.011 0.825,1.908 1.362,2.689 v 0 c 1.368,1.972 3.335,2.958 5.903,2.958 v 0 c 0.342,0 0.772,-0.024 1.289,-0.073 v 0 c 0.127,0.332 0.191,0.572 0.191,0.718 v 0 c 0,0.381 -0.215,0.571 -0.644,0.571 v 0 c -0.694,0 -1.537,-0.185 -2.528,-0.556"
       transform="matrix(1.3333333,0,0,-1.3333333,0,172.66667)"
       style="fill:#ffffff;fill-opacity:1;stroke:none" />
    <path
       id="path76"
       d="m 153.532,33.592 c -1.104,-0.488 -2.339,-0.928 -3.706,-1.319 v 0 l 0.088,-0.469 c 0.068,0.02 0.121,0.034 0.161,0.044 v 0 c 0.488,0.147 0.805,0.22 0.952,0.22 v 0 c 0.283,0 0.425,-0.176 0.425,-0.528 v 0 c 0,-0.419 -0.456,-1.774 -1.37,-4.064 v 0 c -0.913,-2.29 -1.819,-4.353 -2.717,-6.189 v 0 c 0.84,0.362 1.49,0.596 1.948,0.703 v 0 c 1.123,2.598 2.515,4.825 4.175,6.679 v 0 c 0.801,0.9 1.623,1.691 2.468,2.374 v 0 c 0.845,0.684 1.419,1.025 1.721,1.025 v 0 c 0.215,0 0.322,-0.131 0.322,-0.395 v 0 c 0,-0.176 -0.161,-0.576 -0.483,-1.202 v 0 l -0.952,-1.816 c -1.689,-3.281 -2.637,-5.727 -2.841,-7.339 v 0 c 1.601,0.333 2.988,0.918 4.159,1.758 v 0 l -0.234,0.395 -0.073,-0.058 c -0.508,-0.322 -0.908,-0.483 -1.201,-0.483 v 0 c -0.264,0 -0.396,0.141 -0.396,0.424 v 0 c 0,0.371 0.767,2.041 2.3,5.011 v 0 c 1.279,2.489 1.919,3.988 1.919,4.496 v 0 c 0,0.489 -0.239,0.733 -0.718,0.733 v 0 c -0.761,0 -1.819,-0.525 -3.172,-1.575 v 0 c -1.352,-1.05 -2.829,-2.488 -4.43,-4.314 v 0 l -0.249,-0.278 0.205,0.439 c 1.279,2.832 1.918,4.683 1.918,5.552 v 0 c 0,0.049 -0.009,0.137 -0.028,0.264 v 0 z"
       transform="matrix(1.3333333,0,0,-1.3333333,0,172.66667)"
       style="fill:#ffffff;fill-opacity:1;stroke:none" />
    <path
       id="path79"
       d="m 164.965,33.16 c -0.601,-0.269 -1.204,-0.736 -1.809,-1.399 v 0 c -0.899,-1.006 -1.348,-1.914 -1.348,-2.725 v 0 c 0,-0.449 0.083,-0.86 0.25,-1.231 v 0 l 0.864,-1.89 c 0.195,-0.439 0.292,-0.829 0.292,-1.171 v 0 c 0,-0.645 -0.273,-1.211 -0.82,-1.7 v 0 c -0.547,-0.487 -1.177,-0.731 -1.89,-0.731 v 0 c -0.898,0 -1.65,0.517 -2.255,1.552 v 0 c -0.235,-0.43 -0.352,-0.874 -0.352,-1.333 v 0 c 0,-0.39 0.161,-0.711 0.483,-0.959 v 0 c 0.322,-0.249 0.733,-0.374 1.231,-0.374 v 0 c 0.869,0 1.865,0.454 2.988,1.362 v 0 c 1.299,1.055 1.949,2.174 1.949,3.354 v 0 c 0,0.606 -0.118,1.163 -0.352,1.671 v 0 l -0.703,1.508 c -0.195,0.431 -0.293,0.801 -0.293,1.114 v 0 c 0,0.586 0.225,1.101 0.674,1.545 v 0 c 0.449,0.444 0.972,0.667 1.567,0.667 v 0 c 0.654,0 0.982,-0.186 0.982,-0.556 v 0 c 0,-0.177 -0.103,-0.475 -0.308,-0.894 v 0 c -0.02,-0.05 -0.054,-0.127 -0.103,-0.235 v 0 l 0.366,-0.248 0.162,0.234 c 0.283,0.429 0.551,0.859 0.805,1.288 v 0 l 0.718,1.202 0.161,0.278 c -0.312,0.049 -0.644,0.074 -0.996,0.074 v 0 c -0.908,0 -1.662,-0.135 -2.263,-0.403"
       transform="matrix(1.3333333,0,0,-1.3333333,0,172.66667)"
       style="fill:#ffffff;fill-opacity:1;stroke:none" />
  </g>
</svg>
